<svg width="15" height="15" viewBox="0 0 15 15" fill="none" xmlns="http://www.w3.org/2000/svg">
<path d="M6.79426 7.89706C6.95181 7.89706 7.08397 7.84368 7.19074 7.73691C7.2975 7.63015 7.3507 7.49817 7.35033 7.34099C7.34996 7.18381 7.29658 7.05183 7.19018 6.94507C7.08379 6.8383 6.95181 6.78492 6.79426 6.78492C6.63671 6.78492 6.50473 6.8383 6.39834 6.94507C6.29194 7.05183 6.23856 7.18381 6.23819 7.34099C6.23782 7.49817 6.2912 7.63033 6.39834 7.73747C6.50547 7.8446 6.63745 7.8978 6.79426 7.89706ZM4.56998 12.3456L4.22244 11.303L7.9064 10.6774L7.97591 3.58752L4.22244 2.96194L4.56998 2.33636L8.39296 3.17047V7.34099V11.9286L4.56998 12.3456ZM2.3457 12.3456V11.5115H3.59686L3.45784 2.33636H11.2428L11.3123 11.72H12.355V12.3456H2.3457ZM4.22244 11.303L10.4782 11.72V2.96194H4.22244V11.303Z" fill="#1560FF"/>
</svg>
