<svg width="17" height="16" viewBox="0 0 17 16" fill="none" xmlns="http://www.w3.org/2000/svg">
<rect x="0.0521851" width="16" height="16" rx="8" fill="#1560FF"/>
<path d="M7.60777 8.44438C7.7337 8.44438 7.83933 8.40172 7.92466 8.31638C8.00999 8.23105 8.05251 8.12557 8.05222 7.99994C8.05192 7.87431 8.00925 7.76883 7.92422 7.68349C7.83918 7.59816 7.7337 7.55549 7.60777 7.55549C7.48185 7.55549 7.37636 7.59816 7.29133 7.68349C7.20629 7.76883 7.16362 7.87431 7.16333 7.99994C7.16303 8.12557 7.2057 8.2312 7.29133 8.31683C7.37696 8.40246 7.48244 8.44498 7.60777 8.44438ZM5.82999 11.9999L5.55222 11.1666L8.49666 10.6666L8.55222 4.99994L5.55222 4.49994L5.82999 3.99994L8.88555 4.66661V7.99994V11.6666L5.82999 11.9999ZM4.05222 11.9999V11.3333H5.05222L4.9411 3.99994H11.1633L11.2189 11.4999H12.0522V11.9999H4.05222ZM5.55222 11.1666L10.5522 11.4999V4.49994H5.55222V11.1666Z" fill="white"/>
</svg>
