<svg width="80" height="80" viewBox="0 0 80 80" fill="none" xmlns="http://www.w3.org/2000/svg">
<path d="M3.33398 60C3.83398 54.0556 5.65398 48.5833 8.79398 43.5833C11.934 38.5833 16.114 34.6111 21.334 31.6667L15.1673 21C14.834 20.5 14.7507 19.9722 14.9173 19.4167C15.084 18.8611 15.4451 18.4444 16.0007 18.1667C16.4451 17.8889 16.9451 17.8333 17.5007 18C18.0562 18.1667 18.5007 18.5 18.834 19L25.0007 29.6667C29.7784 27.6667 34.7784 26.6667 40.0007 26.6667C45.2229 26.6667 50.2229 27.6667 55.0007 29.6667L61.1673 19C61.5007 18.5 61.9451 18.1667 62.5007 18C63.0562 17.8333 63.5562 17.8889 64.0007 18.1667C64.5562 18.4444 64.9173 18.8611 65.084 19.4167C65.2507 19.9722 65.1673 20.5 64.834 21L58.6673 31.6667C63.8895 34.6111 68.0695 38.5833 71.2073 43.5833C74.3451 48.5833 76.1651 54.0556 76.6673 60H3.33398ZM23.334 50.8333C24.5007 50.8333 25.4873 50.43 26.294 49.6233C27.1007 48.8167 27.5029 47.8311 27.5007 46.6667C27.4984 45.5022 27.0951 44.5156 26.2907 43.7067C25.4862 42.8978 24.5007 42.4956 23.334 42.5C22.1673 42.5044 21.1807 42.9078 20.374 43.71C19.5673 44.5122 19.1651 45.4978 19.1673 46.6667C19.1695 47.8356 19.5729 48.8222 20.3773 49.6267C21.1818 50.4311 22.1673 50.8333 23.334 50.8333ZM56.6673 50.8333C57.834 50.8333 58.8207 50.43 59.6273 49.6233C60.434 48.8167 60.8362 47.8311 60.834 46.6667C60.8318 45.5022 60.4284 44.5156 59.624 43.7067C58.8195 42.8978 57.834 42.4956 56.6673 42.5C55.5007 42.5044 54.514 42.9078 53.7073 43.71C52.9007 44.5122 52.4984 45.4978 52.5007 46.6667C52.5029 47.8356 52.9062 48.8222 53.7107 49.6267C54.5151 50.4311 55.5007 50.8333 56.6673 50.8333Z" fill="black"/>
</svg>
