<svg width="57" height="57" viewBox="0 0 57 57" fill="none" xmlns="http://www.w3.org/2000/svg">
<circle cx="28.5" cy="28.5" r="28.5" fill="#79A4FF" fill-opacity="0.12"/>
<circle cx="28.5" cy="28.5" r="28.25" stroke="#3877FF" stroke-opacity="0.5" stroke-width="0.5"/>
<rect x="13.4082" y="13.4082" width="29.6641" height="29.6641" rx="14.832" fill="white"/>
<rect x="13.4082" y="13.4082" width="29.6641" height="29.6641" rx="14.832" stroke="#1560FF" stroke-width="1.1836"/>
<path d="M22.3223 34.1582V32.8431H23.6374V23.6374C23.6374 23.2757 23.7663 22.9662 24.024 22.7089C24.2818 22.4516 24.5913 22.3227 24.9525 22.3223H31.528C31.8897 22.3223 32.1994 22.4511 32.4571 22.7089C32.7149 22.9667 32.8436 23.2762 32.8431 23.6374V32.8431H34.1582V34.1582H22.3223ZM30.2129 32.8431H31.528V23.6374H28.569V22.9141C29.0512 23.0017 29.4458 23.2264 29.7526 23.5881C30.0595 23.9497 30.2129 24.3716 30.2129 24.8538V32.8431ZM27.5827 28.8978C27.769 28.8978 27.9253 28.8347 28.0515 28.7084C28.1778 28.5822 28.2407 28.4261 28.2402 28.2402C28.2398 28.0544 28.1767 27.8983 28.0509 27.7721C27.9251 27.6458 27.769 27.5827 27.5827 27.5827C27.3964 27.5827 27.2403 27.6458 27.1145 27.7721C26.9887 27.8983 26.9256 28.0544 26.9251 28.2402C26.9247 28.4261 26.9878 28.5824 27.1145 28.7091C27.2412 28.8358 27.3973 28.8987 27.5827 28.8978Z" fill="#1560FF"/>
</svg>
