<svg width="24" height="24" viewBox="0 0 24 24" fill="none" xmlns="http://www.w3.org/2000/svg">
<g clip-path="url(#clip0_1371_16714)">
<path d="M2 21V22C2 22.2833 1.904 22.521 1.712 22.713C1.52 22.905 1.28267 23.0007 1 23C0.717333 22.9993 0.48 22.9033 0.288 22.712C0.096 22.5207 0 22.2833 0 22V3C0 2.45 0.196 1.97933 0.588 1.588C0.98 1.19667 1.45067 1.00067 2 1H9C9.55 1 10.021 1.196 10.413 1.588C10.805 1.98 11.0007 2.45067 11 3V22C11 22.2833 10.904 22.521 10.712 22.713C10.52 22.905 10.2827 23.0007 10 23C9.71733 22.9993 9.48 22.9033 9.288 22.712C9.096 22.5207 9 22.2833 9 22V21H2ZM19.425 15.85L17.5 17.65V22C17.5 22.2833 17.404 22.521 17.212 22.713C17.02 22.905 16.7827 23.0007 16.5 23C16.2173 22.9993 15.98 22.9033 15.788 22.712C15.596 22.5207 15.5 22.2833 15.5 22V16.4L17.65 14.35L17.125 11.75C16.5917 12.3833 15.9583 12.8793 15.225 13.238C14.4917 13.5967 13.7333 13.8257 12.95 13.925C12.6833 13.9583 12.4583 13.8833 12.275 13.7C12.0917 13.5167 12 13.2833 12 13C12 12.7167 12.0877 12.475 12.263 12.275C12.4383 12.075 12.6673 11.95 12.95 11.9C13.5833 11.7667 14.1833 11.521 14.75 11.163C15.3167 10.805 15.7917 10.309 16.175 9.675L16.925 8.45C17.175 8.03333 17.5417 7.75 18.025 7.6C18.5083 7.45 18.9667 7.46667 19.4 7.65L23.4 9.35C23.5833 9.43333 23.7293 9.55433 23.838 9.713C23.9467 9.87167 24.0007 10.0507 24 10.25V13.5C24 13.7833 23.904 14.021 23.712 14.213C23.52 14.405 23.2827 14.5007 23 14.5C22.7173 14.4993 22.48 14.4033 22.288 14.212C22.096 14.0207 22 13.7833 22 13.5V10.925L20.575 10.325L22.775 21.8C22.8417 22.1167 22.7707 22.396 22.562 22.638C22.3533 22.88 22.0827 23.0007 21.75 23C21.5167 23 21.3083 22.925 21.125 22.775C20.9417 22.625 20.825 22.4333 20.775 22.2L19.425 15.85ZM2 19H9V3H2V19ZM4.75 12.575L6.75 11.425C6.91667 11.325 7 11.1833 7 11C7 10.8167 6.91667 10.675 6.75 10.575L4.75 9.425C4.58333 9.325 4.41667 9.325 4.25 9.425C4.08333 9.525 4 9.66667 4 9.85V12.15C4 12.3333 4.08333 12.475 4.25 12.575C4.41667 12.675 4.58333 12.675 4.75 12.575ZM17 7C16.45 7 15.9793 6.804 15.588 6.412C15.1967 6.02 15.0007 5.54933 15 5C14.9993 4.45067 15.1953 3.98 15.588 3.588C15.9807 3.196 16.4513 3 17 3C17.5487 3 18.0197 3.196 18.413 3.588C18.8063 3.98 19.002 4.45067 19 5C18.998 5.54933 18.8023 6.02033 18.413 6.413C18.0237 6.80567 17.5527 7.00133 17 7Z" fill="#939290"/>
</g>
<defs>
<clipPath id="clip0_1371_16714">
<rect width="24" height="24" fill="white"/>
</clipPath>
</defs>
</svg>
