<svg width="24" height="24" viewBox="0 0 24 24" fill="none" xmlns="http://www.w3.org/2000/svg">
<path d="M24 7.2L22.8 6L21 7.8L19.2 6L18 7.2L19.8 9L18 10.8L19.2 12L21 10.2L22.8 12L24 10.8L22.2 9L24 7.2Z" fill="#939290"/>
<path d="M9.00078 21.6C11.3204 21.6 13.2008 19.7196 13.2008 17.4C13.2008 15.0804 11.3204 13.2 9.00078 13.2C6.68119 13.2 4.80078 15.0804 4.80078 17.4C4.80078 19.7196 6.68119 21.6 9.00078 21.6Z" fill="#939290"/>
<path d="M8.4 6.00001C9.72548 6.00001 10.8 4.9255 10.8 3.60001C10.8 2.27453 9.72548 1.20001 8.4 1.20001C7.07452 1.20001 6 2.27453 6 3.60001C6 4.9255 7.07452 6.00001 8.4 6.00001Z" fill="#939290"/>
<path d="M15.6004 9.60001C16.2631 9.60001 16.8004 9.06275 16.8004 8.40001C16.8004 7.73727 16.2631 7.20001 15.6004 7.20001C14.9376 7.20001 14.4004 7.73727 14.4004 8.40001C14.4004 9.06275 14.9376 9.60001 15.6004 9.60001Z" fill="#939290"/>
<path d="M12.0008 8.4C12.6635 8.4 13.2008 7.86274 13.2008 7.2C13.2008 6.53726 12.6635 6 12.0008 6C11.338 6 10.8008 6.53726 10.8008 7.2C10.8008 7.86274 11.338 8.4 12.0008 8.4Z" fill="#939290"/>
<path d="M3.60039 4.80002C4.26313 4.80002 4.80039 4.26277 4.80039 3.60002C4.80039 2.93728 4.26313 2.40002 3.60039 2.40002C2.93765 2.40002 2.40039 2.93728 2.40039 3.60002C2.40039 4.26277 2.93765 4.80002 3.60039 4.80002Z" fill="#939290"/>
<path d="M1.2 8.4C1.86274 8.4 2.4 7.86274 2.4 7.2C2.4 6.53726 1.86274 6 1.2 6C0.537258 6 0 6.53726 0 7.2C0 7.86274 0.537258 8.4 1.2 8.4Z" fill="#939290"/>
<path d="M1.2 12C1.86274 12 2.4 11.4627 2.4 10.8C2.4 10.1373 1.86274 9.60001 1.2 9.60001C0.537258 9.60001 0 10.1373 0 10.8C0 11.4627 0.537258 12 1.2 12Z" fill="#939290"/>
<path d="M3.60039 15.6C4.26313 15.6 4.80039 15.0628 4.80039 14.4C4.80039 13.7373 4.26313 13.2 3.60039 13.2C2.93765 13.2 2.40039 13.7373 2.40039 14.4C2.40039 15.0628 2.93765 15.6 3.60039 15.6Z" fill="#939290"/>
</svg>
