<svg width="36" height="37" viewBox="0 0 36 37" fill="none" xmlns="http://www.w3.org/2000/svg">
<mask id="path-1-inside-1_1106_32542" fill="white">
<path d="M0 0.818359H36V36.8184H0V0.818359Z"/>
</mask>
<path d="M0 0.818359V-0.306641H-1.125V0.818359H0ZM0 36.8184H-1.125V37.9434H0V36.8184ZM0 0.818359V1.94336H36V0.818359V-0.306641H0V0.818359ZM36 36.8184V35.6934H0V36.8184V37.9434H36V36.8184ZM0 36.8184H1.125V0.818359H0H-1.125V36.8184H0Z" fill="#EBEBEB" mask="url(#path-1-inside-1_1106_32542)"/>
<path d="M29.25 19.3959C29.25 13.1447 24.2133 8.07715 18 8.07715C11.7868 8.07715 6.75 13.1447 6.75 19.3959C6.75 25.0453 10.8639 29.728 16.2422 30.5771V22.6677H13.3857V19.3959H16.2422V16.9022C16.2422 14.0655 17.9218 12.4985 20.4914 12.4985C21.7224 12.4985 23.0097 12.7196 23.0097 12.7196V15.5051H21.5912C20.1937 15.5051 19.7578 16.3776 19.7578 17.2728V19.3959H22.8779L22.3792 22.6677H19.7578V30.5771C25.1361 29.728 29.25 25.0455 29.25 19.3959Z" fill="#939290"/>
</svg>
