<svg width="24" height="24" viewBox="0 0 24 24" fill="none" xmlns="http://www.w3.org/2000/svg">
<path d="M3.87375 2.26218C3.23014 2.2654 2.614 2.52333 2.16004 2.97957C1.70608 3.43582 1.45124 4.05325 1.45125 4.69686C1.45254 5.26241 1.65067 5.80986 2.01163 6.24524C2.37259 6.68061 2.87386 6.97675 3.42937 7.0828V16.9125C2.87307 17.0187 2.37119 17.3155 2.01014 17.7519C1.64909 18.1882 1.45145 18.7368 1.45125 19.3031C1.45175 19.9485 1.70848 20.5673 2.16501 21.0235C2.62155 21.4797 3.24054 21.7359 3.88594 21.7359C4.53101 21.7354 5.14951 21.479 5.60565 21.0228C6.06178 20.5667 6.31825 19.9482 6.31875 19.3031C6.31865 18.7371 6.12134 18.1888 5.76076 17.7525C5.40017 17.3162 4.89884 17.0192 4.34297 16.9125V12.4547H11.5406V16.9125C10.9843 17.0187 10.4824 17.3155 10.1214 17.7519C9.76034 18.1882 9.5627 18.7368 9.5625 19.3031C9.56275 19.6229 9.62599 19.9395 9.74864 20.2349C9.87128 20.5303 10.0509 20.7986 10.2773 21.0245C10.5036 21.2504 10.7723 21.4295 11.0679 21.5516C11.3634 21.6737 11.6802 21.7363 12 21.7359C12.6451 21.7354 13.2636 21.479 13.7197 21.0228C14.1758 20.5667 14.4323 19.9482 14.4328 19.3031C14.4326 18.7368 14.235 18.1882 13.8739 17.7519C13.5129 17.3155 13.011 17.0187 12.4547 16.9125V12.4547H20.5687V7.0828C21.1243 6.97675 21.6255 6.68061 21.9865 6.24524C22.3474 5.80986 22.5456 5.26241 22.5469 4.69686C22.5469 4.05147 22.2906 3.43248 21.8344 2.97594C21.3782 2.5194 20.7595 2.26267 20.1141 2.26218H20.1047C19.4609 2.26515 18.8445 2.52297 18.3904 2.97925C17.9362 3.43552 17.6812 4.05309 17.6812 4.69686C17.6825 5.26241 17.8807 5.80986 18.2416 6.24524C18.6026 6.68061 19.1039 6.97675 19.6594 7.0828V11.5406H12.4547V7.0828C13.0102 6.97675 13.5115 6.68061 13.8724 6.24524C14.2334 5.80986 14.4315 5.26241 14.4328 4.69686C14.4328 4.05147 14.1766 3.43248 13.7204 2.97594C13.2642 2.5194 12.6454 2.26267 12 2.26218H11.9906C11.346 2.26391 10.7285 2.52119 10.2733 2.9776C9.81811 3.434 9.5625 4.05228 9.5625 4.69686C9.56379 5.26241 9.76192 5.80986 10.1229 6.24524C10.4838 6.68061 10.9851 6.97675 11.5406 7.0828V11.5406H4.34297V7.0828C4.89805 6.97627 5.39877 6.67993 5.75927 6.2446C6.11976 5.80927 6.31756 5.26208 6.31875 4.69686C6.31875 4.05147 6.06249 3.43248 5.60631 2.97594C5.15012 2.5194 4.53133 2.26267 3.88594 2.26218H3.87375Z" fill="#939290"/>
</svg>
