<svg width="1675" height="1141" viewBox="0 0 1675 1141" fill="none" xmlns="http://www.w3.org/2000/svg">
<path opacity="0.2" d="M1671.88 0.822266V1139.45H1.85107V0.822266H1671.88Z" stroke="#1560FF" stroke-width="0.754174"/>
<path d="M367.539 1000.6H429.613L422.651 1007.56M367.539 1000.6L306.767 1051.07M367.539 1000.6L371.599 1007.56M306.767 1051.07L299.083 1057.45H372.76L379.141 1051.07M306.767 1051.07H317.647M379.141 1051.07H351.295M379.141 1051.07L419.17 1011.04M351.295 1051.07L395.385 1011.04M351.295 1051.07H345.493M345.493 1051.07L389.004 1011.04M345.493 1051.07H326.13M326.13 1051.07L373.92 1011.04H419.17M326.13 1051.07H317.647M419.17 1011.04L422.651 1007.56M317.647 1051.07L371.599 1007.56M371.599 1007.56H422.651" stroke="#1560FF" stroke-width="0.754174"/>
<path d="M194.658 1139.83L258.473 1087.04H339.692L330.104 1096.32M285.159 1139.83L322.868 1103.32M212.062 1139.83L263.114 1096.32M263.114 1096.32H330.104M263.114 1096.32L265.435 1102.12M330.104 1096.32L322.868 1103.32M220.184 1139.83L265.435 1102.12M265.435 1102.12L288.06 1102.59M322.868 1103.32L294.151 1102.72M253.252 1139.83L294.151 1102.72M294.151 1102.72L288.06 1102.59M246.87 1139.83L288.06 1102.59" stroke="#1560FF" stroke-width="0.754174"/>
<path d="M351.875 1139.83L401.767 1087.04H496.908L489.367 1096.32M456.879 1139.83L484.146 1103.32M369.279 1139.83L406.988 1096.32M406.988 1096.32H489.367M406.988 1096.32L409.308 1102.59M489.367 1096.32L484.146 1103.32M377.401 1139.83L409.308 1102.59M409.308 1102.59H445.277M484.146 1103.32L451.368 1102.72M420.911 1139.83L451.368 1102.72M451.368 1102.72L445.277 1102.59M414.529 1139.83L445.277 1102.59" stroke="#1560FF" stroke-width="0.754174"/>
<path d="M1411.78 1042.37V320.099L1674 103.129M1266.75 433.225L1404.24 320.099L1674 93.8467" stroke="#1560FF" stroke-width="0.754174"/>
<path d="M402.927 807.991L375.08 795.809V803.93M402.927 807.991V877.027M402.927 807.991L394.805 811.472M402.927 877.027V885.149L375.08 877.027V869.486M402.927 877.027L394.805 874.828M375.08 869.486L389.583 873.414M375.08 869.486V843.38M394.805 874.828V811.472M394.805 874.828L389.583 873.414M394.805 811.472L389.583 809.476M375.08 803.93L389.583 809.476M375.08 803.93V838.158M389.583 809.476V844.54M389.583 873.414V850.341M389.583 850.341L375.08 843.38M389.583 850.341V844.54M375.08 843.38V838.158M389.583 844.54L375.08 838.158" stroke="#1560FF" stroke-width="0.754174"/>
<path d="M402.346 440.187V502.261L395.965 496.14M402.346 440.187L375.08 410.6V416.401M402.346 440.187H395.965M395.965 496.14L374.5 476L375.08 416.401M395.965 496.14V483.117M395.965 440.187L390.744 434.828M395.965 440.187V483.117M375.08 416.401L390.744 434.828M390.744 478.036V434.828M395.965 483.117L374.5 462.232" stroke="#1560FF" stroke-width="0.754174"/>
<path d="M419.17 821.915V814.953L441.215 824.236V885.73M419.17 821.915V881.669M419.17 821.915L428.453 825.697M434.834 884.569V828.296L428.453 825.697M441.215 885.73L428.453 883.474M441.215 885.73V889.791V894.432L419.17 889.791V881.669M419.17 881.669L428.453 883.474M428.453 883.474V825.697" stroke="#1560FF" stroke-width="0.754174"/>
<path d="M419.17 577.678V570.717L441.215 588.121V653.676M419.17 577.678V636.852M419.17 577.678L428.453 585.22M434.834 648.455V591.021L428.453 585.22M441.215 653.676L428.453 643.814M441.215 653.676V658.317L419.17 643.814V636.852M419.17 636.852L428.453 643.814M428.453 643.814V585.22" stroke="#1560FF" stroke-width="0.754174"/>
<path d="M441.215 707.048L419.17 691.965V700.087M441.215 707.048V770.863M441.215 707.048L434.834 709.949M419.17 700.087V758.68M419.17 700.087L428.453 705.888M434.834 709.949V766.802M434.834 709.949L428.453 705.888M441.215 770.863L428.453 763.901M441.215 770.863V766.802V778.405L419.17 766.802V758.68M419.17 758.68L428.453 763.901M428.453 763.901V705.888" stroke="#1560FF" stroke-width="0.754174"/>
<path d="M402.346 682.683L375.08 667.599V675.721M402.346 682.683L402.927 752.879M402.346 682.683L396.545 687.904M375.08 675.721L384.362 681.523M375.08 675.721V709.949M390.744 685.584L384.362 681.523M390.744 685.584L396.545 687.904M390.744 685.584V718.651M390.744 745.917V723.292M402.927 752.879V758.1L375.08 744.177V737.796M402.927 752.879L395.385 748.743M375.08 737.796L384.942 743.017M375.08 737.796V714.59M384.942 743.017L384.362 681.523M384.942 743.017L395.385 748.743M396.545 687.904L395.385 748.743M390.744 723.292L375.08 714.59M390.744 723.292V718.651M375.08 714.59V709.949M390.744 718.651L375.08 709.949" stroke="#1560FF" stroke-width="0.754174"/>
<path d="M79.7922 354.907V369.991L154.629 423.363V407.699M79.7922 354.907V219.156L154.629 289.352V407.699M79.7922 354.907L87.334 360.227M154.629 407.699L144.767 400.742M144.767 400.742V294.573L87.334 246.422V253.384M144.767 400.742L139.546 397.059M87.334 360.227V306.176M87.334 360.227L120.402 383.554M87.334 306.176L139.546 347.945M87.334 306.176V299.214M139.546 342.724L87.334 299.214M87.334 299.214V253.384M87.334 253.384L120.402 280.573M139.546 397.059V296.314L125.043 284.389M139.546 397.059L125.043 386.828M120.402 280.573C120.402 320.789 120.402 343.337 120.402 383.554M120.402 280.573L125.043 284.389M120.402 383.554L125.043 386.828M125.043 386.828V284.389" stroke="#1560FF" stroke-width="0.754174"/>
<path d="M349.555 339.243V986.093L356.516 981.12V357.228L451.078 459.331V448.309L349.555 339.243Z" fill="#DEE9F4"/>
<path d="M349.555 339.243V986.093M349.555 339.243L451.078 448.309V459.331M349.555 339.243L333.311 345.045M349.555 986.093L356.516 981.12M349.555 986.093L282.259 1028.96M108.219 1139.83L282.259 1028.96M356.516 981.12L357.677 980.291L451.078 912.416V459.331M356.516 981.12V357.228L451.078 459.331M282.259 1028.96V916.477M282.259 916.477L335.051 910.675V906.034M282.259 916.477L212.208 903.133V892.111L265.435 890.951M335.051 846.28V840.479L282.259 821.979M335.051 846.28V895.592M335.051 846.28L330.41 844.654M265.435 822.495H257.313M265.435 822.495V878.188M265.435 822.495L272.397 824.324M335.051 895.592V906.034M335.051 895.592L330.41 894.431M265.435 878.188H257.893M265.435 878.188L272.397 879.928M265.435 878.188V890.951M213.223 878.188H217.864M335.051 906.034L265.435 890.951M217.864 878.188V822.495M217.864 878.188H227.146M217.864 822.495H212.063V816.694H238.169M217.864 822.495H227.146M227.146 822.495V878.188M227.146 822.495H238.169M227.146 878.188H238.169M238.169 878.188V822.495M238.169 878.188H247.451M238.169 822.495H247.451M247.451 878.188V822.495M247.451 878.188H257.893M247.451 822.495H257.313M257.893 878.188L257.313 822.495M272.397 879.928V824.324M272.397 879.928L278.778 881.523M272.397 824.324L278.778 826.561M278.778 881.523V826.561M278.778 881.523L286.32 883.409M278.778 826.561L286.32 829.204M286.32 883.409V829.204M286.32 883.409L295.022 885.584M286.32 829.204L295.022 832.253M295.022 885.584V832.253M295.022 885.584L302.564 887.47M295.022 832.253L302.564 834.896M302.564 887.47V834.896M302.564 887.47L308.945 889.065M302.564 834.896L308.945 837.132M308.945 889.065V837.132M308.945 889.065L316.487 890.951M308.945 837.132L316.487 839.775M316.487 890.951V839.775M316.487 890.951L322.868 892.546M316.487 839.775L322.868 842.011M322.868 892.546V842.011M322.868 892.546L330.41 894.431M322.868 842.011L330.41 844.654M330.41 894.431V844.654M242.23 816.694H265.699L275.453 819.594M242.23 816.694V766.925M242.23 816.694H238.169M238.169 816.694V765.202L270.656 778.985M270.656 778.985L212.643 754.619M270.656 778.985V817.913M275.453 819.594V773.764L212.643 747.658M275.453 819.594L282.259 821.979M282.259 821.979V740.844M282.259 740.844L212.111 707.342V694.865H266.015M282.259 740.844L336.211 733.011M336.211 733.011L266.015 694.865M336.211 733.011V720.971M266.015 694.865V682.102M266.015 682.102V632.211M266.015 682.102L272.825 685.873M266.015 682.102H257.893M212.643 682.102H217.864M336.211 720.971V675.141M336.211 720.971L329.925 717.491M266.015 625.249V632.211M266.015 625.249L270.076 627.766M266.015 625.249H244.55M266.015 632.211L272.825 636.376M266.015 632.211L257.893 632.032M336.211 675.141V668.759L282.259 635.318M336.211 675.141L329.25 670.883M329.925 717.491L329.25 670.883M329.925 717.491L322.288 713.262M329.25 670.883L322.288 666.626M322.288 713.262V666.626M322.288 713.262L315.907 709.728M322.288 666.626L316.487 663.078M315.907 709.728L316.487 663.078M315.907 709.728L309.525 706.195M316.487 663.078L309.525 658.82M309.525 706.195V658.82M309.525 706.195L302.564 702.34M309.525 658.82L302.564 654.563M302.564 702.34V654.563M302.564 702.34L295.022 698.164M302.564 654.563L295.602 650.305M295.022 698.164L295.602 650.305M295.022 698.164L287.48 693.988M295.602 650.305L287.48 645.338M287.48 693.988V645.338M287.48 693.988L279.635 689.644M287.48 645.338L279.635 640.541M279.635 689.644V640.541M279.635 689.644L272.825 685.873M279.635 640.541L272.825 636.376M272.825 685.873V636.376M213.223 570.717L240.489 589.636M270.076 627.766V610.166L244.55 592.454M270.076 627.766L276.458 631.722M276.458 631.722V606.685L212.643 562.595M276.458 631.722L282.259 635.318M282.259 635.318V581.159M282.259 581.159L212.208 525.471V512.703H266.015M282.259 581.159L336.211 575.358V567.527M336.211 510.383V501.681L282.259 454.13M336.211 510.383V556.213M336.211 510.383L329.54 504.483M266.015 448.309H257.893M266.015 448.309V499.94M266.015 448.309L272.597 454.13M336.211 556.213V567.527M336.211 556.213L329.54 550.865M266.015 499.94H257.893M266.015 499.94V512.703M266.015 499.94L272.397 505.056M212.208 499.94H217.284M266.015 512.703L266.731 513.284L336.211 567.527M257.893 682.102V632.032M257.893 682.102H248.031M257.893 632.032L248.031 631.816M248.031 682.102V631.816M248.031 682.102H238.169M248.031 631.816L238.169 631.599M238.169 682.102V631.599M238.169 682.102H227.726M238.169 631.599L227.726 631.369M227.726 682.102H227.146H217.864M227.726 682.102V631.369M227.726 631.369L217.864 631.153M217.864 682.102V631.153M217.864 631.153L212.063 631.051V625.249H240.489M244.55 625.249V592.454M244.55 625.249H240.489M244.55 592.454L240.489 589.636M240.489 625.249V589.636M213.223 939.682L275.297 947.224L274.137 1022.64H213.223M213.223 1015.1H238.169M213.223 946.063L238.169 949.149M238.169 949.149V1015.1M238.169 949.149L242.81 949.724M238.169 1015.1H242.81M242.81 949.724L269.496 953.025V1015.1H242.81M242.81 949.724V1015.1M282.259 454.13V437.286M282.259 454.13L274.717 447.483M282.259 411.76L212.208 347.365V342.144H262.534M282.259 411.76V437.286M282.259 411.76L333.311 413.501M282.259 437.286L213.223 376.372M213.223 384.494L242.934 409.44M274.717 447.483V436.126L269.496 431.742M274.717 447.483L269.496 442.881M269.496 442.881L267.756 441.347H247.77M269.496 442.881V431.742M269.496 431.742L247.77 413.501M247.77 413.501V441.347M247.77 413.501L242.934 409.44M247.77 441.347H242.934M242.934 409.44V441.347M242.934 441.347H212.063V448.309H217.284M242.934 441.347L213.223 414.661M262.534 342.144V328.221M262.534 342.144L333.311 413.501M262.534 328.221H254.412M262.534 328.221V280.65M262.534 328.221L271.236 337.065M212.208 328.221H218.444M333.311 400.157V413.501M333.311 400.157V351.426M333.311 400.157L323.448 390.133M333.311 351.426V345.045M333.311 351.426L323.448 341.564M333.311 345.045L256.153 268.467H212.063V274.268H218.444M218.444 328.221V274.268M218.444 328.221H227.726M218.444 274.268H227.726M227.726 328.221V274.268M227.726 328.221H237.589M227.726 274.268H237.589M237.589 328.221V274.268M237.589 328.221H246.291M237.589 274.268H246.291M246.291 328.221V274.268M246.291 328.221H254.412M246.291 274.268H254.412M254.412 328.221V274.268M254.412 274.268H256.153L262.534 280.65M262.534 280.65L271.236 289.352M271.236 337.065V289.352M271.236 337.065L279.938 345.91M271.236 289.352L279.938 298.054M279.938 345.91V298.054M279.938 345.91L288.64 354.755M279.938 298.054L288.64 306.756M288.64 354.755V306.756M288.64 354.755L296.21 362.449M288.64 306.756L296.21 314.326M296.21 362.449V314.326M296.21 362.449L303.724 370.086M296.21 314.326L303.724 321.839M303.724 370.086V321.839M303.724 370.086L311.05 377.532M303.724 321.839L311.05 329.166M311.05 377.532V329.166M311.05 377.532L317.647 384.237M311.05 329.166L317.647 335.763M317.647 384.237V335.763M317.647 384.237L323.448 390.133M317.647 335.763L323.448 341.564M323.448 390.133V341.564M217.284 448.309V499.94M217.284 448.309H227.146M217.284 499.94H227.146M227.146 448.309V499.94M227.146 448.309H237.589M227.146 499.94H237.589M237.589 448.309V499.94M237.589 448.309H246.871M237.589 499.94H246.871M246.871 448.309V499.94M246.871 448.309H257.893M246.871 499.94H257.893M257.893 448.309V499.94M272.397 505.056L272.597 454.13M272.397 505.056L279.938 511.102M272.597 454.13L279.938 460.621M279.938 511.102V460.621M279.938 511.102L287.002 516.764M279.938 460.621L287.002 466.867M287.002 516.764V466.867M287.002 516.764L294.962 523.146M287.002 466.867L294.962 473.906M294.962 523.146V473.906M294.962 523.146L302.199 528.947M294.962 473.906L302.199 480.306M302.199 528.947V480.306M302.199 528.947L309.525 534.82M302.199 480.306L309.525 486.784M309.525 534.82V486.784M309.525 534.82L315.225 539.39M309.525 486.784L316.487 492.941M316.487 492.941L315.225 539.39M316.487 492.941L322.868 498.584M315.225 539.39L322.868 545.517M322.868 545.517V498.584M322.868 545.517L329.54 550.865M322.868 498.584L329.54 504.483M329.54 550.865V504.483" stroke="#1560FF" stroke-width="0.754174"/>
<path d="M375.08 967.528V935.041M405.827 945.483L405.247 936.201L375.08 926.919V935.041M375.08 935.041L388.423 938.89M405.827 943.743L393.064 940.229M388.423 938.89V957.666M388.423 938.89L393.064 940.229M393.064 940.229V954.765" stroke="#1560FF" stroke-width="0.754174"/>
<path d="M2.05425 163.463L23.5192 182.027V321.839M2.05425 321.839L23.5192 338.083V321.839M23.5192 321.839L12.7867 314.588M2.05425 307.336L7.42049 310.962M12.7867 314.588V187.829L2.05425 177.966M12.7867 314.588L7.42049 310.962M2.05425 187.829L6.69533 191.309L7.03286 247.002M7.42049 310.962L7.08208 255.124M7.08208 255.124L1.47412 250.483M7.08208 255.124L7.03286 247.002M7.03286 247.002L1.47412 243.521" stroke="#1560FF" stroke-width="0.754174"/>
<path d="M183.636 214.515V220.316M183.636 220.316L176.906 214.225M183.636 220.316V257.445M91.975 173.905V137.357L99.6668 144.318M99.6668 144.318L108 151.86M99.6668 144.318V180.987M99.6668 182.027V180.987M108 151.86L122.742 165.203M108 151.86V188.574M108 189.569V188.574M116.341 159.409V195.95M122.742 165.203L130.844 172.536M122.742 165.203V201.998M122.742 202.912V201.998M130.844 172.536L138.966 179.887M130.844 172.536V209.375M130.844 209.874V209.375M138.966 179.887L147.088 187.237M138.966 179.887V216.77M138.966 217.415V216.77M147.088 187.237L154.792 194.21M147.088 187.237V224.166M147.088 224.377V224.166M154.792 194.21V168.684M154.792 194.21L161.591 200.364M154.792 194.21V231.18M154.792 231.919V231.18M162.751 201.414L170.175 208.133M162.751 201.414L161.591 200.364M162.751 201.414V238.428M162.751 238.88V238.428M170.175 208.133L176.906 214.225M170.175 208.133V245.188M170.175 245.262V245.188M176.906 214.225V251.063M176.906 214.225L205.681 210.663M183.636 257.445V265.566L2.05425 101.389V92.1064L3.96564 93.8468M183.636 257.445L170.175 245.188M10.3369 99.6482L9.59599 30.6122M10.3369 99.6482L3.96564 93.8468M10.3369 99.6482L82.3326 165.203M3.96564 93.8468V32.9328L1.47412 32.3526M154.792 168.684L156.37 161.446M154.792 168.684L82.3326 99.0541M161.591 200.364V166.364L156.37 161.446M156.37 161.446L2.05425 16.1089V21.9102L82.3326 99.0541M82.3326 165.203V99.0541M82.3326 165.203L99.6668 180.987M205.681 210.663L212.063 209.874V1073.11L205.681 1077.75V210.663ZM170.175 245.188L162.751 238.428M162.751 238.428L154.792 231.18M154.792 231.18L147.088 224.166M147.088 224.166L138.966 216.77M138.966 216.77L130.844 209.375M130.844 209.375L122.742 201.998M122.742 201.998L108 188.574M108 188.574L99.6668 180.987" stroke="#1560FF" stroke-width="0.754174"/>
<path d="M144.767 625.249L145.078 515.604L86.7537 480.216V487.758M144.767 625.249L139.546 622.534M144.767 625.249L153.469 629.89M86.7537 487.758V538.809M86.7537 487.758L120.982 507.693M139.546 622.534V571.877M139.546 622.534L124.462 614.691M86.7537 543.451V595.082L120.401 612.579M86.7537 543.451L139.546 571.877M86.7537 543.451V538.809M139.546 571.877V567.236M139.546 567.236V518.505L124.462 509.72M139.546 567.236L86.7537 538.809M120.982 507.693L120.401 612.579M120.982 507.693L124.462 509.72M120.401 612.579L124.462 614.691M124.462 614.691V509.72M80.9524 461.072L154.629 508.643V640.913L80.9524 607.845V461.072Z" stroke="#1560FF" stroke-width="0.754174"/>
<path d="M87.3339 722.712V716.331L144.767 736.055V841.059L139.546 839.794M87.3339 722.712V770.283M87.3339 722.712L120.401 733.367M139.546 839.794V791.748M139.546 839.794L124.462 836.137M87.3339 774.924V827.136L120.401 835.152M87.3339 774.924L139.546 791.748M87.3339 774.924V770.283M139.546 791.748V787.107M139.546 787.107V739.536L124.462 734.676M139.546 787.107L87.3339 770.283M120.401 835.152V733.367M120.401 835.152L124.462 836.137M120.401 733.367L124.462 734.676M124.462 734.676V836.137M80.9524 701.247L154.629 726.773V856.723L80.9524 841.059V701.247Z" stroke="#1560FF" stroke-width="0.754174"/>
<path d="M80.3722 1062.09V1075.43L154.049 1070.79V1060.35M80.3722 1062.09V934.461L154.049 944.323V1060.35M80.3722 1062.09L87.3338 1061.93M154.049 1060.35L145.347 1060.56M145.347 1060.56V953.025L87.3338 946.644V951.865M145.347 1060.56L138.76 1060.71M87.3338 1061.93V1004.28M87.3338 1061.93L119.241 1061.17M87.3338 1004.28L139.546 1008.14M87.3338 1004.28V999.436M87.3338 999.436L140.126 1003.5M87.3338 999.436V951.865M87.3338 951.865L119.241 954.67M138.76 1060.71L140.126 956.506L123.882 955.078M138.76 1060.71L123.882 1061.06M123.882 955.078V1061.06M123.882 955.078L119.241 954.67M123.882 1061.06L119.241 1061.17M119.241 1061.17V954.67" stroke="#1560FF" stroke-width="0.754174"/>
<path d="M1.47412 932.14L24.0993 934.461V1067.31M1.47412 1078.33H24.0993V1067.31M24.0993 1067.31H12.7867M1.47412 1067.31H6.69533M12.7867 1067.31V944.903H1.47412M12.7867 1067.31H6.69533M1.47412 948.384H6.69533V1003.5M6.69533 1067.31V1008.14M6.69533 1003.5H1.47412M6.69533 1003.5V1008.14M6.69533 1008.14H1.47412" stroke="#1560FF" stroke-width="0.754174"/>
<path d="M2.05431 831.197L23.5193 835.838V822.495M2.05431 678.622L23.5193 686.164V822.495M2.05431 693.705L12.4967 697.186V820.174M1.47418 698.346L6.69538 700.667V758.68M6.69538 818.434V763.321M23.5193 822.495L0.894043 817.854M6.69538 763.321L1.47418 761.922M6.69538 763.321V758.68M6.69538 758.68L1.47418 757.281" stroke="#1560FF" stroke-width="0.754174"/>
<path d="M0.893977 575.938L22.9391 585.8V572.457M1.47411 418.722L22.9391 430.325V572.457M1.47411 434.966L11.9165 441.347V567.37M1.47411 441.347L6.11518 444.828V502.841M6.11518 564.693V507.482M22.9391 572.457L0.313843 562.015M6.11518 507.482L0.893977 506.083M6.11518 507.482V502.841M6.11518 502.841L0.893977 501.442" stroke="#1560FF" stroke-width="0.754174"/>
<path d="M402.927 555.053L375.08 531.268V542.29M402.927 555.053V624.089M402.927 555.053L396.545 557.374M375.08 542.29L390.55 553.161M375.08 542.29V577.098M396.545 557.374V620.028M396.545 557.374L390.55 553.161M375.08 603.204V611.906L402.927 631.631V624.089M375.08 603.204L390.55 614.807M375.08 603.204V582.32M402.927 624.089L390.55 614.807M390.55 614.807V594.502M390.55 553.161V588.701M375.08 582.32L390.55 594.502M375.08 582.32V577.098M390.55 594.502V588.701M375.08 577.098L390.55 588.701" stroke="#1560FF" stroke-width="0.754174"/>
<path d="M441.216 534.749V477.315L420.331 455.27V463.972M441.216 534.749V539.97L420.331 523.146V517.345M441.216 534.749L434.254 528.947M420.331 517.345V463.972M420.331 517.345L428.685 524.306M434.254 528.947V477.315L428.685 471.978M434.254 528.947L428.685 524.306M420.331 463.972L428.685 471.978M428.685 524.306V471.978" stroke="#1560FF" stroke-width="0.754174"/>
<path d="M526.495 1139.83L553.762 1087.62M553.762 1087.62H649.484L646.183 1096.9M553.762 1087.62L563.044 1103.28M630.919 1139.83L643.914 1103.28M593.211 1139.83L610.035 1103.28M586.829 1139.83L604.233 1103.28M543.899 1139.83L563.044 1103.28M563.044 1103.28H643.914M643.914 1103.28L646.183 1096.9M536.938 1139.83L560.143 1096.9H646.183" stroke="#1560FF" stroke-width="0.754174"/>
<path d="M436.575 1051.74L483.565 1001.18H554.922L550.07 1008.14M436.575 1051.74L430.193 1058.61H514.893L519.679 1051.74M436.575 1051.74H445.567M519.679 1051.74L547.24 1012.2M519.679 1051.74H488.787M547.24 1012.2L550.07 1008.14M547.24 1012.2H519.679M488.787 1012.2L454.559 1051.74M488.787 1012.2H514.893M488.787 1012.2L485.306 1008.14M454.559 1051.74H445.567M454.559 1051.74H483.565M445.567 1051.74L485.306 1008.14M485.306 1008.14H550.07M483.565 1051.74L514.893 1012.2M483.565 1051.74H488.787M514.893 1012.2H519.679M488.787 1051.74L519.679 1012.2" stroke="#1560FF" stroke-width="0.754174"/>
<path d="M577.828 1051.07L605.394 1002.34H680.811L678.86 1007.56M577.828 1051.07L572.906 1059.77H659.346L662.598 1051.07M577.828 1051.07H583.779M662.598 1051.07H630.919H629.759M662.598 1051.07L677.125 1012.2M589.73 1051.07L611.195 1012.2H643.102M589.73 1051.07H583.779M589.73 1051.07H624.538M677.125 1012.2L678.86 1007.56M677.125 1012.2H643.102M583.779 1051.07L609.454 1007.56H678.86M624.538 1051.07L643.102 1012.2M624.538 1051.07H629.759M629.759 1051.07L647.743 1012.78" stroke="#1560FF" stroke-width="0.754174"/>
<path d="M619.906 974.49H626.278M686.005 974.49L683.711 980.871H616.416L636.72 943.743H697.054L694.97 949.544M686.005 974.49L693.719 953.025M686.005 974.49H659.926M694.97 949.544H640.781L626.278 974.49M694.97 949.544L693.719 953.025M626.278 974.49H631.499M631.499 974.49L643.682 953.025H663.407M631.499 974.49H654.705M693.719 953.025H668.048M654.705 974.49L663.407 953.025M654.705 974.49H659.926M663.407 953.025H668.048M659.926 974.49L668.048 953.025" stroke="#1560FF" stroke-width="0.754174"/>
<path d="M506.77 974.018L534.037 944.903H595.531L591.774 949.544M506.77 974.018L499.809 981.452H565.944L571.962 974.018M506.77 974.018H514.312M571.962 974.018L591.774 949.544M571.962 974.018H550.28M514.312 974.018L539.258 949.544H546.22M514.312 974.018H523.014M591.774 949.544H569.425M523.014 974.018L546.22 949.544M523.014 974.018H544.479M546.22 949.544H564.204M544.479 974.018L564.204 949.544M544.479 974.018H550.28M564.204 949.544H569.425M550.28 974.018L569.425 949.544" stroke="#1560FF" stroke-width="0.754174"/>
<path d="M434.834 944.323L489.367 945.483L485.03 949.544M434.834 944.323L393.645 979.711H452.818L459.013 973.91M434.834 944.323L438.315 949.544M401.766 973.91H408.728M459.013 973.91L485.03 949.544M459.013 973.91H438.315M408.728 973.91L438.315 949.544M408.728 973.91H416.85M438.315 949.544H445.276M485.03 949.544H462.68M431.933 973.91L456.879 949.544M431.933 973.91H438.315M431.933 973.91H416.85M438.315 973.91L462.68 949.544M462.68 949.544H445.276M416.85 973.91L445.276 949.544" stroke="#1560FF" stroke-width="0.754174"/>
<path d="M680.811 892.691V913.907L684.292 913.921V888.05L680.811 892.691Z" fill="#DEE9F4"/>
<path d="M1080.52 888.63V914.156H1084.58V888.63H1080.52Z" fill="#DEE9F4"/>
<path d="M1024.83 888.63V914.156H1028.89V888.63H1024.83Z" fill="#DEE9F4"/>
<path d="M1139.12 914.156V888.63H1134.48V914.156H1139.12Z" fill="#DEE9F4"/>
<path d="M738.331 933.881L684.872 1139.25H696.474L746.672 929.82L750.427 914.156H743.465L738.331 933.881Z" fill="#DEE9F4"/>
<path d="M945.932 925.759V936.781L1068.34 1139.83H1079.94L951.743 935.041L945.932 925.759Z" fill="#DEE9F4"/>
<path d="M622.797 892.691H618.736V913.661L622.797 913.677V892.691Z" fill="#DEE9F4"/>
<path d="M560.723 892.691H556.082V913.413L560.723 913.431V892.691Z" fill="#DEE9F4"/>
<path d="M511.992 892.691H507.351V913.219L511.992 913.233V892.691Z" fill="#DEE9F4"/>
<path d="M463.261 892.691H459.2V913.028L463.261 913.044V892.691Z" fill="#DEE9F4"/>
<path d="M684.292 888.05H451.078V892.691H459.2M684.292 888.05L680.811 892.691M684.292 888.05V913.921M684.292 888.05L695.314 906.614V913.965M459.2 892.691H463.261M459.2 892.691V913.028M463.261 892.691H507.351M463.261 892.691V913.044M507.351 892.691H511.992M507.351 892.691V913.219M511.992 892.691H556.082M511.992 892.691V913.233M556.082 892.691H560.723M556.082 892.691V913.413M560.723 892.691H618.736M560.723 892.691V913.431M618.736 892.691H622.797M618.736 892.691V913.661M622.797 892.691H680.811M622.797 892.691V913.677M680.811 892.691V913.907M680.811 913.907L684.292 913.921M680.811 913.907L622.797 913.677M684.292 913.921L695.314 913.965M1080.52 888.63V914.156M1080.52 888.63H1084.58M1080.52 888.63H1028.89M1080.52 914.156H1084.58M1080.52 914.156H1028.89M1084.58 914.156V888.63M1084.58 914.156H1134.48M1084.58 888.63H1134.48M1024.83 888.63V914.156M1024.83 888.63H1028.89M1024.83 888.63H966.817M1024.83 914.156H1028.89M1024.83 914.156H966.817M1028.89 914.156V888.63M966.817 885.149H1139.12V888.63M966.817 885.149V888.63M966.817 885.149L958.115 905.454V914.156M966.817 888.63V914.156M1134.48 888.63H1139.12M1134.48 888.63V914.156M1139.12 888.63V914.156M1139.12 914.156H1134.48M1139.12 914.156H1294.01M750.427 914.156L767.251 994.795H918.085M750.427 914.156L746.672 929.82M750.427 914.156H743.465M746.672 929.82L763.19 999.436M746.672 929.82L696.474 1139.25H684.872L738.331 933.881M763.19 999.436H792.777M763.19 999.436V1018M792.777 999.436H796.837M792.777 999.436V1018M796.837 999.436H839.767M796.837 999.436V1018M839.767 999.436H844.408M839.767 999.436V1018M844.408 999.436H880.667M844.408 999.436V1018M880.667 999.436H885.018M880.667 999.436V1018M885.018 999.436H918.085M885.018 999.436V1018M918.085 999.436V994.795M918.085 999.436V1018M918.085 994.795V977.971M738.331 933.881L743.465 914.156M738.331 933.881L427.292 929.24L451.078 912.996L459.2 913.028M743.465 914.156L695.314 913.965M459.2 913.028L463.261 913.044M463.261 913.044L507.351 913.219M507.351 913.219L511.992 913.233M511.992 913.233L556.082 913.413M556.082 913.413L560.723 913.431M560.723 913.431L618.736 913.661M618.736 913.661L622.797 913.677M763.19 1037.72V1018M763.19 1037.72H918.085M763.19 1037.72V1139.83M763.19 1018H792.777M792.777 1018H796.837M796.837 1018H839.767M839.767 1018H844.408M844.408 1018H880.667M880.667 1018H885.018M885.018 1018H918.085M918.085 1018V1037.72M918.085 1037.72V1139.83M918.085 977.971L915.185 971.589L945.932 914.156M918.085 977.971L945.932 925.759M945.932 914.156V925.759M945.932 914.156H958.115M945.932 925.759H1294.01M945.932 925.759V936.781M945.932 925.759L951.743 935.041M945.932 936.781V1139.83M945.932 936.781L1068.34 1139.83H1079.94L951.743 935.041M951.743 935.041H1294.01M786.975 1084.14V1067.31H804.959M786.975 1084.14H826.424M786.975 1084.14V1088.78M826.424 1084.14V1067.31H810.181M826.424 1084.14V1088.78M786.975 1088.78V1106.76H804.959M786.975 1088.78H826.424M826.424 1088.78V1106.76H810.181M810.181 1067.31V1106.76M810.181 1067.31H804.959M810.181 1106.76H804.959M804.959 1106.76V1067.31M883.277 1067.31H862.393V1084.14M883.277 1067.31V1106.76M883.277 1067.31H888.499M883.277 1106.76H862.393V1088.78M883.277 1106.76H888.499M888.499 1106.76H906.483V1088.78M888.499 1106.76V1067.31M888.499 1067.31H906.483V1084.14M862.393 1084.14H906.483M862.393 1084.14V1088.78M906.483 1084.14V1088.78M862.393 1088.78H906.483M929.108 1139.83V1102.7L937.81 1087.04V1139.83M933.749 1139.83V1095.16M933.749 1042.13L927.948 1053.39V999.436L937.81 982.032V1034.24L933.749 1042.13ZM933.749 1042.13V989.198M958.115 914.156H966.817M961.015 1139.83V1123L969.137 1139.83M1031.21 1139.83V1125.9L1038.75 1139.83M1010.91 1139.83V1098.06L1004.53 1085.64M989.442 1127.65V1056.29L996.895 1070.79M989.442 1127.65L994.083 1139.83M989.442 1127.65L996.404 1132.29M1001.62 1139.83L996.404 1132.29M996.404 1132.29L996.895 1070.79M996.895 1070.79L1004.53 1085.64M1004.53 1085.64V1139.83M961.015 1062.67V1003.5L966.817 1016.87M961.015 1062.67L974.358 1098.06V1081.81M961.015 1062.67H966.817M974.358 1081.81V1034.24L966.817 1016.87M974.358 1081.81L966.817 1062.67M966.817 1062.67V1016.87M1076.65 971.589L1082.26 977.971H1017.87L994.663 944.323H1046.3M1076.65 971.589L1052.68 944.323H1046.3M1076.65 971.589H1070.18M1063.7 971.589L1043.97 948.384H1025.41M1063.7 971.589H1070.18M1063.7 971.589H1046.3M1070.18 971.589L1046.3 944.323M1040.78 971.589H1017.87L1001.62 948.384H1020.77M1040.78 971.589L1020.77 948.384M1040.78 971.589H1046.3M1020.77 948.384H1025.41M1046.3 971.589L1025.41 948.384M1096.63 948.384L1092.71 944.323H1147.24L1185.53 977.971H1125.19L1120.15 972.75M1096.63 948.384L1120.15 972.75M1096.63 948.384H1118.81M1120.15 972.75H1144.92M1144.92 972.75L1118.81 948.384M1144.92 972.75H1150.72M1118.81 948.384H1124.03M1150.72 972.75L1124.03 948.384M1150.72 972.75H1168.7M1124.03 948.384H1139.7M1139.7 948.384H1144.92L1175.66 972.75H1168.7M1139.7 948.384L1168.7 972.75M1201.17 948.964L1195.97 944.323H1255.72L1294.01 977.971L1234.84 979.131L1229.13 973.91M1201.17 948.964L1229.13 973.91M1201.17 948.964L1223.82 948.432M1229.13 973.91H1252.82M1272.55 973.91H1281.25L1250.5 947.804L1242.38 947.995M1272.55 973.91L1242.38 947.995M1272.55 973.91H1259.78M1242.38 947.995L1230.2 948.281M1259.78 973.91L1230.2 948.281M1259.78 973.91H1252.82M1230.2 948.281L1223.82 948.432M1252.82 973.91L1223.82 948.432M1103.73 999.436H1031.21L1035.85 1006.18M1103.73 999.436L1140.49 1047.59M1103.73 999.436L1099.67 1006.18M1035.85 1006.18H1099.67M1035.85 1006.18L1038.4 1009.88M1099.67 1006.18L1132.15 1047.59M1038.4 1009.88L1064.35 1047.59M1038.4 1009.88H1067.51M1126.35 1047.59L1096.63 1009.88H1072.4M1064.35 1047.59L1068.34 1053.39H1144.92L1140.49 1047.59M1064.35 1047.59H1095.03M1140.49 1047.59H1100.83M1067.51 1009.88L1095.03 1047.59M1067.51 1009.88H1072.4M1095.03 1047.59H1100.83M1072.4 1009.88L1100.83 1047.59M1209.31 999.436H1144.92L1150.63 1006.18M1209.31 999.436L1257.46 1047.59M1209.31 999.436L1204.67 1006.18M1150.63 1006.18H1204.67M1150.63 1006.18L1153.76 1009.88M1204.67 1006.18L1248.18 1047.59M1153.76 1009.88H1176.83M1153.76 1009.88L1185.7 1047.59M1240.64 1047.59L1202.93 1009.88H1182.05M1176.83 1009.88L1214.53 1047.59M1176.83 1009.88H1182.05M1182.05 1009.88L1219.76 1047.59M1185.7 1047.59L1193.07 1056.29H1266.17L1257.46 1047.59M1185.7 1047.59H1257.46M1327.08 999.436L1397.86 1053.39L1313.74 1056.29L1306.19 1048.9M1327.08 999.436H1255.72L1262.61 1006.18M1327.08 999.436L1320.7 1006.18M1262.61 1006.18H1320.7M1262.61 1006.18L1266.38 1009.88M1320.7 1006.18L1372.33 1047.59L1364.21 1047.75M1306.19 1048.9L1266.38 1009.88M1306.19 1048.9L1338.1 1048.27M1364.21 1047.75L1317.8 1009.88H1299.81M1364.21 1047.75L1345.06 1048.13M1266.38 1009.88H1292.09M1292.09 1009.88L1338.1 1048.27M1292.09 1009.88H1299.81M1338.1 1048.27L1345.06 1048.13M1299.81 1009.88L1345.06 1048.13M1173.92 1087.62H1088.06L1094.25 1096.32M1173.92 1087.62L1219.76 1139.83M1173.92 1087.62L1172.18 1096.32M1098.38 1102.12L1125.19 1139.83M1098.38 1102.12L1094.25 1096.32M1098.38 1102.12H1137.96M1201.77 1139.83L1171.02 1102.12H1143.76M1094.25 1096.32H1172.18M1172.18 1096.32L1209.31 1139.83M1137.96 1102.12L1165.8 1139.83M1137.96 1102.12H1143.76M1143.76 1102.12L1172.18 1139.83M1299.81 1087.62H1223.82L1231.94 1096.32M1299.81 1087.62L1357.25 1139.83M1299.81 1087.62L1298.65 1095.16M1231.94 1096.32L1298.65 1095.16M1231.94 1096.32L1237.35 1102.12M1298.65 1095.16L1345.06 1139.83M1237.35 1102.12L1272.55 1139.83M1237.35 1102.12L1268.49 1101.51M1334.62 1139.83L1296.33 1100.96L1268.49 1101.51M1260.94 1102.12L1298.65 1139.83M1268.49 1101.51L1307.36 1139.83M1428.02 1087.62H1350.29L1360.53 1096.32M1428.02 1087.62L1496.48 1139.83M1428.02 1087.62L1424.54 1095.16M1360.53 1096.32L1424.54 1095.16M1360.53 1096.32L1368.27 1102.89M1424.54 1095.16L1481.98 1139.83M1368.27 1102.89L1411.78 1139.83M1368.27 1102.89L1394.38 1102.25M1470.37 1139.83L1424.54 1101.51L1401.92 1102.06M1394.38 1102.25L1438.47 1139.83M1394.38 1102.25L1401.92 1102.06M1401.92 1102.06L1446.59 1139.83M782.914 1062.67V1111.4H831.065V1062.67H782.914ZM857.171 1062.67V1111.4H911.704V1062.67H857.171Z" stroke="#1560FF" stroke-width="0.754174"/>
<path d="M1566.68 163.907L1266.75 417.561V433.544L1672.84 95.0071V74.1223L1566.68 163.907Z" fill="#DEE9F4"/>
<path d="M1349.13 493.559L1411.84 505.706L1672.26 355.487V366.512L1411.84 517.051L1332.3 560.855L1294.59 557.518M1349.13 493.559L1266.75 549.832M1349.13 493.559V479.636M1266.75 537.649V549.832M1266.75 537.649V487.758M1266.75 537.649L1274.87 531.93M1349.13 479.636V426.263M1349.13 479.636L1355.8 481.105M1349.13 479.636L1342.78 484.107M1411.84 493.559L1407.14 492.409M1266.75 549.832V555.053L1294.59 557.518M1566.68 163.907L1266.75 417.561V433.544M1566.68 163.907L1672.84 74.1223V95.0071L1266.75 433.544M1566.68 163.907V154.761M1566.68 59.619L1633.39 0.445312M1566.68 59.619V154.761M1566.68 59.619L1598.52 85.1448M1349.13 419.302V426.263M1349.13 419.302L1266.75 481.105M1349.13 419.302L1362.47 421.478M1349.13 426.263L1355.8 427.365M1349.13 426.263L1342.78 431.003M1407.14 492.409V435.844M1407.14 492.409L1401.34 491.132M1407.14 435.844L1411.78 436.611V429.522L1407.26 428.785M1407.14 435.844L1401.34 434.886M1401.34 491.132V434.886M1401.34 491.132L1393.22 489.344M1401.34 434.886L1393.22 433.544M1393.22 489.344V433.544M1393.22 489.344L1386.01 487.758M1393.22 433.544L1386.01 432.355M1386.01 487.758V432.355M1386.01 487.758L1377.55 485.895M1386.01 432.355L1377.55 430.958M1377.55 485.895V430.958M1377.55 485.895L1369.43 484.107M1377.55 430.958L1369.43 429.617M1369.43 484.107V429.617M1369.43 484.107L1362.47 482.574M1369.43 429.617L1362.47 428.467M1362.47 482.574V428.467M1362.47 482.574L1355.8 481.105M1362.47 428.467L1355.8 427.365M1355.8 481.105V427.365M1266.75 487.758V481.105M1266.75 487.758L1274.87 481.695M1266.75 481.105V464.552M1362.47 421.478V417.561L1412.36 381.593M1362.47 421.478L1377.55 423.939M1377.55 423.939V411.76L1382.77 408.279M1377.55 423.939L1382.77 424.79M1412.36 388.555L1407.26 391.953M1382.77 424.79V408.279M1382.77 424.79L1402.17 427.954M1382.77 408.279L1402.17 395.35M1402.17 427.954V395.35M1402.17 427.954L1407.26 428.785M1402.17 395.35L1407.26 391.953M1407.26 428.785V391.953M1266.75 464.552L1411.78 353.747M1266.75 464.552V433.544M1411.78 320.099H1404.24M1446.59 439.026V343.304L1515.62 291.672V307.336M1446.59 439.026V451.789L1515.62 408.279V307.336M1446.59 439.026L1456.34 432.355M1462.25 428.306L1456.34 432.355M1462.25 428.306V395.35M1462.25 428.306L1483.04 414.081M1456.34 432.355V352.006L1515.62 307.336M1462.25 395.35L1510.4 361.289M1462.25 395.35V388.555M1510.4 361.289V395.35L1488.36 410.439M1510.4 361.289V353.747M1462.25 388.555V355.487L1483.04 340.212M1462.25 388.555L1510.4 353.747M1510.4 353.747V320.099L1488.36 336.301M1488.36 410.439V336.301M1488.36 410.439L1483.04 414.081M1488.36 336.301L1483.04 340.212M1483.04 414.081V340.212M1566.68 255.124L1672.84 177.386M1566.68 255.124V353.747M1566.68 255.124L1581.18 259.765M1672.84 307.336L1566.68 370.571V353.747M1566.68 353.747L1581.18 344.87M1672.84 288.772L1662.4 295.163M1581.18 344.87V259.765M1581.18 344.87L1588.79 340.212M1581.18 259.765L1672.84 194.21M1588.79 340.212V263.826L1620.63 240.752M1588.79 340.212L1620.63 320.727M1672.84 202.912L1662.4 210.48M1620.63 240.752V320.727M1620.63 240.752L1626.43 236.548M1620.63 320.727L1626.43 317.176M1626.43 236.548V317.176M1626.43 236.548L1657.76 213.844M1626.43 317.176L1657.76 298.003M1657.76 213.844V298.003M1657.76 213.844L1662.4 210.48M1657.76 298.003L1662.4 295.163M1662.4 210.48V295.163M1566.68 154.761L1591.04 133.458M1672.84 61.9395L1598.52 126.914M1591.04 133.458V79.9236L1672.84 8.56718M1591.04 133.458L1598.52 126.914M1598.52 126.914V85.1448M1598.52 85.1448L1672.84 20.1699M1342.78 484.107V431.003M1342.78 484.107L1333.46 490.667M1342.78 431.003L1333.46 437.956M1333.46 490.667V437.956M1333.46 490.667L1326.5 495.569M1333.46 437.956L1326.5 443.153M1326.5 495.569V443.153M1326.5 495.569L1318.96 500.88M1326.5 443.153L1318.96 448.783M1318.96 500.88V448.783M1318.96 500.88L1312.05 505.742M1318.96 448.783L1312.05 453.936M1312.05 505.742V453.936M1312.05 505.742L1304.64 510.963M1312.05 453.936L1304.64 459.47M1304.64 510.963V459.47M1304.64 510.963L1298.05 515.604M1304.64 459.47L1297.83 464.552M1298.05 515.604L1297.83 464.552M1298.05 515.604L1290.53 520.899M1297.83 464.552L1290.53 470.002M1290.53 520.899V470.002M1290.53 520.899L1282.99 526.21M1290.53 470.002L1282.99 475.632M1282.99 526.21V475.632M1282.99 526.21L1274.87 531.93M1282.99 475.632L1274.87 481.695M1274.87 531.93V481.695M1294.59 557.518V642.073M1349.71 613.067V620.028M1349.71 613.067L1345.55 615.387M1349.71 613.067L1357.25 613.56M1285.31 716.911L1349.71 689.644M1285.31 716.911V705.888M1285.31 716.911L1294.59 718.83M1349.71 689.644L1411.78 692.545L1672.26 581.529V592.182L1411.78 702.987L1347.02 729.673L1294.59 718.83M1349.71 689.644V678.042M1349.71 678.042L1347.02 679.202M1349.71 678.042L1354.35 678.215M1285.31 705.888V655.996M1285.31 705.888L1292.02 702.987M1411.78 680.362L1406.27 680.156M1285.31 655.996V649.035L1345.55 615.387M1285.31 655.996L1292.02 652.25M1349.71 620.028L1347.02 621.527M1349.71 620.028L1354.35 620.332M1292.02 702.987V652.25M1292.02 702.987L1298.07 700.369M1292.02 652.25L1298.07 648.868M1298.07 700.369V648.868M1298.07 700.369L1304.45 697.609M1298.07 648.868L1304.45 645.303M1304.45 697.609V645.303M1304.45 697.609L1311.42 694.599M1304.45 645.303L1311.42 641.415M1311.42 694.599V641.415M1311.42 694.599L1318.38 691.588M1311.42 641.415L1318.38 637.526M1318.38 691.588V637.526M1318.38 691.588L1325.56 688.484M1318.38 637.526L1325.56 633.516M1325.56 688.484V633.516M1325.56 688.484L1332.3 685.568M1325.56 633.516L1332.3 629.749M1332.3 685.568V629.749M1332.3 685.568L1339.26 682.557M1332.3 629.749L1339.26 625.861M1339.26 682.557V625.861M1339.26 682.557L1347.02 679.202M1339.26 625.861L1347.02 621.527M1347.02 679.202V621.527M1354.35 678.215V620.332M1354.35 678.215L1361.31 678.475M1354.35 620.332L1361.31 620.787M1361.31 678.475V620.787M1361.31 678.475L1368.85 678.757M1361.31 620.787L1377.55 621.85M1368.85 678.757V621.527M1368.85 678.757L1377.55 679.083M1377.55 679.083V621.85M1377.55 679.083L1385.67 679.386M1377.55 621.85L1385.67 622.381M1385.67 679.386V622.381M1385.67 679.386L1393.22 679.668M1385.67 622.381L1393.22 622.875M1393.22 679.668V622.875M1393.22 679.668L1400.76 679.95M1393.22 622.875L1400.76 623.368M1400.76 679.95V623.368M1400.76 679.95L1406.27 680.156M1400.76 623.368L1406.27 623.729M1406.27 680.156V623.729M1406.27 623.729L1411.78 624.089V617.128L1406.56 616.786M1294.59 718.83V820.174M1294.59 820.174L1285.31 823.655V831.197M1294.59 820.174L1339.26 805.798M1285.31 893.271L1347.02 877.027M1285.31 893.271V882.829M1285.31 893.271L1294.59 894.755M1347.02 877.027L1412.36 880.508L1672.26 820.09V830.398L1412.36 888.63L1347.02 903.133L1294.59 894.755M1347.02 877.027V864.265M1347.02 864.265V811.643M1347.02 864.265L1353.19 864.867M1347.02 864.265L1339.94 866.396M1412.36 870.646L1405.4 869.966M1285.31 882.829V831.197M1285.31 882.829L1291.69 880.909M1345.06 803.931V811.472M1345.06 803.931L1339.26 805.798M1345.06 803.931V768.542M1345.06 803.931L1356.67 805.04M1285.31 831.197L1291.69 829.09M1345.06 811.472L1347.02 811.643M1345.06 811.472L1339.94 813.165M1345.55 615.387V588.701L1357.25 581.529M1411.78 548.092L1406.56 551.293M1339.26 617.128V586.961L1411.78 541.71M1357.25 581.529V613.56M1357.25 581.529L1377.55 569.079M1357.25 613.56L1377.55 614.888M1377.55 614.888V569.079M1377.55 614.888L1381.61 615.154M1377.55 569.079L1381.61 566.589M1381.61 615.154V566.589M1381.61 615.154L1401.34 616.444M1381.61 566.589L1401.34 554.495M1401.34 616.444V554.495M1401.34 616.444L1406.56 616.786M1401.34 554.495L1406.56 551.293M1406.56 616.786V551.293M1339.26 805.798V765.062M1339.26 765.062L1411.78 737.215M1339.26 765.062L1345.06 768.542M1345.06 768.542L1356.67 764.204M1411.78 743.597L1406.85 745.44M1356.67 764.204V805.04M1356.67 764.204L1376.09 756.94M1356.67 805.04L1376.09 806.899M1376.09 756.94V806.899M1376.09 756.94L1381.03 755.093M1376.09 806.899L1381.03 807.371M1381.03 755.093V807.371M1381.03 755.093L1401.92 747.284M1381.03 807.371L1401.92 809.369M1401.92 747.284V809.369M1401.92 747.284L1406.85 745.44M1401.92 809.369L1411.78 810.312V817.274L1405.4 816.719M1406.85 745.44V809.369M1347.02 811.643L1353.19 812.179M1353.19 864.867V812.179M1353.19 864.867L1361.31 865.66M1353.19 812.179L1361.31 812.885M1361.31 865.66V812.885M1361.31 865.66L1368.85 866.396M1361.31 812.885L1368.85 813.541M1368.85 866.396V813.541M1368.85 866.396L1376.09 867.104M1368.85 813.541L1376.09 814.171M1376.09 867.104V814.171M1376.09 867.104L1383.93 867.87M1376.09 814.171L1383.93 814.852M1383.93 867.87V814.852M1383.93 867.87L1390.89 868.55M1383.93 814.852L1390.89 815.458M1390.89 868.55V815.458M1390.89 868.55L1398.44 869.286M1390.89 815.458L1398.44 816.113M1398.44 869.286V816.113M1398.44 869.286L1405.4 869.966M1398.44 816.113L1405.4 816.719M1405.4 869.966V816.719M1339.94 866.396V813.165M1339.94 866.396L1333.46 868.344M1339.94 813.165L1333.46 815.302M1333.46 868.344V815.302M1333.46 868.344L1325.81 870.646M1333.46 815.302L1325.81 817.829M1325.81 870.646V817.829M1325.81 870.646L1318.96 872.707M1325.81 817.829L1318.96 820.09M1318.96 872.707V820.09M1318.96 872.707L1311.42 874.975M1318.96 820.09L1311.42 822.579M1311.42 874.975V822.579M1311.42 874.975L1304.6 877.027M1311.42 822.579L1304.6 824.831M1304.6 877.027V824.831M1304.6 877.027L1298.07 878.989M1304.6 824.831L1298.07 826.984M1298.07 878.989V826.984M1298.07 878.989L1291.69 880.909M1298.07 826.984L1291.69 829.09M1291.69 880.909V829.09M1294.59 894.755V974.49L1302.13 969.269L1338.68 996.472M1531.29 1139.83L1357.47 1010.46M1542.31 1139.83L1468.63 1085.96M1365.37 1010.46L1468.63 1085.96M1357.47 1010.46H1411.2M1357.47 1010.46L1347.96 1003.38M1347.96 1003.38H1356.67M1347.96 1003.38L1347.02 1002.68M1411.2 1003.38H1406.56M1356.67 1003.38V934.461M1356.67 1003.38H1376.39M1338.68 996.472V932.14M1338.68 996.472L1347.02 1002.68M1338.68 932.14L1411.2 916.477M1338.68 932.14L1347.02 936.781M1347.02 936.781V1002.68M1347.02 936.781L1376.39 930.675M1411.2 923.438L1406.56 924.403M1376.39 930.675V1003.38M1376.39 930.675L1380.45 929.831M1376.39 1003.38H1380.45M1380.45 1003.38V929.831M1380.45 1003.38H1401.92M1380.45 929.831L1401.92 925.368M1401.92 925.368V1003.38M1401.92 925.368L1406.56 924.403M1401.92 1003.38H1406.56M1406.56 1003.38V924.403M1672.26 416.401L1566.68 473.254M1566.68 473.254V569.079M1566.68 473.254L1586.4 482.536M1672.26 535.329L1566.68 584.06V569.079M1566.68 569.079L1581.18 562.212M1672.26 519.085L1662.4 523.755M1581.18 562.212V480.216L1672.26 432.355M1581.18 562.212L1586.4 559.74M1586.4 482.536V559.74M1586.4 482.536L1620.74 465.132M1586.4 559.74L1620.74 543.478M1672.26 439.026L1662.4 444.024M1620.74 465.132V543.478M1620.74 465.132L1625.27 462.839M1620.74 543.478L1625.27 541.335M1625.27 462.839V541.335M1625.27 462.839L1658.52 445.988M1625.27 541.335L1658.52 525.59M1658.52 445.988V525.59M1658.52 445.988L1662.4 444.024M1658.52 525.59L1662.4 523.755M1662.4 444.024V523.755M1446.59 629.749V643.234L1515.62 613.067V513.862M1446.59 629.749V539.39L1515.62 498.78V513.862M1446.59 629.749L1456.34 625.251M1510.4 523.755L1515.62 513.862M1510.4 523.755L1488.36 536.363M1510.4 523.755V557.374M1456.34 625.251V548.092L1515.62 513.862M1456.34 625.251L1462.25 622.522M1462.25 622.522L1483.06 612.918M1462.25 622.522V590.441M1483.06 539.39L1462.25 551.293V584.06M1483.06 539.39V612.918M1483.06 539.39L1488.36 536.363M1483.06 612.918L1488.36 610.476M1488.36 536.363V610.476M1488.36 610.476L1510.4 600.304V564.335M1462.25 584.06L1510.4 557.374M1462.25 584.06V590.441M1510.4 557.374V564.335M1462.25 590.441L1510.4 564.335M1446.59 816.113V723.292L1515.62 698.346V807.371L1446.59 827.136V816.113ZM1446.59 816.113L1456.5 813.165M1456.5 813.165L1456.34 729.673L1510.98 712.269V721.552M1456.5 813.165L1462.25 811.457M1462.25 811.457L1483.72 805.075M1462.25 811.457V780.145M1510.98 721.552L1488.36 728.513M1510.98 721.552V756.94M1483.72 729.673V805.075M1483.72 805.075L1488.97 803.512M1488.36 728.513L1462.25 737.215V774.336M1488.36 728.513L1488.97 803.512M1488.97 803.512L1510.98 796.969V762.161M1462.25 774.336L1510.98 756.94M1462.25 774.336V780.145M1510.98 756.94V762.161M1462.25 780.145L1510.98 762.161M1566.68 679.202V777.244M1566.68 679.202L1672.26 639.753M1566.68 679.202L1586.98 690.805M1672.26 762.161L1566.68 790.588V777.244M1566.68 777.244L1580.6 773.113M1672.26 745.917L1662.98 748.671M1580.6 773.113V686.744L1672.26 653.096M1580.6 773.113L1586.98 771.22M1586.98 690.805V771.22M1586.98 690.805L1621.79 678.491M1586.98 771.22L1621.79 760.892M1672.26 660.638L1662.98 663.921M1621.79 678.491V760.892M1621.79 678.491L1626.34 676.881M1621.79 760.892L1626.34 759.542M1626.34 676.881V759.542M1626.34 676.881L1658.34 665.563M1626.34 759.542L1658.34 750.048M1658.34 665.563V750.048M1658.34 665.563L1662.98 663.921M1658.34 750.048L1662.98 748.671M1662.98 663.921V748.671M1446.59 1000.02V906.614L1515.62 893.271V901.393M1446.59 1000.02V1013.36L1515.62 1007.56V992.474M1446.59 1000.02L1456.5 998.844M1510.4 992.474H1515.62M1510.4 992.474L1490.1 994.874M1510.4 992.474V958.191M1462.25 998.165L1456.5 998.844M1462.25 998.165L1484.3 995.559M1462.25 998.165L1462.02 965.788M1456.5 998.844V913.576L1515.62 901.393M1515.62 901.393V992.474M1484.3 995.559V913.907M1484.3 995.559L1490.1 994.874M1484.3 913.907L1461.67 918.217L1461.96 958.191M1484.3 913.907L1490.1 912.802M1490.1 994.874V912.802M1490.1 912.802L1510.4 908.935V950.704M1461.96 958.191L1510.4 950.704M1461.96 958.191L1462.02 965.788M1510.4 950.704V958.191M1462.02 965.788L1510.4 958.191M1568.42 883.409L1673.42 864.867M1568.42 883.409V986.093M1568.42 883.409L1581.18 893.271M1673.42 992.474L1568.42 1002.68V986.093M1568.42 986.093L1581.18 984.894M1673.42 976.23L1663.56 977.157M1581.18 984.894V893.271M1581.18 984.894L1586.98 984.349M1581.18 893.271L1673.42 878.768M1586.98 984.349V898.492L1620.8 893.271M1586.98 984.349L1620.8 981.172M1673.42 885.149L1663.56 886.672M1620.8 893.271V981.172M1620.8 893.271L1625.85 892.492M1620.8 981.172L1625.85 980.698M1625.85 980.698V892.492M1625.85 980.698L1658.92 977.592M1625.85 892.492L1658.92 887.388M1658.92 887.388V977.592M1658.92 887.388L1663.56 886.672M1658.92 977.592L1663.56 977.157M1663.56 886.672V977.157M1468.63 1085.96L1673.42 1094" stroke="#1560FF" stroke-width="0.754174"/>
<path d="M739.114 1057.16L743.465 1067.31V1132.29L739.114 1124.74M739.114 1057.16L734.763 1047.01V1117.2L739.114 1124.74M739.114 1057.16V1124.74M755.648 1139.83V1106.18L760.869 1117.2V1139.83M719.68 1139.83V1131.13L724.321 1139.83M760.869 1069.63L754.488 1063.25V1007.56L760.869 1017.42V1069.63ZM748.106 1044.69V993.634L743.465 984.352V1030.76L748.106 1044.69Z" stroke="#1560FF" stroke-width="0.754174"/>
<rect width="1673" height="1050" transform="translate(1 90.5955)" fill="url(#paint0_linear_1371_13368)"/>
<defs>
<linearGradient id="paint0_linear_1371_13368" x1="878.546" y1="1050" x2="878.546" y2="770.077" gradientUnits="userSpaceOnUse">
<stop stop-color="#FAFAFA"/>
<stop offset="1" stop-color="#FAFAFA" stop-opacity="0"/>
</linearGradient>
</defs>
</svg>
