<svg width="1440" height="904" viewBox="0 0 1440 904" fill="none" xmlns="http://www.w3.org/2000/svg">
<path opacity="0.2" d="M1529.91 -109.087V1013.09H-115.986V-109.087H1529.91Z" stroke="#666666" stroke-opacity="0.5" stroke-width="0.743276"/>
<path d="M244.417 876.239H305.594L298.733 883.1M244.417 876.239L184.523 925.981M244.417 876.239L248.419 883.1M184.523 925.981L176.95 932.27H249.562L255.852 925.981M184.523 925.981H195.246M255.852 925.981H228.408M255.852 925.981L295.302 886.53M228.408 925.981L271.861 886.53M228.408 925.981H222.69M222.69 925.981L265.571 886.53M222.69 925.981H203.606M203.606 925.981L250.706 886.53H295.302M203.606 925.981H195.246M295.302 886.53L298.733 883.1M195.246 925.981L248.419 883.1M248.419 883.1H298.733" stroke="#666666" stroke-opacity="0.5" stroke-width="0.743276"/>
<path d="M1273.57 917.405V205.575L1532 -8.25922M1130.63 317.067L1266.13 205.575L1532 -17.4072" stroke="#666666" stroke-opacity="0.5" stroke-width="0.743276"/>
<path d="M279.293 686.418L251.849 674.411V682.415M279.293 686.418V754.456M279.293 686.418L271.289 689.848M279.293 754.456V762.46L251.849 754.456V747.023M279.293 754.456L271.289 752.288M251.849 747.023L266.143 750.894M251.849 747.023V721.294M271.289 752.288V689.848M271.289 752.288L266.143 750.894M271.289 689.848L266.143 687.881M251.849 682.415L266.143 687.881M251.849 682.415V716.149M266.143 687.881V722.438M266.143 750.894V728.155M266.143 728.155L251.849 721.294M266.143 728.155V722.438M251.849 721.294V716.149M266.143 722.438L251.849 716.149" stroke="#666666" stroke-opacity="0.5" stroke-width="0.743276"/>
<path d="M278.722 323.928V385.105L272.432 379.073M278.722 323.928L251.849 294.769V300.486M278.722 323.928H272.432M272.432 379.073L251.278 359.223L251.849 300.486M272.432 379.073V366.237M272.432 323.928L267.287 318.647M272.432 323.928V366.237M251.849 300.486L267.287 318.647M267.287 361.231V318.647M272.432 366.237L251.278 345.654" stroke="#666666" stroke-opacity="0.5" stroke-width="0.743276"/>
<path d="M295.302 700.14V693.279L317.029 702.427V763.032M295.302 700.14V759.03M295.302 700.14L304.45 703.867M310.74 761.889V706.429L304.45 703.867M317.029 763.032L304.45 760.809M317.029 763.032V767.035V771.609L295.302 767.035V759.03M295.302 759.03L304.45 760.809M304.45 760.809V703.867" stroke="#666666" stroke-opacity="0.5" stroke-width="0.743276"/>
<path d="M295.302 459.433V452.572L317.029 469.724V534.332M295.302 459.433V517.751M295.302 459.433L304.45 466.866M310.74 529.186V472.583L304.45 466.866M317.029 534.332L304.45 524.612M317.029 534.332V538.906L295.302 524.612V517.751M295.302 517.751L304.45 524.612M304.45 524.612V466.866" stroke="#666666" stroke-opacity="0.5" stroke-width="0.743276"/>
<path d="M317.029 586.933L295.302 572.068V580.072M317.029 586.933V649.826M317.029 586.933L310.74 589.792M295.302 580.072V637.819M295.302 580.072L304.45 585.79M310.74 589.792V645.823M310.74 589.792L304.45 585.79M317.029 649.826L304.45 642.965M317.029 649.826V645.823V657.258L295.302 645.823V637.819M295.302 637.819L304.45 642.965M304.45 642.965V585.79" stroke="#666666" stroke-opacity="0.5" stroke-width="0.743276"/>
<path d="M278.722 562.92L251.849 548.054V556.059M278.722 562.92L279.293 632.102M278.722 562.92L273.004 568.065M251.849 556.059L260.997 561.776M251.849 556.059V589.792M267.287 565.778L260.997 561.776M267.287 565.778L273.004 568.065M267.287 565.778V598.368M267.287 625.241V602.942M279.293 632.102V637.247L251.849 623.525V617.236M279.293 632.102L271.861 628.025M251.849 617.236L261.569 622.382M251.849 617.236V594.366M261.569 622.382L260.997 561.776M261.569 622.382L271.861 628.025M273.004 568.065L271.861 628.025M267.287 602.942L251.849 594.366M267.287 602.942V598.368M251.849 594.366V589.792M267.287 598.368L251.849 589.792" stroke="#666666" stroke-opacity="0.5" stroke-width="0.743276"/>
<path d="M-39.1716 239.881V254.746L34.5842 307.347V291.91M-39.1716 239.881V106.091L34.5842 175.273V291.91M-39.1716 239.881L-31.7389 245.124M34.5842 291.91L24.8644 285.053M24.8644 285.053V180.419L-31.7389 132.963V139.824M24.8644 285.053L19.7187 281.423M-31.7389 245.124V191.854M-31.7389 245.124L0.850901 268.114M-31.7389 191.854L19.7187 233.02M-31.7389 191.854V184.993M19.7187 227.874L-31.7389 184.993M-31.7389 184.993V139.824M-31.7389 139.824L0.850901 166.62M19.7187 281.423V182.134L5.42491 170.381M19.7187 281.423L5.42491 271.34M0.850901 166.62C0.850901 206.256 0.850901 228.478 0.850901 268.114M0.850901 166.62L5.42491 170.381M0.850901 268.114L5.42491 271.34M5.42491 271.34V170.381" stroke="#666666" stroke-opacity="0.5" stroke-width="0.743276"/>
<path d="M226.693 224.443V861.945L233.554 857.044V242.168L326.749 342.796V331.933L226.693 224.443Z" fill="#DEE9F4"/>
<path d="M226.693 224.443V861.945M226.693 224.443L326.749 331.933V342.796M226.693 224.443L210.683 230.161M226.693 861.945L233.554 857.044M226.693 861.945L160.369 904.194M-11.1559 1013.46L160.369 904.194M233.554 857.044L234.697 856.228L326.749 789.333V342.796M233.554 857.044V242.168L326.749 342.796M160.369 904.194V793.335M160.369 793.335L212.399 787.617V783.043M160.369 793.335L91.3309 780.185V769.321L143.788 768.178M212.399 724.153V718.436L160.369 700.203M212.399 724.153V772.752M212.399 724.153L207.825 722.55M143.788 700.711H135.784M143.788 700.711V755.599M143.788 700.711L150.649 702.515M212.399 772.752V783.043M212.399 772.752L207.825 771.608M143.788 755.599H136.356M143.788 755.599L150.649 757.315M143.788 755.599V768.178M92.3309 755.599H96.9049M212.399 783.043L143.788 768.178M96.9049 755.599V700.711M96.9049 755.599H106.053M96.9049 700.711H91.1874V694.994H116.916M96.9049 700.711H106.053M106.053 700.711V755.599M106.053 700.711H116.916M106.053 755.599H116.916M116.916 755.599V700.711M116.916 755.599H126.064M116.916 700.711H126.064M126.064 755.599V700.711M126.064 755.599H136.356M126.064 700.711H135.784M136.356 755.599L135.784 700.711M150.649 757.315V702.515M150.649 757.315L156.939 758.887M150.649 702.515L156.939 704.719M156.939 758.887V704.719M156.939 758.887L164.371 760.745M156.939 704.719L164.371 707.323M164.371 760.745V707.323M164.371 760.745L172.948 762.889M164.371 707.323L172.948 710.328M172.948 762.889V710.328M172.948 762.889L180.381 764.747M172.948 710.328L180.381 712.933M180.381 764.747V712.933M180.381 764.747L186.67 766.32M180.381 712.933L186.67 715.137M186.67 766.32V715.137M186.67 766.32L194.103 768.178M186.67 715.137L194.103 717.742M194.103 768.178V717.742M194.103 768.178L200.392 769.75M194.103 717.742L200.392 719.946M200.392 769.75V719.946M200.392 769.75L207.825 771.608M200.392 719.946L207.825 722.55M207.825 771.608V722.55M120.918 694.994H144.049L153.662 697.853M120.918 694.994V645.945M120.918 694.994H116.916M116.916 694.994V644.247L148.934 657.83M148.934 657.83L91.7592 633.817M148.934 657.83V696.196M153.662 697.853V652.684L91.7592 626.956M153.662 697.853L160.369 700.203M160.369 700.203V625.24M160.369 625.24L91.2347 587.222V574.926H144.36M160.369 625.24L213.542 615.521M213.542 615.521L144.36 574.926M213.542 615.521V600.655M144.36 574.926V562.348M144.36 562.348V513.177M144.36 562.348L151.072 566.064M144.36 562.348H136.356M91.7592 562.348H96.9049M213.542 600.655V555.487M213.542 600.655L207.347 597.225M144.36 506.316V513.177M144.36 506.316L148.362 508.797M144.36 506.316H123.205M144.36 513.177L151.072 517.282M144.36 513.177L136.356 513.001M213.542 555.487V549.198L160.369 516.239M213.542 555.487L206.681 551.291M207.347 597.225L206.681 551.291M207.347 597.225L199.82 593.057M206.681 551.291L199.82 547.095M199.82 593.057V547.095M199.82 593.057L193.531 589.574M199.82 547.095L194.103 543.598M193.531 589.574L194.103 543.598M193.531 589.574L187.242 586.092M194.103 543.598L187.242 539.402M187.242 586.092V539.402M187.242 586.092L180.381 582.293M187.242 539.402L180.381 535.206M180.381 582.293V535.206M180.381 582.293L172.948 578.177M180.381 535.206L173.52 531.01M172.948 578.177L173.52 531.01M172.948 578.177L165.515 574.062M173.52 531.01L165.515 526.115M165.515 574.062V526.115M165.515 574.062L157.784 569.781M165.515 526.115L157.784 521.387M157.784 569.781V521.387M157.784 569.781L151.072 566.064M157.784 521.387L151.072 517.282M151.072 566.064V517.282M92.3309 452.572L119.203 471.218M148.362 508.797V491.451L123.205 473.995M148.362 508.797L154.652 512.695M154.652 512.695V488.02L91.7592 444.567M154.652 512.695L160.369 516.239M160.369 516.239V462.863M160.369 462.863L91.3309 407.98V395.397H144.36M160.369 462.863L213.542 457.146V451.428M213.542 393.11V384.533L160.369 337.669M213.542 393.11V438.278M213.542 393.11L206.967 387.295M144.36 331.933H136.356M144.36 331.933V382.818M144.36 331.933L150.847 337.669M213.542 438.278V451.428M213.542 438.278L206.967 433.007M144.36 382.818H136.356M144.36 382.818V395.397M144.36 382.818L150.649 387.86M91.3309 382.818H96.3332M144.36 395.397L145.066 395.968L213.542 451.428M136.356 562.348V513.001M136.356 562.348H126.636M136.356 513.001L126.636 512.788M126.636 562.348V512.788M126.636 562.348H116.916M126.636 512.788L116.916 512.574M116.916 562.348V512.574M116.916 562.348H106.625M116.916 512.574L106.625 512.348M106.625 562.348H106.053H96.9049M106.625 562.348V512.348M106.625 512.348L96.9049 512.134M96.9049 562.348V512.134M96.9049 512.134L91.1874 512.034V506.316H119.203M123.205 506.316V473.995M123.205 506.316H119.203M123.205 473.995L119.203 471.218M119.203 506.316V471.218M92.3309 816.205L153.508 823.638L152.365 897.965H92.3309M92.3309 890.533H116.916M92.3309 822.494L116.916 825.536M116.916 825.536V890.533M116.916 825.536L121.49 826.102M116.916 890.533H121.49M121.49 826.102L147.791 829.355V890.533H121.49M121.49 826.102V890.533M160.369 337.669V321.069M160.369 337.669L152.936 331.118M160.369 295.912L91.3309 232.448V227.302H140.93M160.369 295.912V321.069M160.369 295.912L210.683 297.627M160.369 321.069L92.3309 261.035M92.3309 269.04L121.612 293.625M152.936 331.118V319.926L147.791 315.605M152.936 331.118L147.791 326.583M147.791 326.583L146.075 325.071H126.379M147.791 326.583V315.605M147.791 315.605L126.379 297.627M126.379 297.627V325.071M126.379 297.627L121.612 293.625M126.379 325.071H121.612M121.612 293.625V325.071M121.612 325.071H91.1874V331.933H96.3332M121.612 325.071L92.3309 298.771M140.93 227.302V213.58M140.93 227.302L210.683 297.627M140.93 213.58H132.925M140.93 213.58V166.696M140.93 213.58L149.506 222.297M91.3309 213.58H97.4767M210.683 284.477V297.627M210.683 284.477V236.45M210.683 284.477L200.964 274.598M210.683 236.45V230.161M210.683 236.45L200.964 226.73M210.683 230.161L134.64 154.69H91.1874V160.407H97.4767M97.4767 213.58V160.407M97.4767 213.58H106.625M97.4767 160.407H106.625M106.625 213.58V160.407M106.625 213.58H116.344M106.625 160.407H116.344M116.344 213.58V160.407M116.344 213.58H124.921M116.344 160.407H124.921M124.921 213.58V160.407M124.921 213.58H132.925M124.921 160.407H132.925M132.925 213.58V160.407M132.925 160.407H134.64L140.93 166.696M140.93 166.696L149.506 175.273M149.506 222.297V175.273M149.506 222.297L158.082 231.014M149.506 175.273L158.082 183.849M158.082 231.014V183.849M158.082 231.014L166.658 239.731M158.082 183.849L166.658 192.425M166.658 239.731V192.425M166.658 239.731L174.119 247.313M166.658 192.425L174.119 199.886M174.119 247.313V199.886M174.119 247.313L181.524 254.84M174.119 199.886L181.524 207.291M181.524 254.84V207.291M181.524 254.84L188.745 262.179M181.524 207.291L188.745 214.511M188.745 262.179V214.511M188.745 262.179L195.246 268.787M188.745 214.511L195.246 221.013M195.246 268.787V221.013M195.246 268.787L200.964 274.598M195.246 221.013L200.964 226.73M200.964 274.598V226.73M96.3332 331.933V382.818M96.3332 331.933H106.053M96.3332 382.818H106.053M106.053 331.933V382.818M106.053 331.933H116.344M106.053 382.818H116.344M116.344 331.933V382.818M116.344 331.933H125.492M116.344 382.818H125.492M125.492 331.933V382.818M125.492 331.933H136.356M125.492 382.818H136.356M136.356 331.933V382.818M150.649 387.86L150.847 337.669M150.649 387.86L158.082 393.818M150.847 337.669L158.082 344.067M158.082 393.818V344.067M158.082 393.818L165.043 399.399M158.082 344.067L165.043 350.223M165.043 399.399V350.223M165.043 399.399L172.889 405.688M165.043 350.223L172.889 357.16M172.889 405.688V357.16M172.889 405.688L180.021 411.406M172.889 357.16L180.021 363.467M180.021 411.406V363.467M180.021 411.406L187.242 417.194M180.021 363.467L187.242 369.852M187.242 417.194V369.852M187.242 417.194L192.859 421.697M187.242 369.852L194.103 375.919M194.103 375.919L192.859 421.697M194.103 375.919L200.392 381.481M192.859 421.697L200.392 427.736M200.392 427.736V381.481M200.392 427.736L206.967 433.007M200.392 381.481L206.967 387.295M206.967 433.007V387.295" stroke="#666666" stroke-opacity="0.5" stroke-width="0.743276"/>
<path d="M251.849 843.649V811.631M282.152 821.922L281.58 812.774L251.849 803.626V811.631M251.849 811.631L265 815.424M282.152 820.207L269.574 816.744M265 815.424V833.929M265 815.424L269.574 816.744M269.574 816.744V831.07" stroke="#666666" stroke-opacity="0.5" stroke-width="0.743276"/>
<path d="M63.1717 101.517V107.234M63.1717 107.234L56.5386 101.231M63.1717 107.234V143.826M-27.1648 61.4944V25.4741L-19.5841 32.3351M-19.5841 32.3351L-11.3717 39.7679M-19.5841 32.3351V68.4737M-19.5841 69.4989V68.4737M-11.3717 39.7679L3.15792 52.9181M-11.3717 39.7679V75.9514M-11.3717 76.9317V75.9514M-3.15132 47.2079V83.2209M3.15792 52.9181L11.1424 60.1446M3.15792 52.9181V89.1813M3.15792 90.0819V89.1813M11.1424 60.1446L19.1469 67.3892M11.1424 60.1446V96.4515M11.1424 96.9429V96.4515M19.1469 67.3892L27.1515 74.6338M19.1469 67.3892V103.74M19.1469 104.376V103.74M27.1515 74.6338L34.7441 81.5057M27.1515 74.6338V111.028M27.1515 111.237V111.028M34.7441 81.5057V56.3486M34.7441 81.5057L41.4452 87.5706M34.7441 81.5057V117.942M34.7441 118.669V117.942M42.5887 88.6055L49.9055 95.2277M42.5887 88.6055L41.4452 87.5706M42.5887 88.6055V125.085M42.5887 125.53V125.085M49.9055 95.2277L56.5386 101.231M49.9055 95.2277V131.747M49.9055 131.82V131.747M56.5386 101.231V137.537M56.5386 101.231L84.8983 97.7213M63.1717 143.826V151.831L-115.786 -9.97441V-19.1224L-113.902 -17.4072M63.1717 143.826L49.9055 131.747M-107.623 -11.6897L-108.353 -79.728M-107.623 -11.6897L-113.902 -17.4072M-107.623 -11.6897L-36.6679 52.9181M-113.902 -17.4072V-77.441L-116.358 -78.0127M34.7441 56.3486L36.2995 49.2153M34.7441 56.3486L-36.6679 -12.2752M41.4452 87.5706V54.0616L36.2995 49.2153M36.2995 49.2153L-115.786 -94.0217V-88.3042L-36.6679 -12.2752M-36.6679 52.9181V-12.2752M-36.6679 52.9181L-19.5841 68.4737M84.8983 97.7213L91.1875 96.9429V947.708L84.8983 952.282V97.7213ZM49.9055 131.747L42.5887 125.085M42.5887 125.085L34.7441 117.942M34.7441 117.942L27.1515 111.028M27.1515 111.028L19.1469 103.74M19.1469 103.74L11.1424 96.4515M11.1424 96.4515L3.15792 89.1813M3.15792 89.1813L-11.3717 75.9514M-11.3717 75.9514L-19.5841 68.4737" stroke="#666666" stroke-opacity="0.5" stroke-width="0.743276"/>
<path d="M24.8644 506.316L25.1708 398.256L-32.3106 363.379V370.812M24.8644 506.316L19.7187 503.641M24.8644 506.316L33.4407 510.89M-32.3106 370.812V421.126M-32.3106 370.812L1.42264 390.458M19.7187 503.641V453.715M19.7187 503.641L4.85314 495.911M-32.3106 425.7V476.585L0.85089 493.829M-32.3106 425.7L19.7187 453.715M-32.3106 425.7V421.126M19.7187 453.715V449.141M19.7187 449.141V401.114L4.85314 392.456M19.7187 449.141L-32.3106 421.126M1.42264 390.458L0.85089 493.829M1.42264 390.458L4.85314 392.456M0.85089 493.829L4.85314 495.911M4.85314 495.911V392.456M-38.0281 344.511L34.5842 391.395V521.754L-38.0281 489.164V344.511Z" stroke="#666666" stroke-opacity="0.5" stroke-width="0.743276"/>
<path d="M-31.7389 602.37V596.081L24.8644 615.521V719.007L19.7187 717.76M-31.7389 602.37V649.254M-31.7389 602.37L0.85089 612.871M19.7187 717.76V670.409M19.7187 717.76L4.85314 714.156M-31.7389 653.828V705.285L0.85089 713.186M-31.7389 653.828L19.7187 670.409M-31.7389 653.828V649.254M19.7187 670.409V665.835M19.7187 665.835V618.951L4.85314 614.161M19.7187 665.835L-31.7389 649.254M0.85089 713.186V612.871M0.85089 713.186L4.85314 714.156M0.85089 612.871L4.85314 614.161M4.85314 614.161V714.156M-38.0281 581.216L34.5842 606.373V734.445L-38.0281 719.007V581.216Z" stroke="#666666" stroke-opacity="0.5" stroke-width="0.743276"/>
<path d="M-38.5999 936.844V949.995L34.0124 945.421V935.129M-38.5999 936.844V811.059L34.0124 820.779V935.129M-38.5999 936.844L-31.7389 936.682M34.0124 935.129L25.4361 935.332M25.4361 935.332V829.355L-31.7389 823.066V828.212M25.4361 935.332L18.9441 935.485M-31.7389 936.682V879.874M-31.7389 936.682L-0.292638 935.94M-31.7389 879.874L19.7186 883.672M-31.7389 879.874V875.095M-31.7389 875.095L20.2904 879.098M-31.7389 875.095V828.212M-31.7389 828.212L-0.292638 830.976M18.9441 935.485L20.2904 832.786L4.28137 831.378M18.9441 935.485L4.28137 935.831M4.28137 831.378V935.831M4.28137 831.378L-0.292638 830.976M4.28137 935.831L-0.292638 935.94M-0.292638 935.94V830.976" stroke="#666666" stroke-opacity="0.5" stroke-width="0.743276"/>
<path d="M279.293 437.135L251.849 413.693V424.556M279.293 437.135V505.173M279.293 437.135L273.004 439.422M251.849 424.556L267.096 435.27M251.849 424.556V458.861M273.004 439.422V501.171M273.004 439.422L267.096 435.27M251.849 484.59V493.166L279.293 512.606V505.173M251.849 484.59L267.096 496.025M251.849 484.59V464.007M279.293 505.173L267.096 496.025M267.096 496.025V476.014M267.096 435.27V470.296M251.849 464.007L267.096 476.014M251.849 464.007V458.861M267.096 476.014V470.296M251.849 458.861L267.096 470.296" stroke="#666666" stroke-opacity="0.5" stroke-width="0.743276"/>
<path d="M317.029 417.123V360.52L296.446 338.793V347.37M317.029 417.123V422.269L296.446 405.688V399.971M317.029 417.123L310.168 411.406M296.446 399.971V347.37M296.446 399.971L304.679 406.832M310.168 411.406V360.52L304.679 355.26M310.168 411.406L304.679 406.832M296.446 347.37L304.679 355.26M304.679 406.832V355.26" stroke="#666666" stroke-opacity="0.5" stroke-width="0.743276"/>
<path d="M312.455 926.646L358.767 876.811H429.092L424.31 883.672M312.455 926.646L306.166 933.414H389.641L394.358 926.646M312.455 926.646H321.317M394.358 926.646L421.521 887.674M394.358 926.646H363.912M421.521 887.674L424.31 883.672M421.521 887.674H394.358M363.912 887.674L330.179 926.646M363.912 887.674H389.641M363.912 887.674L360.482 883.672M330.179 926.646H321.317M330.179 926.646H358.767M321.317 926.646L360.482 883.672M360.482 883.672H424.31M358.767 926.646L389.641 887.674M358.767 926.646H363.912M389.641 887.674H394.358M363.912 926.646L394.358 887.674" stroke="#666666" stroke-opacity="0.5" stroke-width="0.743276"/>
<path d="M451.667 925.981L478.834 877.954H553.162L551.239 883.1M451.667 925.981L446.816 934.557H532.007L535.212 925.981M451.667 925.981H457.532M535.212 925.981H503.991H502.848M535.212 925.981L549.529 887.674M463.397 925.981L484.552 887.674H515.998M463.397 925.981H457.532M463.397 925.981H497.702M549.529 887.674L551.239 883.1M549.529 887.674H515.998M457.532 925.981L482.837 883.1H551.239M497.702 925.981L515.998 887.674M497.702 925.981H502.848M502.848 925.981L520.572 888.246" stroke="#666666" stroke-opacity="0.5" stroke-width="0.743276"/>
<path d="M493.137 850.51H499.417M558.281 850.51L556.021 856.799H489.698L509.709 820.207H569.171L567.116 825.925M558.281 850.51L565.883 829.355M558.281 850.51H532.579M567.116 825.925H513.711L499.417 850.51M567.116 825.925L565.883 829.355M499.417 850.51H504.563M504.563 850.51L516.57 829.355H536.009M504.563 850.51H527.433M565.883 829.355H540.583M527.433 850.51L536.009 829.355M527.433 850.51H532.579M536.009 829.355H540.583M532.579 850.51L540.583 829.355" stroke="#666666" stroke-opacity="0.5" stroke-width="0.743276"/>
<path d="M381.637 850.045L408.509 821.351H469.114L465.412 825.925M381.637 850.045L374.776 857.371H439.955L445.886 850.045M381.637 850.045H389.069M445.886 850.045L465.412 825.925M445.886 850.045H424.518M389.069 850.045L413.655 825.925H420.516M389.069 850.045H397.646M465.412 825.925H443.386M397.646 850.045L420.516 825.925M397.646 850.045H418.8M420.516 825.925H438.24M418.8 850.045L438.24 825.925M418.8 850.045H424.518M438.24 825.925H443.386M424.518 850.045L443.386 825.925" stroke="#666666" stroke-opacity="0.5" stroke-width="0.743276"/>
<path d="M310.74 820.779L364.484 821.923L360.211 825.925M310.74 820.779L270.145 855.656H328.464L334.569 849.938M310.74 820.779L314.17 825.925M278.15 849.938H285.011M334.569 849.938L360.211 825.925M334.569 849.938H314.17M285.011 849.938L314.17 825.925M285.011 849.938H293.015M314.17 825.925H321.031M360.211 825.925H338.184M307.881 849.938L332.466 825.925M307.881 849.938H314.17M307.881 849.938H293.015M314.17 849.938L338.184 825.925M338.184 825.925H321.031M293.015 849.938L321.031 825.925" stroke="#666666" stroke-opacity="0.5" stroke-width="0.743276"/>
<path d="M553.162 769.893V790.803L556.592 790.817V765.319L553.162 769.893Z" fill="#DEE9F4"/>
<path d="M947.098 765.891V791.048H951.1V765.891H947.098Z" fill="#DEE9F4"/>
<path d="M892.21 765.891V791.048H896.212V765.891H892.21Z" fill="#DEE9F4"/>
<path d="M1004.84 791.048V765.891H1000.27V791.048H1004.84Z" fill="#DEE9F4"/>
<path d="M609.851 810.487L557.164 1012.89H568.599L618.072 806.485L621.772 791.048H614.911L609.851 810.487Z" fill="#DEE9F4"/>
<path d="M814.452 802.483V813.346L935.091 1013.46H946.526L820.179 811.631L814.452 802.483Z" fill="#DEE9F4"/>
<path d="M495.987 769.893H491.985V790.56L495.987 790.576V769.893Z" fill="#DEE9F4"/>
<path d="M434.809 769.893H430.235V790.315L434.809 790.333V769.893Z" fill="#DEE9F4"/>
<path d="M386.782 769.893H382.208V790.125L386.782 790.138V769.893Z" fill="#DEE9F4"/>
<path d="M338.755 769.893H334.753V789.936L338.755 789.952V769.893Z" fill="#DEE9F4"/>
<path d="M556.592 765.319H326.749V769.893H334.753M556.592 765.319L553.162 769.893M556.592 765.319V790.817M556.592 765.319L567.456 783.615V790.86M334.753 769.893H338.755M334.753 769.893V789.936M338.755 769.893H382.208M338.755 769.893V789.952M382.208 769.893H386.782M382.208 769.893V790.125M386.782 769.893H430.235M386.782 769.893V790.138M430.235 769.893H434.809M430.235 769.893V790.315M434.809 769.893H491.985M434.809 769.893V790.333M491.985 769.893H495.987M491.985 769.893V790.56M495.987 769.893H553.162M495.987 769.893V790.576M553.162 769.893V790.803M553.162 790.803L556.592 790.817M553.162 790.803L495.987 790.576M556.592 790.817L567.456 790.86M947.098 765.891V791.048M947.098 765.891H951.1M947.098 765.891H896.212M947.098 791.048H951.1M947.098 791.048H896.212M951.1 791.048V765.891M951.1 791.048H1000.27M951.1 765.891H1000.27M892.21 765.891V791.048M892.21 765.891H896.212M892.21 765.891H835.035M892.21 791.048H896.212M892.21 791.048H835.035M896.212 791.048V765.891M835.035 762.46H1004.84V765.891M835.035 762.46V765.891M835.035 762.46L826.459 782.472V791.048M835.035 765.891V791.048M1000.27 765.891H1004.84M1000.27 765.891V791.048M1004.84 765.891V791.048M1004.84 791.048H1000.27M1004.84 791.048H1157.5M621.772 791.048L638.353 870.521H787.008M621.772 791.048L618.072 806.485M621.772 791.048H614.911M618.072 806.485L634.35 875.095M618.072 806.485L568.599 1012.89H557.164L609.851 810.487M634.35 875.095H663.51M634.35 875.095V893.391M663.51 875.095H667.512M663.51 875.095V893.391M667.512 875.095H709.821M667.512 875.095V893.391M709.821 875.095H714.395M709.821 875.095V893.391M714.395 875.095H750.13M714.395 875.095V893.391M750.13 875.095H754.418M750.13 875.095V893.391M754.418 875.095H787.008M754.418 875.095V893.391M787.008 875.095V870.521M787.008 875.095V893.391M787.008 870.521V853.941M609.851 810.487L614.911 791.048M609.851 810.487L303.307 805.913L326.749 789.904L334.753 789.936M614.911 791.048L567.456 790.86M334.753 789.936L338.755 789.952M338.755 789.952L382.208 790.125M382.208 790.125L386.782 790.138M386.782 790.138L430.235 790.315M430.235 790.315L434.809 790.333M434.809 790.333L491.985 790.56M491.985 790.56L495.987 790.576M634.35 912.831V893.391M634.35 912.831H787.008M634.35 912.831V1013.46M634.35 893.391H663.51M663.51 893.391H667.512M667.512 893.391H709.821M709.821 893.391H714.395M714.395 893.391H750.13M750.13 893.391H754.418M754.418 893.391H787.008M787.008 893.391V912.831M787.008 912.831V1013.46M787.008 853.941L784.149 847.651L814.452 791.048M787.008 853.941L814.452 802.483M814.452 791.048V802.483M814.452 791.048H826.459M814.452 802.483H1157.5M814.452 802.483V813.346M814.452 802.483L820.179 811.631M814.452 813.346V1013.46M814.452 813.346L935.091 1013.46H946.526L820.179 811.631M820.179 811.631H1157.5M657.792 958.571V941.99H675.516M657.792 958.571H696.671M657.792 958.571V963.145M696.671 958.571V941.99H680.662M696.671 958.571V963.145M657.792 963.145V980.869H675.516M657.792 963.145H696.671M696.671 963.145V980.869H680.662M680.662 941.99V980.869M680.662 941.99H675.516M680.662 980.869H675.516M675.516 980.869V941.99M752.703 941.99H732.12V958.571M752.703 941.99V980.869M752.703 941.99H757.849M752.703 980.869H732.12V963.145M752.703 980.869H757.849M757.849 980.869H775.573V963.145M757.849 980.869V941.99M757.849 941.99H775.573V958.571M732.12 958.571H775.573M732.12 958.571V963.145M775.573 958.571V963.145M732.12 963.145H775.573M797.871 1013.46V976.867L806.447 961.43V1013.46M802.445 1013.46V969.434M802.445 917.169L796.728 928.268V875.095L806.447 857.943V909.4L802.445 917.169ZM802.445 917.169V865.006M826.459 791.048H835.035M829.317 1013.46V996.878L837.322 1013.46M898.499 1013.46V999.737L905.932 1013.46M878.488 1013.46V972.293L872.199 960.054M857.333 1001.45V931.127L864.678 945.421M857.333 1001.45L861.907 1013.46M857.333 1001.45L864.194 1006.03M869.34 1013.46L864.194 1006.03M864.194 1006.03L864.678 945.421M864.678 945.421L872.199 960.054M872.199 960.054V1013.46M829.317 937.416V879.098L835.035 892.273M829.317 937.416L842.468 972.293V956.284M829.317 937.416H835.035M842.468 956.284V909.4L835.035 892.273M842.468 956.284L835.035 937.416M835.035 937.416V892.273M943.283 847.651L948.813 853.941H885.349L862.479 820.779H913.365M943.283 847.651L919.654 820.779H913.365M943.283 847.651H936.9M930.517 847.651L911.078 824.781H892.782M930.517 847.651H936.9M930.517 847.651H913.365M936.9 847.651L913.365 820.779M907.933 847.651H885.349L869.34 824.781H888.208M907.933 847.651L888.208 824.781M907.933 847.651H913.365M888.208 824.781H892.782M913.365 847.651L892.782 824.781M962.969 824.781L959.105 820.779H1012.85L1050.58 853.941H991.123L986.154 848.795M962.969 824.781L986.154 848.795M962.969 824.781H984.833M986.154 848.795H1010.56M1010.56 848.795L984.833 824.781M1010.56 848.795H1016.28M984.833 824.781H989.979M1016.28 848.795L989.979 824.781M1016.28 848.795H1034M989.979 824.781H1005.42M1005.42 824.781H1010.56L1040.86 848.795H1034M1005.42 824.781L1034 848.795M1066 825.353L1060.88 820.779H1119.77L1157.5 853.941L1099.18 855.084L1093.55 849.938M1066 825.353L1093.55 849.938M1066 825.353L1088.32 824.828M1093.55 849.938H1116.91M1136.35 849.938H1144.92L1114.62 824.209L1106.62 824.398M1136.35 849.938L1106.62 824.398M1136.35 849.938H1123.77M1106.62 824.398L1094.61 824.68M1123.77 849.938L1094.61 824.68M1123.77 849.938H1116.91M1094.61 824.68L1088.32 824.828M1116.91 849.938L1088.32 824.828M969.968 875.095H898.499L903.073 881.742M969.968 875.095L1006.2 922.551M969.968 875.095L965.966 881.742M903.073 881.742H965.966M903.073 881.742L905.581 885.387M965.966 881.742L997.984 922.551M905.581 885.387L931.156 922.551M905.581 885.387H934.275M992.266 922.551L962.969 885.387H939.093M931.156 922.551L935.091 928.268H1010.56L1006.2 922.551M931.156 922.551H961.392M1006.2 922.551H967.109M934.275 885.387L961.392 922.551M934.275 885.387H939.093M961.392 922.551H967.109M939.093 885.387L967.109 922.551M1074.03 875.095H1010.56L1016.19 881.742M1074.03 875.095L1121.48 922.551M1074.03 875.095L1069.45 881.742M1016.19 881.742H1069.45M1016.19 881.742L1019.28 885.387M1069.45 881.742L1112.33 922.551M1019.28 885.387H1042.01M1019.28 885.387L1050.75 922.551M1104.9 922.551L1067.74 885.387H1047.15M1042.01 885.387L1079.17 922.551M1042.01 885.387H1047.15M1047.15 885.387L1084.32 922.551M1050.75 922.551L1058.02 931.127H1130.06L1121.48 922.551M1050.75 922.551H1121.48M1190.09 875.095L1259.85 928.268L1176.94 931.127L1169.51 923.843M1190.09 875.095H1119.77L1126.55 881.742M1190.09 875.095L1183.8 881.742M1126.55 881.742H1183.8M1126.55 881.742L1130.27 885.387M1183.8 881.742L1234.69 922.551L1226.68 922.709M1169.51 923.843L1130.27 885.387M1169.51 923.843L1200.96 923.219M1226.68 922.709L1180.94 885.387H1163.22M1226.68 922.709L1207.82 923.083M1130.27 885.387H1155.61M1155.61 885.387L1200.96 923.219M1155.61 885.387H1163.22M1200.96 923.219L1207.82 923.083M1163.22 885.387L1207.82 923.083M1039.15 962.001H954.531L960.629 970.578M1039.15 962.001L1084.32 1013.46M1039.15 962.001L1037.43 970.578M964.695 976.295L991.123 1013.46M964.695 976.295L960.629 970.578M964.695 976.295H1003.7M1066.59 1013.46L1036.29 976.295H1009.42M960.629 970.578H1037.43M1037.43 970.578L1074.03 1013.46M1003.7 976.295L1031.15 1013.46M1003.7 976.295H1009.42M1009.42 976.295L1037.43 1013.46M1163.22 962.001H1088.32L1096.32 970.578M1163.22 962.001L1219.82 1013.46M1163.22 962.001L1162.08 969.434M1096.32 970.578L1162.08 969.434M1096.32 970.578L1101.66 976.295M1162.08 969.434L1207.82 1013.46M1101.66 976.295L1136.35 1013.46M1101.66 976.295L1132.35 975.692M1197.52 1013.46L1159.79 975.152L1132.35 975.692M1124.91 976.295L1162.08 1013.46M1132.35 975.692L1170.65 1013.46M1289.58 962.001H1212.96L1223.06 970.578M1289.58 962.001L1357.04 1013.46M1289.58 962.001L1286.15 969.434M1223.06 970.578L1286.15 969.434M1223.06 970.578L1230.69 977.05M1286.15 969.434L1342.75 1013.46M1230.69 977.05L1273.57 1013.46M1230.69 977.05L1256.41 976.42M1331.31 1013.46L1286.15 975.692L1263.85 976.238M1256.41 976.42L1299.87 1013.46M1256.41 976.42L1263.85 976.238M1263.85 976.238L1307.87 1013.46M653.79 937.416V985.443H701.245V937.416H653.79ZM726.974 937.416V985.443H780.719V937.416H726.974Z" stroke="#666666" stroke-opacity="0.5" stroke-width="0.743276"/>
<path d="M1426.22 51.6407L1130.63 301.63V317.382L1530.86 -16.2637V-36.8467L1426.22 51.6407Z" fill="#DEE9F4"/>
<path d="M1211.82 376.529L1273.62 388.5L1530.28 240.452V251.318L1273.62 399.681L1195.24 442.852L1158.07 439.563M1211.82 376.529L1130.63 431.989M1211.82 376.529V362.807M1130.63 419.982V431.989M1130.63 419.982V370.811M1130.63 419.982L1138.63 414.345M1211.82 362.807V310.206M1211.82 362.807L1218.39 364.255M1211.82 362.807L1205.56 367.213M1273.62 376.529L1268.99 375.396M1130.63 431.989V437.134L1158.07 439.563M1426.22 51.6407L1130.63 301.63V317.382M1426.22 51.6407L1530.86 -36.8467V-16.2637L1130.63 317.382M1426.22 51.6407V42.6266M1426.22 -51.1404L1491.98 -109.459M1426.22 -51.1404V42.6266M1426.22 -51.1404L1457.61 -25.9834M1211.82 303.345V310.206M1211.82 303.345L1130.63 364.255M1211.82 303.345L1224.97 305.49M1211.82 310.206L1218.39 311.292M1211.82 310.206L1205.56 314.876M1268.99 375.396V319.648M1268.99 375.396L1263.28 374.137M1268.99 319.648L1273.57 320.404V313.417L1269.12 312.691M1268.99 319.648L1263.28 318.703M1263.28 374.137V318.703M1263.28 374.137L1255.27 372.374M1263.28 318.703L1255.27 317.382M1255.27 372.374V317.382M1255.27 372.374L1248.17 370.811M1255.27 317.382L1248.17 316.209M1248.17 370.811V316.209M1248.17 370.811L1239.83 368.975M1248.17 316.209L1239.83 314.832M1239.83 368.975V314.832M1239.83 368.975L1231.83 367.213M1239.83 314.832L1231.83 313.51M1231.83 367.213V313.51M1231.83 367.213L1224.97 365.702M1231.83 313.51L1224.97 312.377M1224.97 365.702V312.377M1224.97 365.702L1218.39 364.255M1224.97 312.377L1218.39 311.292M1218.39 364.255V311.292M1130.63 370.811V364.255M1130.63 370.811L1138.63 364.836M1130.63 364.255V347.941M1224.97 305.49V301.63L1274.14 266.181M1224.97 305.49L1239.83 307.915M1239.83 307.915V295.912L1244.98 292.482M1239.83 307.915L1244.98 308.754M1274.14 273.042L1269.12 276.391M1244.98 308.754V292.482M1244.98 308.754L1264.09 311.872M1244.98 292.482L1264.09 279.739M1264.09 311.872V279.739M1264.09 311.872L1269.12 312.691M1264.09 279.739L1269.12 276.391M1269.12 312.691V276.391M1130.63 347.941L1273.57 238.737M1130.63 347.941V317.382M1273.57 205.576H1266.13M1307.87 322.784V228.445L1375.91 177.56V192.997M1307.87 322.784V335.363L1375.91 292.482V192.997M1307.87 322.784L1317.48 316.209M1323.31 312.219L1317.48 316.209M1323.31 312.219V279.739M1323.31 312.219L1343.79 298.199M1317.48 316.209V237.022L1375.91 192.997M1323.31 279.739L1370.76 246.17M1323.31 279.739V273.042M1370.76 246.17V279.739L1349.04 294.61M1370.76 246.17V238.737M1323.31 273.042V240.452L1343.79 225.398M1323.31 273.042L1370.76 238.737M1370.76 238.737V205.576L1349.04 221.543M1349.04 294.61V221.543M1349.04 294.61L1343.79 298.199M1349.04 221.543L1343.79 225.398M1343.79 298.199V225.398M1426.22 141.539L1530.86 64.9249M1426.22 141.539V238.737M1426.22 141.539L1440.52 146.113M1530.86 192.997L1426.22 255.318V238.737M1426.22 238.737L1440.52 229.989M1530.86 174.701L1520.56 181M1440.52 229.989V146.113M1440.52 229.989L1448.02 225.398M1440.52 146.113L1530.86 81.5056M1448.02 225.398V150.116L1479.4 127.375M1448.02 225.398L1479.4 206.194M1530.86 90.0819L1520.56 97.5406M1479.4 127.375V206.194M1479.4 127.375L1485.12 123.232M1479.4 206.194L1485.12 202.695M1485.12 123.232V202.695M1485.12 123.232L1515.99 100.856M1485.12 202.695L1515.99 183.799M1515.99 100.856V183.799M1515.99 100.856L1520.56 97.5406M1515.99 183.799L1520.56 181M1520.56 97.5406V181M1426.22 42.6266L1450.24 21.6312M1530.86 -48.8534L1457.61 15.1826M1450.24 21.6312V-31.1292L1530.86 -101.454M1450.24 21.6312L1457.61 15.1826M1457.61 15.1826V-25.9834M1457.61 -25.9834L1530.86 -90.0195M1205.56 367.213V314.876M1205.56 367.213L1196.38 373.678M1205.56 314.876L1196.38 321.729M1196.38 373.678V321.729M1196.38 373.678L1189.52 378.51M1196.38 321.729L1189.52 326.851M1189.52 378.51V326.851M1189.52 378.51L1182.09 383.744M1189.52 326.851L1182.09 332.399M1182.09 383.744V332.399M1182.09 383.744L1175.28 388.536M1182.09 332.399L1175.28 337.478M1175.28 388.536V337.478M1175.28 388.536L1167.98 393.681M1175.28 337.478L1167.98 342.933M1167.98 393.681V342.933M1167.98 393.681L1161.48 398.255M1167.98 342.933L1161.27 347.941M1161.48 398.255L1161.27 347.941M1161.48 398.255L1154.07 403.474M1161.27 347.941L1154.07 353.313M1154.07 403.474V353.313M1154.07 403.474L1146.64 408.708M1154.07 353.313L1146.64 358.861M1146.64 408.708V358.861M1146.64 408.708L1138.63 414.345M1146.64 358.861L1138.63 364.836M1138.63 414.345V364.836M1158.07 439.563V522.897M1212.39 494.309V501.17M1212.39 494.309L1208.3 496.596M1212.39 494.309L1219.82 494.796M1148.93 596.653L1212.39 569.781M1148.93 596.653V585.789M1148.93 596.653L1158.07 598.545M1212.39 569.781L1273.57 572.639L1530.28 463.228V473.726L1273.57 582.931L1209.75 609.231L1158.07 598.545M1212.39 569.781V558.345M1212.39 558.345L1209.75 559.489M1212.39 558.345L1216.96 558.516M1148.93 585.789V536.619M1148.93 585.789L1155.54 582.931M1273.57 560.633L1268.14 560.429M1148.93 536.619V529.758L1208.3 496.596M1148.93 536.619L1155.54 532.926M1212.39 501.17L1209.75 502.647M1212.39 501.17L1216.96 501.47M1155.54 582.931V532.926M1155.54 582.931L1161.5 580.35M1155.54 532.926L1161.5 529.593M1161.5 580.35V529.593M1161.5 580.35L1167.79 577.63M1161.5 529.593L1167.79 526.08M1167.79 577.63V526.08M1167.79 577.63L1174.65 574.664M1167.79 526.08L1174.65 522.248M1174.65 574.664V522.248M1174.65 574.664L1181.52 571.697M1174.65 522.248L1181.52 518.416M1181.52 571.697V518.416M1181.52 571.697L1188.59 568.637M1181.52 518.416L1188.59 514.464M1188.59 568.637V514.464M1188.59 568.637L1195.24 565.763M1188.59 514.464L1195.24 510.751M1195.24 565.763V510.751M1195.24 565.763L1202.1 562.796M1195.24 510.751L1202.1 506.919M1202.1 562.796V506.919M1202.1 562.796L1209.75 559.489M1202.1 506.919L1209.75 502.647M1209.75 559.489V502.647M1216.96 558.516V501.47M1216.96 558.516L1223.83 558.773M1216.96 501.47L1223.83 501.919M1223.83 558.773V501.919M1223.83 558.773L1231.26 559.051M1223.83 501.919L1239.83 502.966M1231.26 559.051V502.647M1231.26 559.051L1239.83 559.371M1239.83 559.371V502.966M1239.83 559.371L1247.84 559.671M1239.83 502.966L1247.84 503.49M1247.84 559.671V503.49M1247.84 559.671L1255.27 559.948M1247.84 503.49L1255.27 503.976M1255.27 559.948V503.976M1255.27 559.948L1262.7 560.226M1255.27 503.976L1262.7 504.462M1262.7 560.226V504.462M1262.7 560.226L1268.14 560.429M1262.7 504.462L1268.14 504.817M1268.14 560.429V504.817M1268.14 504.817L1273.57 505.173V498.312L1268.42 497.975M1158.07 598.545V698.424M1158.07 698.424L1148.93 701.855V709.288M1158.07 698.424L1202.1 684.255M1148.93 770.465L1209.75 754.456M1148.93 770.465V760.173M1148.93 770.465L1158.07 771.927M1209.75 754.456L1274.14 757.886L1530.28 698.341V708.5L1274.14 765.891L1209.75 780.185L1158.07 771.927M1209.75 754.456V741.877M1209.75 741.877V690.016M1209.75 741.877L1215.82 742.471M1209.75 741.877L1202.76 743.978M1274.14 748.167L1267.28 747.496M1148.93 760.173V709.288M1148.93 760.173L1155.22 758.281M1207.82 682.415V689.848M1207.82 682.415L1202.1 684.255M1207.82 682.415V647.539M1207.82 682.415L1219.25 683.509M1148.93 709.288L1155.22 707.211M1207.82 689.848L1209.75 690.016M1207.82 689.848L1202.76 691.517M1208.3 496.596V470.296L1219.82 463.228M1273.57 430.273L1268.42 433.429M1202.1 498.312V468.581L1273.57 423.984M1219.82 463.228V494.796M1219.82 463.228L1239.83 450.958M1219.82 494.796L1239.83 496.105M1239.83 496.105V450.958M1239.83 496.105L1243.84 496.367M1239.83 450.958L1243.84 448.503M1243.84 496.367V448.503M1243.84 496.367L1263.28 497.638M1243.84 448.503L1263.28 436.584M1263.28 497.638V436.584M1263.28 497.638L1268.42 497.975M1263.28 436.584L1268.42 433.429M1268.42 497.975V433.429M1202.1 684.255V644.108M1202.1 644.108L1273.57 616.664M1202.1 644.108L1207.82 647.539M1207.82 647.539L1219.25 643.263M1273.57 622.953L1268.71 624.77M1219.25 643.263V683.509M1219.25 643.263L1238.4 636.104M1219.25 683.509L1238.4 685.341M1238.4 636.104V685.341M1238.4 636.104L1243.26 634.284M1238.4 685.341L1243.26 685.806M1243.26 634.284V685.806M1243.26 634.284L1263.85 626.588M1243.26 685.806L1263.85 687.775M1263.85 626.588V687.775M1263.85 626.588L1268.71 624.77M1263.85 687.775L1273.57 688.705V695.566L1267.28 695.019M1268.71 624.77V687.775M1209.75 690.016L1215.82 690.544M1215.82 742.471V690.544M1215.82 742.471L1223.83 743.253M1215.82 690.544L1223.83 691.24M1223.83 743.253V691.24M1223.83 743.253L1231.26 743.978M1223.83 691.24L1231.26 691.886M1231.26 743.978V691.886M1231.26 743.978L1238.4 744.676M1231.26 691.886L1238.4 692.507M1238.4 744.676V692.507M1238.4 744.676L1246.12 745.43M1238.4 692.507L1246.12 693.179M1246.12 745.43V693.179M1246.12 745.43L1252.98 746.1M1246.12 693.179L1252.98 693.776M1252.98 746.1V693.776M1252.98 746.1L1260.42 746.826M1252.98 693.776L1260.42 694.422M1260.42 746.826V694.422M1260.42 746.826L1267.28 747.496M1260.42 694.422L1267.28 695.019M1267.28 747.496V695.019M1202.76 743.978V691.517M1202.76 743.978L1196.38 745.898M1202.76 691.517L1196.38 693.623M1196.38 745.898V693.623M1196.38 745.898L1188.84 748.167M1196.38 693.623L1188.84 696.112M1188.84 748.167V696.112M1188.84 748.167L1182.09 750.198M1188.84 696.112L1182.09 698.341M1182.09 750.198V698.341M1182.09 750.198L1174.65 752.434M1182.09 698.341L1174.65 700.795M1174.65 752.434V700.795M1174.65 752.434L1167.93 754.456M1174.65 700.795L1167.93 703.014M1167.93 754.456V703.014M1167.93 754.456L1161.5 756.389M1167.93 703.014L1161.5 705.135M1161.5 756.389V705.135M1161.5 756.389L1155.22 758.281M1161.5 705.135L1155.22 707.211M1155.22 758.281V707.211M1158.07 771.927V850.51L1165.51 845.364L1201.53 872.174M1391.35 1013.46L1220.05 885.958M1402.21 1013.46L1329.6 960.369M1227.83 885.958L1329.6 960.369M1220.05 885.958H1273M1220.05 885.958L1210.67 878.983M1210.67 878.983H1219.25M1210.67 878.983L1209.75 878.292M1273 878.983H1268.42M1219.25 878.983V811.059M1219.25 878.983H1238.69M1201.53 872.174V808.772M1201.53 872.174L1209.75 878.292M1201.53 808.772L1273 793.335M1201.53 808.772L1209.75 813.346M1209.75 813.346V878.292M1209.75 813.346L1238.69 807.328M1273 800.196L1268.42 801.147M1238.69 807.328V878.983M1238.69 807.328L1242.69 806.496M1238.69 878.983H1242.69M1242.69 878.983V806.496M1242.69 878.983H1263.85M1242.69 806.496L1263.85 802.098M1263.85 802.098V878.983M1263.85 802.098L1268.42 801.147M1263.85 878.983H1268.42M1268.42 878.983V801.147M1530.28 300.486L1426.22 356.518M1426.22 356.518V450.958M1426.22 356.518L1445.66 365.666M1530.28 417.695L1426.22 465.722V450.958M1426.22 450.958L1440.52 444.189M1530.28 401.686L1520.56 406.288M1440.52 444.189V363.379L1530.28 316.209M1440.52 444.189L1445.66 441.753M1445.66 365.666V441.753M1445.66 365.666L1479.51 348.513M1445.66 441.753L1479.51 425.726M1530.28 322.784L1520.56 327.71M1479.51 348.513V425.726M1479.51 348.513L1483.97 346.253M1479.51 425.726L1483.97 423.615M1483.97 346.253V423.615M1483.97 346.253L1516.74 329.645M1483.97 423.615L1516.74 408.097M1516.74 329.645V408.097M1516.74 329.645L1520.56 327.71M1516.74 408.097L1520.56 406.288M1520.56 327.71V406.288M1307.87 510.751V524.04L1375.91 494.309V396.538M1307.87 510.751V421.697L1375.91 381.675V396.538M1307.87 510.751L1317.48 506.318M1370.76 406.288L1375.91 396.538M1370.76 406.288L1349.04 418.714M1370.76 406.288V439.421M1317.48 506.318V430.273L1375.91 396.538M1317.48 506.318L1323.31 503.628M1323.31 503.628L1343.82 494.163M1323.31 503.628V472.011M1343.82 421.697L1323.31 433.429V465.722M1343.82 421.697V494.163M1343.82 421.697L1349.04 418.714M1343.82 494.163L1349.04 491.756M1349.04 418.714V491.756M1349.04 491.756L1370.76 481.731V446.282M1323.31 465.722L1370.76 439.421M1323.31 465.722V472.011M1370.76 439.421V446.282M1323.31 472.011L1370.76 446.282M1307.87 694.422V602.942L1375.91 578.357V685.806L1307.87 705.285V694.422ZM1307.87 694.422L1317.65 691.517M1317.65 691.517L1317.48 609.231L1371.34 592.079V601.227M1317.65 691.517L1323.31 689.833M1323.31 689.833L1344.46 683.543M1323.31 689.833V658.974M1371.34 601.227L1349.04 608.088M1371.34 601.227V636.104M1344.46 609.231V683.543M1344.46 683.543L1349.65 682.003M1349.04 608.088L1323.31 616.664V653.248M1349.04 608.088L1349.65 682.003M1349.65 682.003L1371.34 675.554V641.249M1323.31 653.248L1371.34 636.104M1323.31 653.248V658.974M1371.34 636.104V641.249M1323.31 658.974L1371.34 641.249M1426.22 559.489V656.115M1426.22 559.489L1530.28 520.61M1426.22 559.489L1446.24 570.924M1530.28 641.249L1426.22 669.265V656.115M1426.22 656.115L1439.95 652.043M1530.28 625.24L1521.14 627.954M1439.95 652.043V566.922L1530.28 533.76M1439.95 652.043L1446.24 650.177M1446.24 570.924V650.177M1446.24 570.924L1480.54 558.789M1446.24 650.177L1480.54 639.999M1530.28 541.193L1521.14 544.429M1480.54 558.789V639.999M1480.54 558.789L1485.03 557.202M1480.54 639.999L1485.03 638.668M1485.03 557.202V638.668M1485.03 557.202L1516.56 546.047M1485.03 638.668L1516.56 629.312M1516.56 546.047V629.312M1516.56 546.047L1521.14 544.429M1516.56 629.312L1521.14 627.954M1521.14 544.429V627.954M1307.87 875.667V783.615L1375.91 770.465V778.469M1307.87 875.667V888.817L1375.91 883.1V868.234M1307.87 875.667L1317.65 874.512M1370.76 868.234H1375.91M1370.76 868.234L1350.75 870.599M1370.76 868.234V834.446M1323.31 873.843L1317.65 874.512M1323.31 873.843L1345.04 871.275M1323.31 873.843L1323.08 841.934M1317.65 874.512V790.476L1375.91 778.469M1375.91 778.469V868.234M1345.04 871.275V790.803M1345.04 871.275L1350.75 870.599M1345.04 790.803L1322.74 795.05L1323.02 834.446M1345.04 790.803L1350.75 789.714M1350.75 870.599V789.714M1350.75 789.714L1370.76 785.902V827.068M1323.02 834.446L1370.76 827.068M1323.02 834.446L1323.08 841.934M1370.76 827.068V834.446M1323.08 841.934L1370.76 834.446M1427.94 760.745L1531.43 742.471M1427.94 760.745V861.945M1427.94 760.745L1440.52 770.465M1531.43 868.234L1427.94 878.292V861.945M1427.94 861.945L1440.52 860.764M1531.43 852.225L1521.71 853.138M1440.52 860.764V770.465M1440.52 860.764L1446.24 860.227M1440.52 770.465L1531.43 756.171M1446.24 860.227V775.611L1479.57 770.465M1446.24 860.227L1479.57 857.096M1531.43 762.46L1521.71 763.961M1479.57 770.465V857.096M1479.57 770.465L1484.54 769.697M1479.57 857.096L1484.54 856.629M1484.54 856.629V769.697M1484.54 856.629L1517.13 853.568M1484.54 769.697L1517.13 764.667M1517.13 764.667V853.568M1517.13 764.667L1521.71 763.961M1517.13 853.568L1521.71 853.138M1521.71 763.961V853.138M1329.6 960.369L1531.43 968.291" stroke="#666666" stroke-opacity="0.5" stroke-width="0.743276"/>
<path d="M610.623 931.984L614.911 941.99V1006.03L610.623 998.593M610.623 931.984L606.335 921.979V991.161L610.623 998.593M610.623 931.984V998.593M626.918 1013.46V980.297L632.063 991.161V1013.46M591.469 1013.46V1004.88L596.043 1013.46M632.063 944.277L625.774 937.988V883.1L632.063 892.82V944.277ZM619.485 919.692V869.378L614.911 860.23V905.97L619.485 919.692Z" stroke="#666666" stroke-opacity="0.5" stroke-width="0.743276"/>
</svg>
