<svg width="66" height="80" viewBox="0 0 66 80" fill="none" xmlns="http://www.w3.org/2000/svg">
<g clip-path="url(#clip0_2673_28470)">
<path d="M54.3041 42.4203C54.4164 54.5041 64.9048 58.5252 65.0208 58.5765C64.9319 58.8599 63.3449 64.3068 59.4952 69.933C56.1672 74.7972 52.713 79.6434 47.2717 79.7437C41.9257 79.8423 40.2063 76.5735 34.0938 76.5735C27.9831 76.5735 26.073 79.6434 21.0119 79.8423C15.7599 80.0411 11.7604 74.5826 8.40495 69.7361C1.54781 59.823 -3.69232 41.7234 3.34387 29.506C6.83924 23.4387 13.0861 19.597 19.866 19.4984C25.0234 19.4001 29.8914 22.9681 33.0442 22.9681C36.1949 22.9681 42.1106 18.6773 48.3295 19.3074C50.9327 19.4159 58.2409 20.3589 62.9335 27.2277C62.555 27.4621 54.2135 32.3182 54.3041 42.4206M44.2564 12.749C47.045 9.37372 48.9215 4.6753 48.4095 0C44.3902 0.161524 39.5303 2.67835 36.6472 6.05156C34.0636 9.03898 31.801 13.8202 32.4116 18.4028C36.8916 18.7495 41.4678 16.1262 44.2564 12.749Z" fill="black"/>
</g>
<defs>
<clipPath id="clip0_2673_28470">
<rect width="65.025" height="80" fill="white"/>
</clipPath>
</defs>
</svg>
