<svg width="36" height="37" viewBox="0 0 36 37" fill="none" xmlns="http://www.w3.org/2000/svg">
<mask id="path-1-inside-1_1106_32546" fill="white">
<path d="M0 0.818359H36V36.8184H0V0.818359Z"/>
</mask>
<path d="M36 0.818359H37.125V-0.306641H36V0.818359ZM36 36.8184V37.9434H37.125V36.8184H36ZM0 0.818359V1.94336H36V0.818359V-0.306641H0V0.818359ZM36 0.818359H34.875V36.8184H36H37.125V0.818359H36ZM36 36.8184V35.6934H0V36.8184V37.9434H36V36.8184Z" fill="#EBEBEB" mask="url(#path-1-inside-1_1106_32546)"/>
<path fill-rule="evenodd" clip-rule="evenodd" d="M9.5625 9.20215C8.63052 9.20215 7.875 9.95766 7.875 10.8896V27.7646C7.875 28.6966 8.63052 29.4521 9.5625 29.4521H26.4375C27.3694 29.4521 28.125 28.6966 28.125 27.7646V10.8896C28.125 9.95766 27.3694 9.20215 26.4375 9.20215H9.5625ZM14.0859 13.7052C14.0922 14.781 13.2869 15.4439 12.3314 15.4391C11.4312 15.4344 10.6465 14.7177 10.6513 13.7068C10.656 12.756 11.4075 11.9919 12.3836 12.014C13.3739 12.0362 14.0922 12.7623 14.0859 13.7052ZM18.3147 16.8091H15.4797H15.4781V26.4389H18.4744V26.2143C18.4744 25.7869 18.4741 25.3594 18.4737 24.9318C18.4728 23.7913 18.4718 22.6495 18.4777 21.5093C18.4792 21.2324 18.4918 20.9446 18.5631 20.6803C18.8304 19.6931 19.718 19.0556 20.7083 19.2123C21.3443 19.3118 21.765 19.6805 21.9422 20.2801C22.0515 20.655 22.1005 21.0584 22.1052 21.4492C22.1181 22.6278 22.1163 23.8063 22.1145 24.985C22.1138 25.401 22.1131 25.8173 22.1131 26.2333V26.4374H25.119V26.2064C25.119 25.6979 25.1188 25.1895 25.1184 24.6811C25.1179 23.4104 25.1172 22.1398 25.1206 20.8686C25.1221 20.2943 25.0605 19.728 24.9196 19.1727C24.7093 18.3468 24.2742 17.6634 23.5671 17.1698C23.0655 16.8186 22.515 16.5924 21.8996 16.5671C21.8295 16.5642 21.7588 16.5603 21.6879 16.5565C21.3732 16.5395 21.0534 16.5222 20.7525 16.5829C19.8919 16.7553 19.1358 17.1493 18.5646 17.8437C18.4983 17.9234 18.4333 18.0043 18.3365 18.125L18.3147 18.1523V16.8091ZM10.8918 26.4421H13.874V16.8154H10.8918V26.4421Z" fill="#939290"/>
</svg>
