<svg width="32" height="32" viewBox="0 0 32 32" fill="none" xmlns="http://www.w3.org/2000/svg">
<path d="M17.6364 27.3395C17.2727 27.4211 16.9543 27.3448 16.6812 27.1105C16.4081 26.8762 16.2719 26.5546 16.2727 26.1457C16.2727 25.86 16.3689 25.5996 16.5612 25.3645C16.7535 25.1294 16.9907 24.9715 17.2727 24.8907C17.7778 24.7682 18.2679 24.6103 18.743 24.4168C19.2182 24.2234 19.6776 23.9834 20.1212 23.6969C20.3838 23.5336 20.6719 23.4675 20.9855 23.4985C21.299 23.5296 21.5564 23.6467 21.7576 23.8499C22.0404 24.1356 22.1669 24.4621 22.137 24.8295C22.1071 25.1968 21.9301 25.4825 21.6061 25.6865C20.9798 26.0947 20.3382 26.4314 19.6812 26.6967C19.0242 26.9619 18.3426 27.1762 17.6364 27.3395ZM23.4848 22.1052C23.2828 21.9011 23.1665 21.646 23.1358 21.34C23.1051 21.0339 23.1709 20.7584 23.3333 20.5135C23.596 20.0645 23.8283 19.6054 24.0303 19.1361C24.2323 18.6667 24.3939 18.1667 24.5152 17.6362C24.596 17.3505 24.7576 17.1056 25 16.9015C25.2424 16.6975 25.5051 16.5954 25.7879 16.5954C26.1919 16.5954 26.5099 16.7383 26.7418 17.024C26.9737 17.3097 27.0396 17.6362 26.9394 18.0035C26.7778 18.7381 26.5604 19.4373 26.2873 20.1009C26.0141 20.7645 25.676 21.3918 25.2727 21.9828C25.0707 22.2889 24.7931 22.4574 24.44 22.4884C24.0869 22.5194 23.7685 22.3917 23.4848 22.1052ZM25.7576 14.1467C25.4747 14.1467 25.217 14.0446 24.9842 13.8406C24.7515 13.6365 24.5952 13.3916 24.5152 13.1059C24.3939 12.5754 24.2323 12.0705 24.0303 11.5914C23.8283 11.1122 23.596 10.658 23.3333 10.2286C23.1717 9.98374 23.1063 9.70825 23.137 9.40216C23.1677 9.09606 23.2836 8.84098 23.4848 8.63691C23.7677 8.35122 24.0861 8.21858 24.44 8.23899C24.7939 8.25939 25.0715 8.42265 25.2727 8.72874C25.6768 9.32053 26.0202 9.95844 26.303 10.6425C26.5859 11.3265 26.8081 12.0252 26.9697 12.7386C27.0505 13.1059 26.9697 13.4324 26.7273 13.7181C26.4848 14.0038 26.1616 14.1467 25.7576 14.1467ZM12.5152 27.3088C9.74747 26.6558 7.4699 25.2274 5.68242 23.0235C3.89495 20.8196 3.00081 18.2688 3 15.3711C3 12.4529 3.88889 9.88171 5.66667 7.6574C7.44445 5.43309 9.71717 4.01484 12.4848 3.40265C12.8485 3.32102 13.1669 3.39775 13.44 3.63284C13.7131 3.86792 13.8493 4.17891 13.8485 4.56582C13.8485 4.85151 13.7523 5.1119 13.56 5.34698C13.3677 5.58206 13.1305 5.74001 12.8485 5.82082C10.6869 6.35139 8.90909 7.50435 7.51515 9.27972C6.12121 11.0551 5.42424 13.0855 5.42424 15.3711C5.42424 17.6566 6.12121 19.6719 7.51515 21.4171C8.90909 23.1622 10.6869 24.3201 12.8485 24.8907C13.1313 24.9723 13.3689 25.1356 13.5612 25.3804C13.7535 25.6253 13.8493 25.8906 13.8485 26.1763C13.8485 26.564 13.7172 26.8701 13.4545 27.0946C13.1919 27.3191 12.8788 27.3905 12.5152 27.3088ZM20.2121 7.07582C19.7475 6.79013 19.2727 6.53994 18.7879 6.32527C18.303 6.11059 17.8081 5.94244 17.303 5.82082C17.0202 5.73919 16.7778 5.58125 16.5758 5.34698C16.3737 5.11271 16.2727 4.85233 16.2727 4.56582C16.2727 4.1781 16.4093 3.8671 16.6824 3.63284C16.9556 3.39857 17.2735 3.32184 17.6364 3.40265C18.3434 3.5659 19.0303 3.78017 19.697 4.04545C20.3636 4.31074 21.0101 4.64745 21.6364 5.05558C21.9596 5.25964 22.1366 5.54533 22.1673 5.91265C22.198 6.27996 22.0715 6.60647 21.7879 6.89216C21.5859 7.09622 21.3386 7.21866 21.0461 7.25948C20.7535 7.30029 20.4756 7.23907 20.2121 7.07582ZM15.0909 21.0645C14.9293 21.0645 14.7729 21.0392 14.6218 20.9886C14.4707 20.9379 14.3442 20.8612 14.2424 20.7584C12.9091 19.5136 11.9091 18.3504 11.2424 17.2689C10.5758 16.1873 10.2424 15.1874 10.2424 14.2691C10.2424 12.8407 10.7022 11.6469 11.6218 10.6878C12.5414 9.72866 13.6978 9.24911 15.0909 9.24911C16.484 9.24911 17.6408 9.72866 18.5612 10.6878C19.4816 11.6469 19.941 12.8407 19.9394 14.2691C19.9394 15.1874 19.6061 16.1873 18.9394 17.2689C18.2727 18.3504 17.2727 19.5136 15.9394 20.7584C15.8384 20.8604 15.7123 20.9371 15.5612 20.9886C15.4101 21.04 15.2533 21.0653 15.0909 21.0645ZM15.0909 15.3711C15.4545 15.3711 15.7628 15.2437 16.0158 14.989C16.2687 14.7344 16.3947 14.423 16.3939 14.0548C16.3931 13.6867 16.2671 13.3753 16.0158 13.1206C15.7644 12.866 15.4562 12.7386 15.0909 12.7386C14.7257 12.7386 14.4178 12.8664 14.1673 13.1219C13.9168 13.3773 13.7903 13.6883 13.7879 14.0548C13.7855 14.4213 13.9119 14.7327 14.1673 14.989C14.4226 15.2453 14.7305 15.3727 15.0909 15.3711Z" fill="#939290"/>
</svg>
