<svg width="181" height="42" viewBox="0 0 181 42" fill="none" xmlns="http://www.w3.org/2000/svg">
<g clip-path="url(#clip0_1106_38360)">
<path d="M14.4874 21.7286L1.4026 14.3669C1.56219 14.1924 2.08294 13.9286 2.52126 13.6833L13.3502 7.62242C13.7653 7.39014 13.9728 7.274 14.1925 7.22847C14.387 7.18817 14.5876 7.18817 14.7821 7.22847C15.0019 7.274 15.2094 7.39014 15.6244 7.62242L21.0389 10.6528L26.4534 13.6833C26.8917 13.9286 27.1109 14.0513 27.2705 14.2257C27.4116 14.3801 27.5185 14.563 27.5838 14.7623C27.6577 14.9875 27.6577 15.2401 27.6577 15.7453L27.6577 27.712C27.6577 28.2171 27.6577 28.4697 27.5838 28.695C27.5185 28.8943 27.4116 29.0772 27.2705 29.2315C27.1109 29.406 26.8917 29.5286 26.4534 29.774L15.6244 35.8348C15.2094 36.0671 15.0019 36.1832 14.7821 36.2288C14.5876 36.2691 14.6818 36.2691 14.4873 36.2288L14.4874 21.7286Z" fill="#1570EF"/>
<path d="M14.4874 21.7286L1.4026 14.3669C1.56219 14.1924 2.08294 13.9286 2.52126 13.6833L13.3502 7.62242C13.7653 7.39014 13.9728 7.274 14.1925 7.22847C14.387 7.18817 14.5876 7.18817 14.7821 7.22847C15.0019 7.274 15.2094 7.39014 15.6244 7.62242L21.0389 10.6528L26.4534 13.6833C26.8917 13.9286 27.1109 14.0513 27.2705 14.2257C27.4116 14.3801 27.5185 14.563 27.5838 14.7623C27.6577 14.9875 27.6577 15.2401 27.6577 15.7453L27.6577 27.712C27.6577 28.2171 27.6577 28.4697 27.5838 28.695C27.5185 28.8943 27.4116 29.0772 27.2705 29.2315C27.1109 29.406 26.8917 29.5286 26.4534 29.774L15.6244 35.8348C15.2094 36.0671 15.0019 36.1832 14.7821 36.2288C14.5876 36.2691 14.6818 36.2691 14.4873 36.2288L14.4874 21.7286ZM14.4874 21.7286L26.9261 14.7668" stroke="#1570EF" stroke-width="1.0158" stroke-linecap="round" stroke-linejoin="round"/>
<path d="M13.8229 13.7927C14.0559 13.6632 14.1724 13.5985 14.2958 13.5731C14.405 13.5507 14.5176 13.5507 14.6269 13.5731C14.7502 13.5985 14.8668 13.6632 15.0998 13.7927L21.1801 17.1706C21.4262 17.3073 21.5492 17.3757 21.6388 17.4729C21.7181 17.559 21.7781 17.6609 21.8148 17.772C21.8563 17.8975 21.8563 18.0383 21.8563 18.3198V24.9893C21.8563 25.2708 21.8563 25.4116 21.8148 25.5372C21.7781 25.6482 21.7181 25.7502 21.6388 25.8362C21.5492 25.9334 21.4262 26.0018 21.1801 26.1385L15.0998 29.5165C14.8668 29.6459 14.7502 29.7106 14.6269 29.736C14.5176 29.7585 14.405 29.7585 14.2958 29.736C14.1724 29.7106 14.0559 29.6459 13.8229 29.5165L7.74261 26.1385C7.4965 26.0018 7.37345 25.9334 7.28384 25.8362C7.20457 25.7502 7.14458 25.6482 7.10789 25.5372C7.06641 25.4116 7.06641 25.2708 7.06641 24.9893V18.3198C7.06641 18.0383 7.06641 17.8975 7.10789 17.772C7.14458 17.6609 7.20457 17.559 7.28384 17.4729C7.37345 17.3757 7.4965 17.3073 7.74261 17.1706L13.8229 13.7927Z" fill="#1570EF"/>
<path d="M21.4454 17.7745L14.4613 21.6545M14.4613 21.6545L7.47721 17.7745M14.4613 21.6545L14.4613 29.4603M21.8563 24.9893V18.3198C21.8563 18.0383 21.8563 17.8975 21.8148 17.772C21.7781 17.6609 21.7181 17.559 21.6388 17.4729C21.5492 17.3757 21.4262 17.3073 21.1801 17.1706L15.0998 13.7927C14.8668 13.6632 14.7502 13.5985 14.6269 13.5731C14.5176 13.5507 14.405 13.5507 14.2958 13.5731C14.1724 13.5985 14.0559 13.6632 13.8229 13.7927L7.74261 17.1706C7.4965 17.3073 7.37345 17.3757 7.28384 17.4729C7.20457 17.559 7.14458 17.6609 7.10789 17.772C7.06641 17.8975 7.06641 18.0383 7.06641 18.3198V24.9893C7.06641 25.2708 7.06641 25.4116 7.10789 25.5372C7.14458 25.6482 7.20457 25.7502 7.28384 25.8362C7.37345 25.9334 7.4965 26.0018 7.74261 26.1385L13.8229 29.5165C14.0559 29.6459 14.1724 29.7106 14.2958 29.736C14.405 29.7585 14.5176 29.7585 14.6269 29.736C14.7502 29.7106 14.8668 29.6459 15.0998 29.5165L21.1801 26.1385C21.4262 26.0018 21.5492 25.9334 21.6388 25.8362C21.7181 25.7502 21.7781 25.6482 21.8148 25.5372C21.8563 25.4116 21.8563 25.2708 21.8563 24.9893Z" stroke="#1570EF" stroke-width="0.76185" stroke-linecap="round" stroke-linejoin="round"/>
<mask id="mask0_1106_38360" style="mask-type:alpha" maskUnits="userSpaceOnUse" x="7" y="13" width="15" height="17">
<path d="M13.8769 14.4821C14.0895 14.3639 14.1958 14.3049 14.3084 14.2817C14.408 14.2612 14.5108 14.2612 14.6104 14.2817C14.723 14.3049 14.8293 14.3639 15.0419 14.4821L20.5894 17.564C20.814 17.6888 20.9262 17.7511 21.008 17.8398C21.0803 17.9183 21.135 18.0113 21.1685 18.1127C21.2064 18.2272 21.2064 18.3557 21.2064 18.6125V24.6976C21.2064 24.9545 21.2064 25.0829 21.1685 25.1975C21.135 25.2988 21.0803 25.3918 21.008 25.4703C20.9262 25.559 20.814 25.6214 20.5894 25.7462L15.0419 28.8281C14.8293 28.9462 14.723 29.0053 14.6104 29.0284C14.5108 29.0489 14.408 29.0489 14.3084 29.0284C14.1958 29.0053 14.0895 28.9462 13.8769 28.8281L8.32936 25.7462C8.10481 25.6214 7.99254 25.559 7.91079 25.4703C7.83846 25.3918 7.78373 25.2988 7.75025 25.1975C7.7124 25.0829 7.7124 24.9545 7.7124 24.6976V18.6125C7.7124 18.3557 7.7124 18.2272 7.75025 18.1127C7.78373 18.0113 7.83846 17.9183 7.91079 17.8398C7.99254 17.7511 8.10481 17.6888 8.32935 17.564L13.8769 14.4821Z" fill="#1570EF"/>
<path d="M20.8315 18.115L14.4594 21.6551M14.4594 21.6551L8.08721 18.115M14.4594 21.6551L14.4594 28.7769M21.2064 24.6976V18.6125C21.2064 18.3557 21.2064 18.2272 21.1685 18.1127C21.135 18.0113 21.0803 17.9183 21.008 17.8398C20.9262 17.7511 20.814 17.6888 20.5894 17.564L15.0419 14.4821C14.8293 14.3639 14.723 14.3049 14.6104 14.2817C14.5108 14.2612 14.408 14.2612 14.3084 14.2817C14.1958 14.3049 14.0895 14.3639 13.8769 14.4821L8.32935 17.564C8.10481 17.6888 7.99254 17.7511 7.91079 17.8398C7.83846 17.9183 7.78373 18.0113 7.75025 18.1127C7.7124 18.2272 7.7124 18.3557 7.7124 18.6125V24.6976C7.7124 24.9545 7.7124 25.0829 7.75025 25.1975C7.78373 25.2988 7.83846 25.3918 7.91079 25.4703C7.99254 25.559 8.10481 25.6214 8.32936 25.7462L13.8769 28.8281C14.0895 28.9462 14.1958 29.0053 14.3084 29.0284C14.408 29.0489 14.5108 29.0489 14.6104 29.0284C14.723 29.0053 14.8293 28.9462 15.0419 28.8281L20.5894 25.7462C20.814 25.6214 20.9262 25.559 21.008 25.4703C21.0803 25.3918 21.135 25.2988 21.1685 25.1975C21.2064 25.0829 21.2064 24.9545 21.2064 24.6976Z" stroke="#1570EF" stroke-width="0.606934" stroke-linecap="round" stroke-linejoin="round"/>
</mask>
<g mask="url(#mask0_1106_38360)">
<path d="M13.8769 14.4821C14.0895 14.3639 14.1958 14.3049 14.3084 14.2817C14.408 14.2612 14.5108 14.2612 14.6104 14.2817C14.723 14.3049 14.8293 14.3639 15.0419 14.4821L20.5894 17.564C20.814 17.6888 20.9262 17.7511 21.008 17.8398C21.0803 17.9183 21.135 18.0113 21.1685 18.1127C21.2064 18.2272 21.2064 18.3557 21.2064 18.6125V24.6976C21.2064 24.9545 21.2064 25.0829 21.1685 25.1975C21.135 25.2988 21.0803 25.3918 21.008 25.4703C20.9262 25.559 20.814 25.6214 20.5894 25.7462L15.0419 28.8281C14.8293 28.9462 14.723 29.0053 14.6104 29.0284C14.5108 29.0489 14.408 29.0489 14.3084 29.0284C14.1958 29.0053 14.0895 28.9462 13.8769 28.8281L8.32936 25.7462C8.10481 25.6214 7.99254 25.559 7.91079 25.4703C7.83846 25.3918 7.78373 25.2988 7.75025 25.1975C7.7124 25.0829 7.7124 24.9545 7.7124 24.6976V18.6125C7.7124 18.3557 7.7124 18.2272 7.75025 18.1127C7.78373 18.0113 7.83846 17.9183 7.91079 17.8398C7.99254 17.7511 8.10481 17.6888 8.32935 17.564L13.8769 14.4821Z" fill="#1570EF"/>
<path d="M20.8315 18.115L14.4594 21.6551M14.4594 21.6551L8.08721 18.115M14.4594 21.6551L14.4594 28.7769M21.2064 24.6976V18.6125C21.2064 18.3557 21.2064 18.2272 21.1685 18.1127C21.135 18.0113 21.0803 17.9183 21.008 17.8398C20.9262 17.7511 20.814 17.6888 20.5894 17.564L15.0419 14.4821C14.8293 14.3639 14.723 14.3049 14.6104 14.2817C14.5108 14.2612 14.408 14.2612 14.3084 14.2817C14.1958 14.3049 14.0895 14.3639 13.8769 14.4821L8.32935 17.564C8.10481 17.6888 7.99254 17.7511 7.91079 17.8398C7.83846 17.9183 7.78373 18.0113 7.75025 18.1127C7.7124 18.2272 7.7124 18.3557 7.7124 18.6125V24.6976C7.7124 24.9545 7.7124 25.0829 7.75025 25.1975C7.78373 25.2988 7.83846 25.3918 7.91079 25.4703C7.99254 25.559 8.10481 25.6214 8.32936 25.7462L13.8769 28.8281C14.0895 28.9462 14.1958 29.0053 14.3084 29.0284C14.408 29.0489 14.5108 29.0489 14.6104 29.0284C14.723 29.0053 14.8293 28.9462 15.0419 28.8281L20.5894 25.7462C20.814 25.6214 20.9262 25.559 21.008 25.4703C21.0803 25.3918 21.135 25.2988 21.1685 25.1975C21.2064 25.0829 21.2064 24.9545 21.2064 24.6976Z" stroke="#1570EF" stroke-width="0.606934" stroke-linecap="round" stroke-linejoin="round"/>
<path d="M14.7621 13.5446L7.01318 17.5725L14.3714 21.4929L22.1197 17.4657L14.7621 13.5446Z" fill="white"/>
<path d="M14.5187 21.3861L14.5186 29.3042L21.9109 25.5174L21.9109 17.564L14.5187 21.3861Z" fill="#84CAFF"/>
<path d="M14.6274 21.5466L14.6274 29.2136C14.6274 29.5804 14.2343 29.8131 13.9127 29.6366L7.26271 25.9868C7.10831 25.9021 7.01235 25.7399 7.01235 25.5638L7.01241 18.0537C7.01241 17.6908 7.39799 17.4578 7.71928 17.6266L14.3692 21.1194C14.528 21.2028 14.6274 21.3673 14.6274 21.5466Z" fill="#1570EF"/>
</g>
<path d="M47.3704 32.3073C46.1558 32.3073 45.0509 32 44.0558 31.3854C43.0608 30.7561 42.2632 29.922 41.6632 28.883C41.0779 27.8294 40.7852 26.6733 40.7852 25.4149C40.7852 24.1564 41.0779 23.0076 41.6632 21.9686C42.2632 20.915 43.0608 20.0809 44.0558 19.4663C45.0509 18.837 46.1558 18.5224 47.3704 18.5224C48.1167 18.5224 48.8045 18.6395 49.4337 18.8736C50.0776 19.1077 50.6556 19.4297 51.1678 19.8394V10.9275H54.614V32H51.6068V30.5952C51.0946 31.122 50.4727 31.539 49.741 31.8463C49.0093 32.1537 48.2191 32.3073 47.3704 32.3073ZM47.7655 29.2562C48.4679 29.2562 49.0971 29.0806 49.6532 28.7294C50.2239 28.3782 50.6776 27.9172 51.0142 27.3465C51.3507 26.7611 51.519 26.1173 51.519 25.4149C51.519 24.7124 51.3507 24.0759 51.0142 23.5052C50.6776 22.9198 50.2239 22.4515 49.6532 22.1003C49.0971 21.7491 48.4752 21.5735 47.7874 21.5735C47.085 21.5735 46.4485 21.7491 45.8777 22.1003C45.3217 22.4515 44.8753 22.9198 44.5388 23.5052C44.2022 24.0759 44.0339 24.7124 44.0339 25.4149C44.0339 26.1173 44.2022 26.7611 44.5388 27.3465C44.8753 27.9172 45.3217 28.3782 45.8777 28.7294C46.4485 29.0806 47.0777 29.2562 47.7655 29.2562ZM64.2133 32.3951C62.9109 32.3951 61.7182 32.0805 60.6353 31.4512C59.5671 30.822 58.7183 29.9806 58.0891 28.9269C57.4598 27.8733 57.1452 26.7026 57.1452 25.4149C57.1452 24.1271 57.4598 22.9564 58.0891 21.9028C58.7183 20.8492 59.5671 20.0077 60.6353 19.3785C61.7182 18.7492 62.9035 18.4346 64.1913 18.4346C65.5083 18.4346 66.701 18.7492 67.7692 19.3785C68.8375 20.0077 69.6862 20.8492 70.3155 21.9028C70.9594 22.9418 71.2813 24.1125 71.2813 25.4149C71.2813 26.688 70.9594 27.8587 70.3155 28.9269C69.6862 29.9806 68.8375 30.822 67.7692 31.4512C66.701 32.0805 65.5157 32.3951 64.2133 32.3951ZM64.1913 29.2781C64.9084 29.2781 65.5522 29.1025 66.123 28.7513C66.6937 28.4001 67.1473 27.9318 67.4839 27.3465C67.8205 26.7611 67.9887 26.1173 67.9887 25.4149C67.9887 24.6978 67.8205 24.0539 67.4839 23.4832C67.1473 22.8979 66.6937 22.4296 66.123 22.0784C65.5522 21.7272 64.9084 21.5516 64.1913 21.5516C63.4889 21.5516 62.8523 21.7272 62.2816 22.0784C61.7109 22.4296 61.2573 22.8979 60.9207 23.4832C60.5841 24.0539 60.4158 24.6978 60.4158 25.4149C60.4158 26.1173 60.5841 26.7611 60.9207 27.3465C61.2573 27.9318 61.7109 28.4001 62.2816 28.7513C62.8523 29.1025 63.4889 29.2781 64.1913 29.2781ZM80.1411 32.3951C78.8387 32.3951 77.646 32.0805 76.5632 31.4512C75.4949 30.822 74.6461 29.9806 74.0169 28.9269C73.3876 27.8733 73.073 26.7026 73.073 25.4149C73.073 24.1271 73.3876 22.9564 74.0169 21.9028C74.6461 20.8492 75.4949 20.0077 76.5632 19.3785C77.646 18.7492 78.8314 18.4346 80.1191 18.4346C81.4362 18.4346 82.6288 18.7492 83.6971 19.3785C84.7653 20.0077 85.6141 20.8492 86.2433 21.9028C86.8872 22.9418 87.2091 24.1125 87.2091 25.4149C87.2091 26.688 86.8872 27.8587 86.2433 28.9269C85.6141 29.9806 84.7653 30.822 83.6971 31.4512C82.6288 32.0805 81.4435 32.3951 80.1411 32.3951ZM80.1191 29.2781C80.8362 29.2781 81.4801 29.1025 82.0508 28.7513C82.6215 28.4001 83.0751 27.9318 83.4117 27.3465C83.7483 26.7611 83.9166 26.1173 83.9166 25.4149C83.9166 24.6978 83.7483 24.0539 83.4117 23.4832C83.0751 22.8979 82.6215 22.4296 82.0508 22.0784C81.4801 21.7272 80.8362 21.5516 80.1191 21.5516C79.4167 21.5516 78.7802 21.7272 78.2094 22.0784C77.6387 22.4296 77.1851 22.8979 76.8485 23.4832C76.5119 24.0539 76.3436 24.6978 76.3436 25.4149C76.3436 26.1173 76.5119 26.7611 76.8485 27.3465C77.1851 27.9318 77.6387 28.4001 78.2094 28.7513C78.7802 29.1025 79.4167 29.2781 80.1191 29.2781ZM89.7252 32V18.8297H92.8202V21.1345C93.2885 20.3736 93.8739 19.7809 94.5763 19.3565C95.2933 18.9175 96.1421 18.698 97.1225 18.698L97.8908 21.815C97.6128 21.7272 97.2981 21.6833 96.9469 21.6833C95.8055 21.6833 94.8909 22.0491 94.2031 22.7808C93.5153 23.5125 93.1714 24.5515 93.1714 25.8978V32H89.7252ZM103.84 32.3951C103.006 32.3951 102.15 32.2561 101.272 31.978C100.394 31.6854 99.6914 31.2756 99.1646 30.7488L100.043 27.4123C100.467 28.027 101.038 28.5538 101.755 28.9928C102.486 29.4172 103.24 29.6293 104.016 29.6293C104.601 29.6293 105.025 29.5123 105.289 29.2781C105.567 29.0294 105.706 28.7294 105.706 28.3782C105.706 27.9831 105.567 27.6977 105.289 27.5221C105.011 27.3319 104.733 27.1855 104.455 27.0831L102.633 26.4026C102.252 26.2417 101.806 26.0295 101.294 25.7661C100.782 25.488 100.335 25.1002 99.9548 24.6027C99.589 24.0905 99.4061 23.4247 99.4061 22.6052C99.4061 21.8589 99.589 21.1711 99.9548 20.5418C100.321 19.9126 100.847 19.4077 101.535 19.0273C102.238 18.6322 103.079 18.4346 104.06 18.4346C104.938 18.4346 105.772 18.5882 106.562 18.8956C107.367 19.1882 107.974 19.5541 108.384 19.9931L107.572 23.2418C107.103 22.5979 106.54 22.1003 105.881 21.7491C105.223 21.3833 104.586 21.2004 103.972 21.2004C103.46 21.2004 103.079 21.3174 102.83 21.5516C102.582 21.7711 102.457 22.0345 102.457 22.3418C102.457 22.5759 102.545 22.7954 102.721 23.0003C102.896 23.2052 103.182 23.3808 103.577 23.5271L105.289 24.1856C105.742 24.3466 106.24 24.5734 106.781 24.8661C107.323 25.1441 107.784 25.5392 108.164 26.0514C108.559 26.5636 108.757 27.266 108.757 28.1587C108.757 29.4172 108.296 30.4415 107.374 31.2317C106.467 32.0073 105.289 32.3951 103.84 32.3951ZM112.808 32V21.5955H110.217V18.8297H112.873V14.4396H116.188V18.8297H118.954V21.5955H116.254V32H112.808ZM127.173 32.3951C125.725 32.3951 124.437 32.0878 123.31 31.4732C122.198 30.8586 121.327 30.0171 120.698 28.9489C120.083 27.866 119.776 26.6441 119.776 25.2831C119.776 23.9808 120.076 22.8174 120.676 21.793C121.291 20.754 122.118 19.9345 123.156 19.3346C124.195 18.7346 125.344 18.4346 126.603 18.4346C127.89 18.4346 129.039 18.7346 130.049 19.3346C131.073 19.9199 131.885 20.7174 132.485 21.7272C133.085 22.7369 133.385 23.8856 133.385 25.1734V26.4246H125.198C124.832 26.4246 124.474 26.4026 124.122 26.3587C123.771 26.3148 123.42 26.2636 123.069 26.2051C123.244 27.1563 123.705 27.9392 124.452 28.5538C125.198 29.1684 126.134 29.4757 127.261 29.4757C128.095 29.4757 128.849 29.3001 129.522 28.9489C130.195 28.5977 130.751 28.1587 131.19 27.6319L131.981 30.8586C131.322 31.3708 130.583 31.7512 129.764 32C128.944 32.2634 128.081 32.3951 127.173 32.3951ZM122.981 24.0759C123.727 23.9295 124.466 23.8564 125.198 23.8564H128.03C128.425 23.8564 128.798 23.871 129.149 23.9003C129.5 23.9295 129.837 23.9734 130.159 24.032C129.939 23.1832 129.508 22.5028 128.864 21.9906C128.234 21.4784 127.473 21.2223 126.581 21.2223C125.703 21.2223 124.942 21.4857 124.298 22.0125C123.654 22.5393 123.215 23.2271 122.981 24.0759ZM135.749 38.5851V18.8297H138.756V20.2345C139.283 19.7077 139.905 19.2907 140.622 18.9834C141.354 18.6761 142.144 18.5224 142.993 18.5224C144.222 18.5224 145.334 18.837 146.329 19.4663C147.324 20.0809 148.115 20.9077 148.7 21.9467C149.3 22.9857 149.6 24.1417 149.6 25.4149C149.6 26.6733 149.3 27.8294 148.7 28.883C148.115 29.922 147.324 30.7561 146.329 31.3854C145.334 32 144.222 32.3073 142.993 32.3073C142.247 32.3073 141.551 32.1902 140.908 31.9561C140.278 31.722 139.708 31.4 139.195 30.9903V38.5851H135.749ZM142.576 29.2562C143.278 29.2562 143.907 29.0806 144.464 28.7294C145.034 28.3782 145.488 27.9172 145.824 27.3465C146.161 26.7611 146.329 26.1173 146.329 25.4149C146.329 24.7124 146.161 24.0759 145.824 23.5052C145.488 22.9198 145.034 22.4515 144.464 22.1003C143.907 21.7491 143.286 21.5735 142.598 21.5735C141.895 21.5735 141.259 21.7491 140.688 22.1003C140.132 22.4515 139.686 22.9198 139.349 23.5052C139.013 24.0759 138.844 24.7124 138.844 25.4149C138.844 26.1173 139.013 26.7611 139.349 27.3465C139.686 27.9172 140.132 28.3782 140.688 28.7294C141.259 29.0806 141.888 29.2562 142.576 29.2562ZM153.69 32.3951C153.06 32.3951 152.534 32.1829 152.109 31.7585C151.699 31.3342 151.495 30.8074 151.495 30.1781C151.495 29.5635 151.707 29.044 152.131 28.6196C152.556 28.1952 153.075 27.9831 153.69 27.9831C154.334 27.9831 154.86 28.1952 155.27 28.6196C155.694 29.044 155.907 29.5708 155.907 30.2001C155.907 30.8147 155.694 31.3342 155.27 31.7585C154.86 32.1829 154.334 32.3951 153.69 32.3951ZM164.369 32.3073C163.169 32.3073 162.071 32 161.076 31.3854C160.081 30.7561 159.283 29.922 158.683 28.883C158.098 27.8294 157.805 26.6733 157.805 25.4149C157.805 24.1564 158.098 23.0076 158.683 21.9686C159.283 20.915 160.081 20.0809 161.076 19.4663C162.071 18.837 163.169 18.5224 164.369 18.5224C165.232 18.5224 166.029 18.6761 166.761 18.9834C167.493 19.2907 168.115 19.7224 168.627 20.2784V18.8297H171.634V32H168.627V30.5513C168.115 31.0927 167.493 31.5244 166.761 31.8463C166.029 32.1537 165.232 32.3073 164.369 32.3073ZM164.786 29.2562C165.488 29.2562 166.117 29.0806 166.673 28.7294C167.244 28.3782 167.698 27.9172 168.034 27.3465C168.371 26.7611 168.539 26.1173 168.539 25.4149C168.539 24.7124 168.371 24.0759 168.034 23.5052C167.698 22.9198 167.244 22.4515 166.673 22.1003C166.117 21.7491 165.495 21.5735 164.808 21.5735C164.105 21.5735 163.469 21.7491 162.898 22.1003C162.342 22.4515 161.895 22.9198 161.559 23.5052C161.222 24.0759 161.054 24.7124 161.054 25.4149C161.054 26.1173 161.222 26.7611 161.559 27.3465C161.895 27.9172 162.342 28.3782 162.898 28.7294C163.469 29.0806 164.098 29.2562 164.786 29.2562ZM174.912 32V18.8297H178.358V32H174.912ZM176.646 16.8103C176.104 16.8103 175.643 16.6273 175.263 16.2615C174.897 15.881 174.714 15.4201 174.714 14.8786C174.714 14.3225 174.897 13.8616 175.263 13.4957C175.643 13.1299 176.104 12.947 176.646 12.947C177.202 12.947 177.663 13.1299 178.029 13.4957C178.394 13.8616 178.577 14.3225 178.577 14.8786C178.577 15.4201 178.394 15.881 178.029 16.2615C177.663 16.6273 177.202 16.8103 176.646 16.8103Z" fill="#1570EF"/>
</g>
<defs>
<clipPath id="clip0_1106_38360">
<rect width="180.885" height="42" fill="white"/>
</clipPath>
</defs>
</svg>
