<svg width="37" height="37" viewBox="0 0 37 37" fill="none" xmlns="http://www.w3.org/2000/svg">
<g clip-path="url(#clip0_1371_20364)">
<path d="M18.4454 18.5L1.78592 9.12711C1.9891 8.90499 2.65213 8.56907 3.21019 8.25673L16.9976 0.540066C17.526 0.244326 17.7902 0.0964559 18.07 0.0384833C18.3177 -0.0128258 18.5731 -0.0128258 18.8207 0.0384832C19.1005 0.0964558 19.3647 0.244326 19.8931 0.540067L26.7868 4.3984L33.6805 8.25673C34.2386 8.56907 34.5176 8.72524 34.7208 8.94736C34.9006 9.14387 35.0366 9.37677 35.1198 9.6305C35.2139 9.91731 35.2139 10.2389 35.2139 10.882L35.2139 26.118C35.2139 26.7612 35.2139 27.0828 35.1198 27.3696C35.0366 27.6233 34.9006 27.8562 34.7208 28.0527C34.5176 28.2748 34.2386 28.431 33.6805 28.7434L19.8931 36.46C19.3647 36.7558 19.1005 36.9036 18.8207 36.9616C18.5731 37.0129 18.693 37.0129 18.4454 36.9616L18.4454 18.5Z" fill="#1570EF"/>
<path d="M18.4454 18.5L1.78592 9.12711C1.9891 8.90499 2.65213 8.56907 3.21019 8.25673L16.9976 0.540066C17.526 0.244326 17.7902 0.0964559 18.07 0.0384833C18.3177 -0.0128258 18.5731 -0.0128258 18.8207 0.0384832C19.1005 0.0964558 19.3647 0.244326 19.8931 0.540067L26.7868 4.3984L33.6805 8.25673C34.2386 8.56907 34.5176 8.72524 34.7208 8.94736C34.9006 9.14387 35.0366 9.37677 35.1198 9.6305C35.2139 9.91731 35.2139 10.2389 35.2139 10.882L35.2139 26.118C35.2139 26.7612 35.2139 27.0828 35.1198 27.3696C35.0366 27.6233 34.9006 27.8562 34.7208 28.0527C34.5176 28.2748 34.2386 28.431 33.6805 28.7434L19.8931 36.46C19.3647 36.7558 19.1005 36.9036 18.8207 36.9616C18.5731 37.0129 18.693 37.0129 18.4454 36.9616L18.4454 18.5ZM18.4454 18.5L34.2823 9.63625" stroke="#1570EF" stroke-width="1.29331" stroke-linecap="round" stroke-linejoin="round"/>
<path d="M17.5984 8.39621C17.8951 8.23139 18.0435 8.14897 18.2006 8.11666C18.3396 8.08807 18.483 8.08807 18.622 8.11666C18.7791 8.14897 18.9275 8.23139 19.2242 8.39621L26.9656 12.697C27.2789 12.8711 27.4356 12.9581 27.5497 13.0819C27.6506 13.1914 27.727 13.3212 27.7737 13.4626C27.8265 13.6225 27.8265 13.8017 27.8265 14.1602V22.6517C27.8265 23.0102 27.8265 23.1894 27.7737 23.3493C27.727 23.4907 27.6506 23.6205 27.5497 23.73C27.4356 23.8538 27.2789 23.9408 26.9656 24.1149L19.2242 28.4157C18.9275 28.5805 18.7791 28.6629 18.622 28.6952C18.483 28.7238 18.3396 28.7238 18.2006 28.6952C18.0435 28.6629 17.8951 28.5805 17.5984 28.4157L9.85703 24.1149C9.54369 23.9408 9.38702 23.8538 9.27294 23.73C9.17201 23.6205 9.09563 23.4907 9.04891 23.3493C8.99609 23.1894 8.99609 23.0102 8.99609 22.6517V14.1602C8.99609 13.8017 8.99609 13.6225 9.04891 13.4626C9.09563 13.3212 9.17201 13.1914 9.27294 13.0819C9.38702 12.9581 9.54369 12.8711 9.85703 12.697L17.5984 8.39621Z" fill="#1570EF"/>
<path d="M27.3034 13.4658L18.4113 18.4059M18.4113 18.4059L9.51913 13.4658M18.4113 18.4059L18.4113 28.3442M27.8265 22.6517V14.1602C27.8265 13.8017 27.8265 13.6225 27.7737 13.4626C27.727 13.3212 27.6506 13.1914 27.5497 13.0819C27.4356 12.9581 27.2789 12.8711 26.9656 12.697L19.2242 8.39621C18.9275 8.23139 18.7791 8.14897 18.622 8.11666C18.483 8.08807 18.3396 8.08807 18.2005 8.11666C18.0435 8.14897 17.8951 8.23139 17.5984 8.39621L9.85703 12.697C9.54369 12.8711 9.38702 12.9581 9.27294 13.0819C9.17201 13.1914 9.09563 13.3212 9.04891 13.4626C8.99609 13.6225 8.99609 13.8017 8.99609 14.1602V22.6517C8.99609 23.0102 8.99609 23.1894 9.04891 23.3493C9.09563 23.4907 9.17201 23.6205 9.27294 23.73C9.38702 23.8538 9.54369 23.9408 9.85703 24.1149L17.5984 28.4157C17.8951 28.5805 18.0435 28.6629 18.2005 28.6952C18.3396 28.7238 18.483 28.7238 18.622 28.6952C18.7791 28.6629 18.9275 28.5805 19.2242 28.4157L26.9656 24.1149C27.2789 23.9408 27.4356 23.8538 27.5497 23.73C27.6506 23.6205 27.727 23.4907 27.7737 23.3493C27.8265 23.1894 27.8265 23.0102 27.8265 22.6517Z" stroke="#1570EF" stroke-width="0.969985" stroke-linecap="round" stroke-linejoin="round"/>
<mask id="mask0_1371_20364" style="mask-type:alpha" maskUnits="userSpaceOnUse" x="9" y="8" width="19" height="21">
<path d="M17.6672 9.27389C17.9379 9.12351 18.0732 9.04831 18.2166 9.01884C18.3434 8.99274 18.4743 8.99274 18.6011 9.01884C18.7445 9.04831 18.8798 9.12351 19.1505 9.27389L26.2136 13.1978C26.4995 13.3567 26.6424 13.4361 26.7465 13.549C26.8386 13.6489 26.9083 13.7674 26.9509 13.8964C26.9991 14.0422 26.9991 14.2058 26.9991 14.5328V22.2803C26.9991 22.6074 26.9991 22.7709 26.9509 22.9168C26.9083 23.0458 26.8386 23.1642 26.7465 23.2641C26.6424 23.3771 26.4995 23.4565 26.2136 23.6153L19.1505 27.5393C18.8798 27.6896 18.7445 27.7648 18.6011 27.7943C18.4743 27.8204 18.3434 27.8204 18.2166 27.7943C18.0732 27.7648 17.9379 27.6896 17.6672 27.5393L10.6041 23.6153C10.3182 23.4565 10.1753 23.3771 10.0712 23.2641C9.97911 23.1642 9.90942 23.0458 9.86679 22.9168C9.8186 22.7709 9.8186 22.6074 9.8186 22.2803V14.5328C9.8186 14.2058 9.8186 14.0422 9.86679 13.8964C9.90942 13.7674 9.97911 13.6489 10.0712 13.549C10.1753 13.4361 10.3182 13.3567 10.6041 13.1978L17.6672 9.27389Z" fill="#1570EF"/>
<path d="M26.5218 13.8993L18.4088 18.4065M18.4088 18.4065L10.2958 13.8993M18.4088 18.4065L18.4088 27.474M26.9991 22.2803V14.5328C26.9991 14.2058 26.9991 14.0422 26.9509 13.8964C26.9083 13.7674 26.8386 13.6489 26.7465 13.549C26.6424 13.4361 26.4995 13.3567 26.2136 13.1978L19.1505 9.27389C18.8798 9.12351 18.7445 9.04831 18.6011 9.01884C18.4743 8.99274 18.3434 8.99274 18.2166 9.01884C18.0732 9.04831 17.9379 9.12351 17.6672 9.27389L10.6041 13.1978C10.3182 13.3567 10.1753 13.4361 10.0712 13.549C9.97911 13.6489 9.90942 13.7674 9.86679 13.8964C9.8186 14.0422 9.8186 14.2058 9.8186 14.5328V22.2803C9.8186 22.6074 9.8186 22.7709 9.86679 22.9168C9.90942 23.0458 9.97911 23.1642 10.0712 23.2641C10.1753 23.3771 10.3182 23.4565 10.6041 23.6153L17.6672 27.5393C17.9379 27.6896 18.0732 27.7648 18.2166 27.7943C18.3434 27.8204 18.4743 27.8204 18.6011 27.7943C18.7445 27.7648 18.8798 27.6896 19.1505 27.5393L26.2136 23.6153C26.4995 23.4565 26.6424 23.3771 26.7465 23.2641C26.8386 23.1642 26.9083 23.0458 26.9509 22.9168C26.9991 22.7709 26.9991 22.6074 26.9991 22.2803Z" stroke="#1570EF" stroke-width="0.772747" stroke-linecap="round" stroke-linejoin="round"/>
</mask>
<g mask="url(#mask0_1371_20364)">
<path d="M17.6672 9.27389C17.9379 9.12351 18.0732 9.04831 18.2166 9.01884C18.3434 8.99274 18.4743 8.99274 18.6011 9.01884C18.7445 9.04831 18.8798 9.12351 19.1505 9.27389L26.2136 13.1978C26.4995 13.3567 26.6424 13.4361 26.7465 13.549C26.8386 13.6489 26.9083 13.7674 26.9509 13.8964C26.9991 14.0422 26.9991 14.2058 26.9991 14.5328V22.2803C26.9991 22.6074 26.9991 22.7709 26.9509 22.9168C26.9083 23.0458 26.8386 23.1642 26.7465 23.2641C26.6424 23.3771 26.4995 23.4565 26.2136 23.6153L19.1505 27.5393C18.8798 27.6896 18.7445 27.7648 18.6011 27.7943C18.4743 27.8204 18.3434 27.8204 18.2166 27.7943C18.0732 27.7648 17.9379 27.6896 17.6672 27.5393L10.6041 23.6153C10.3182 23.4565 10.1753 23.3771 10.0712 23.2641C9.97911 23.1642 9.90942 23.0458 9.86679 22.9168C9.8186 22.7709 9.8186 22.6074 9.8186 22.2803V14.5328C9.8186 14.2058 9.8186 14.0422 9.86679 13.8964C9.90942 13.7674 9.97911 13.6489 10.0712 13.549C10.1753 13.4361 10.3182 13.3567 10.6041 13.1978L17.6672 9.27389Z" fill="#1570EF"/>
<path d="M26.5218 13.8993L18.4088 18.4065M18.4088 18.4065L10.2958 13.8993M18.4088 18.4065L18.4088 27.474M26.9991 22.2803V14.5328C26.9991 14.2058 26.9991 14.0422 26.9509 13.8964C26.9083 13.7674 26.8386 13.6489 26.7465 13.549C26.6424 13.4361 26.4995 13.3567 26.2136 13.1978L19.1505 9.27389C18.8798 9.12351 18.7445 9.04831 18.6011 9.01884C18.4743 8.99274 18.3434 8.99274 18.2166 9.01884C18.0732 9.04831 17.9379 9.12351 17.6672 9.27389L10.6041 13.1978C10.3182 13.3567 10.1753 13.4361 10.0712 13.549C9.97911 13.6489 9.90942 13.7674 9.86679 13.8964C9.8186 14.0422 9.8186 14.2058 9.8186 14.5328V22.2803C9.8186 22.6074 9.8186 22.7709 9.86679 22.9168C9.90942 23.0458 9.97911 23.1642 10.0712 23.2641C10.1753 23.3771 10.3182 23.4565 10.6041 23.6153L17.6672 27.5393C17.9379 27.6896 18.0732 27.7648 18.2166 27.7943C18.3434 27.8204 18.4743 27.8204 18.6011 27.7943C18.7445 27.7648 18.8798 27.6896 19.1505 27.5393L26.2136 23.6153C26.4995 23.4565 26.6424 23.3771 26.7465 23.2641C26.8386 23.1642 26.9083 23.0458 26.9509 22.9168C26.9991 22.7709 26.9991 22.6074 26.9991 22.2803Z" stroke="#1570EF" stroke-width="0.772747" stroke-linecap="round" stroke-linejoin="round"/>
<path d="M18.7946 8.08032L8.92871 13.2087L18.2972 18.2002L28.1623 13.0727L18.7946 8.08032Z" fill="white"/>
<path d="M18.4849 18.0642L18.4849 28.1454L27.8967 23.3241L27.8967 13.1979L18.4849 18.0642Z" fill="#84CAFF"/>
<path d="M18.6225 18.2685L18.6225 28.0301C18.6225 28.4971 18.122 28.7933 17.7126 28.5686L9.24586 23.9218C9.04929 23.8139 8.92711 23.6074 8.92711 23.3832L8.92718 13.8214C8.92719 13.3593 9.41811 13.0627 9.82717 13.2775L18.2939 17.7246C18.496 17.8307 18.6225 18.0402 18.6225 18.2685Z" fill="#1570EF"/>
</g>
</g>
<defs>
<clipPath id="clip0_1371_20364">
<rect width="37.0001" height="37.0001" fill="white"/>
</clipPath>
</defs>
</svg>
