<svg width="80" height="80" viewBox="0 0 80 80" fill="none" xmlns="http://www.w3.org/2000/svg">
<path d="M64.1656 28.2377C63.3667 27.9648 62.562 27.7106 61.7516 27.4752C61.8859 26.9283 62.0099 26.3783 62.1234 25.8252C63.9516 16.9346 62.7562 9.77205 58.6766 7.41424C54.7703 5.15174 48.3641 7.50955 41.9016 13.1471C41.2661 13.7033 40.6437 14.2762 40.0344 14.8658C39.6281 14.4741 39.2115 14.0908 38.7844 13.7158C32.0109 7.68768 25.2219 5.14862 21.1469 7.51424C17.2406 9.78143 16.0797 16.5142 17.725 24.9408C17.8896 25.7741 18.0745 26.6038 18.2797 27.4299C17.3459 27.6946 16.42 27.9864 15.5031 28.3049C7.57188 31.0783 2.5 35.4267 2.5 39.9361C2.5 44.5955 7.94375 49.2674 16.2141 52.1002C16.8849 52.3283 17.562 52.5403 18.2453 52.7361C18.0234 53.6205 17.8271 54.5148 17.6562 55.4189C16.0938 63.7002 17.3125 70.2736 21.2109 72.5267C25.2375 74.8533 31.9922 72.4627 38.5766 66.6971C39.0974 66.2408 39.6182 65.759 40.1391 65.2517C40.7974 65.8882 41.4745 66.5059 42.1703 67.1049C48.5453 72.6017 54.8406 74.8221 58.7328 72.5627C62.7563 70.2283 64.0641 63.1658 62.3656 54.5736C62.2354 53.9174 62.0854 53.2476 61.9156 52.5642C62.3906 52.4236 62.8557 52.2783 63.3109 52.1283C71.9047 49.2736 77.5031 44.658 77.5031 39.9408C77.5 35.4096 72.2656 31.033 64.1656 28.2377ZM44.0094 15.5689C49.5453 10.7392 54.7203 8.83299 57.0797 10.1955C59.5906 11.6471 60.5672 17.5002 58.9891 25.1767C58.8849 25.6767 58.7724 26.1752 58.6516 26.6721C55.3478 25.9207 51.9977 25.3903 48.6234 25.0846C46.6916 22.3015 44.5737 19.6522 42.2844 17.1549C42.8448 16.6111 43.4188 16.0825 44.0063 15.5689H44.0094ZM24.6453 43.7892C25.3234 45.1017 26.0323 46.3981 26.7719 47.6783C27.525 48.9846 28.3099 50.2715 29.1266 51.5392C26.8048 51.2869 24.4976 50.915 22.2141 50.4252C22.8766 48.2814 23.6922 46.0549 24.6453 43.7892ZM24.6453 36.2377C23.7078 34.0205 22.9141 31.8392 22.2625 29.733C24.4031 29.2533 26.6844 28.8611 29.0625 28.5642C28.2656 29.808 27.499 31.07 26.7625 32.3502C26.026 33.6304 25.3188 34.9262 24.6406 36.2377H24.6453ZM26.3484 40.0142C27.3359 37.9549 28.3995 35.9351 29.5391 33.9549C30.6776 31.9757 31.8896 30.0418 33.175 28.1533C35.4062 27.9846 37.6937 27.8955 40.0047 27.8955C42.3156 27.8955 44.6172 27.9846 46.8469 28.1549C48.1188 30.0392 49.3234 31.9663 50.4609 33.9361C51.5984 35.9059 52.676 37.9163 53.6938 39.9674C52.6896 42.034 51.6146 44.0622 50.4688 46.0517C49.3323 48.0309 48.1344 49.9705 46.875 51.8705C44.6484 52.0267 42.3438 52.1127 40 52.1127C37.6562 52.1127 35.3953 52.0392 33.2094 51.8971C31.9146 50.0023 30.6927 48.0601 29.5438 46.0705C28.3948 44.0809 27.3281 42.0622 26.3438 40.0142H26.3484ZM53.2422 47.6564C53.9974 46.346 54.7224 45.0184 55.4172 43.6736C56.3697 45.8331 57.2104 48.0402 57.9359 50.2861C55.6256 50.8065 53.2896 51.2055 50.9375 51.4814C51.7313 50.2221 52.4995 48.9471 53.2422 47.6564ZM55.3859 36.2392C54.6943 34.9215 53.975 33.6194 53.2281 32.333C52.499 31.0642 51.7391 29.8111 50.9484 28.5736C53.3406 28.8767 55.6359 29.2799 57.7875 29.7721C57.0957 31.9666 56.2942 34.1251 55.3859 36.2392ZM40.0359 19.4502C41.5961 21.1551 43.0693 22.9375 44.45 24.7908C41.4969 24.6502 38.5417 24.6502 35.5844 24.7908C37.0422 22.8627 38.5344 21.0736 40.0359 19.4502ZM22.7594 10.2908C25.2688 8.83455 30.8172 10.9158 36.6656 16.1142C37.0391 16.4471 37.4156 16.7955 37.7906 17.1564C35.4895 19.6534 33.3567 22.3003 31.4062 25.0799C28.0394 25.3832 24.6959 25.9051 21.3969 26.6424C21.2063 25.8757 21.0344 25.1038 20.8813 24.3267C19.4672 17.1033 20.4031 11.658 22.7594 10.2908ZM19.1016 49.6424C18.4766 49.4642 17.8594 49.271 17.25 49.0627C13.5938 47.8127 10.5734 46.1814 8.5 44.4049C6.64375 42.8127 5.70312 41.2236 5.70312 39.9361C5.70312 37.2002 9.775 33.7096 16.5656 31.3424C17.4187 31.0455 18.2792 30.7741 19.1469 30.5283C20.1554 33.7694 21.3768 36.9404 22.8031 40.0205C21.3598 43.1432 20.1233 46.3574 19.1016 49.6424ZM36.4656 64.2783C33.5547 66.8283 30.6391 68.6361 28.0688 69.5471C25.7594 70.3642 23.9203 70.3877 22.8094 69.7455C20.4437 68.3783 19.4594 63.0986 20.8016 56.0174C20.9609 55.184 21.1432 54.3507 21.3484 53.5174C24.6805 54.2351 28.0576 54.7253 31.4563 54.9846C33.4258 57.7785 35.5762 60.4405 37.8937 62.9533C37.4281 63.4111 36.9516 63.8517 36.4656 64.2783ZM40.125 60.6502C38.6062 59.008 37.0906 57.1908 35.6125 55.2377C37.049 55.2939 38.5115 55.3221 40 55.3221C41.5281 55.3221 43.0406 55.2892 44.5312 55.2221C43.1557 57.1052 41.6851 58.9169 40.125 60.6502ZM59.5813 65.1174C59.1344 67.5299 58.2359 69.1392 57.125 69.783C54.7609 71.1549 49.7062 69.3721 44.2562 64.6705C43.6312 64.133 43.0063 63.5564 42.3703 62.9517C44.6427 60.4291 46.7427 57.7564 48.6562 54.9517C52.0737 54.6621 55.4672 54.1374 58.8125 53.3814C58.9656 54.0002 59.101 54.6064 59.2188 55.2002C59.9703 58.9971 60.0781 62.4314 59.5813 65.1174ZM62.3 49.0799C61.8906 49.2158 61.4688 49.3471 61.0406 49.4752C59.9918 46.2188 58.7227 43.0375 57.2422 39.9533C58.6671 36.9102 59.8865 33.7751 60.8922 30.5689C61.6594 30.7924 62.4047 31.0267 63.1219 31.2752C70.0625 33.6689 74.2969 37.2127 74.2969 39.9361C74.2969 42.8424 69.7234 46.6142 62.3 49.0799Z" fill="black"/>
<path d="M40.0001 46.6479C41.3299 46.6522 42.631 46.2619 43.7388 45.5263C44.8466 44.7906 45.7111 43.7428 46.223 42.5155C46.7349 41.2882 46.8711 39.9366 46.6143 38.6319C46.3575 37.3271 45.7194 36.1279 44.7806 35.1861C43.8418 34.2443 42.6447 33.6022 41.3408 33.3412C40.0369 33.0801 38.6849 33.2119 37.4559 33.7198C36.2269 34.2277 35.1763 35.0888 34.4371 36.1942C33.6978 37.2995 33.3032 38.5994 33.3032 39.9292C33.3014 40.8102 33.4732 41.6829 33.8088 42.4975C34.1444 43.312 34.6373 44.0525 35.2593 44.6764C35.8812 45.3004 36.62 45.7957 37.4335 46.134C38.247 46.4722 39.1191 46.6469 40.0001 46.6479Z" fill="black"/>
</svg>
