<svg width="49" height="49" viewBox="0 0 49 49" fill="none" xmlns="http://www.w3.org/2000/svg">
<rect x="0.25" y="1.06812" width="48.2385" height="47.5" rx="7.75" stroke="#1560FF" stroke-opacity="0.25" stroke-width="0.5"/>
<g clip-path="url(#clip0_1106_29033)">
<mask id="mask0_1106_29033" style="mask-type:luminance" maskUnits="userSpaceOnUse" x="12" y="12" width="25" height="25">
<path d="M36.1757 12.9062H12.5449V36.537H36.1757V12.9062Z" fill="white"/>
</mask>
<g mask="url(#mask0_1106_29033)">
<path fill-rule="evenodd" clip-rule="evenodd" d="M19.1911 15.7678C19.4884 15.5962 19.9217 15.5433 20.5397 15.7275C21.1598 15.9123 21.8959 16.3186 22.7006 16.9518C22.9002 17.1088 23.102 17.2782 23.3054 17.4596C22.6798 18.1259 22.0598 18.8778 21.4619 19.701C20.45 19.8073 19.4889 19.9682 18.5991 20.1768C18.5437 19.91 18.4979 19.6505 18.4617 19.3992C18.3156 18.3856 18.3319 17.545 18.4818 16.9156C18.6313 16.2883 18.8938 15.9394 19.1911 15.7678ZM23.614 15.7911C23.8615 15.9859 24.1106 16.1964 24.3603 16.4218C24.61 16.1964 24.8591 15.9859 25.1066 15.7911C25.9985 15.0893 26.9003 14.568 27.759 14.3121C28.6196 14.0556 29.5056 14.0486 30.268 14.4887C31.0302 14.9289 31.4673 15.6997 31.6755 16.5733C31.8832 17.4449 31.8826 18.4865 31.7207 19.6098C31.6758 19.9215 31.6181 20.2425 31.5478 20.5715C31.8678 20.675 32.1747 20.7855 32.4671 20.9025C33.5209 21.324 34.4232 21.8444 35.0742 22.46C35.7267 23.0771 36.1757 23.8409 36.1757 24.7212C36.1757 25.6014 35.7267 26.3653 35.0742 26.9823C34.4232 27.598 33.5209 28.1184 32.4671 28.5399C32.1747 28.6569 31.8678 28.7673 31.5478 28.8709C31.6181 29.1998 31.6758 29.5209 31.7208 29.8325C31.8826 30.9558 31.8832 31.9975 31.6755 32.8691C31.4673 33.7427 31.0302 34.5135 30.268 34.9536C29.5058 35.3937 28.6196 35.3868 27.759 35.1302C26.9004 34.8743 25.9986 34.3531 25.1067 33.6512C24.8591 33.4564 24.61 33.2458 24.3603 33.0204C24.1106 33.2458 23.8614 33.4564 23.6139 33.6512C22.722 34.3531 21.8202 34.8743 20.9616 35.1302C20.1009 35.3868 19.2149 35.3937 18.4526 34.9536C17.6903 34.5135 17.2533 33.7427 17.0451 32.8691C16.8375 31.9975 16.838 30.9558 16.9998 29.8325C17.0447 29.5209 17.1025 29.1998 17.1729 28.8709C16.8528 28.7672 16.5459 28.6569 16.2535 28.5399C15.1997 28.1184 14.2974 27.598 13.6465 26.9823C12.9939 26.3653 12.5449 25.6014 12.5449 24.7212C12.5449 23.8409 12.9939 23.0771 13.6465 22.46C14.2974 21.8444 15.1997 21.324 16.2535 20.9025C16.5459 20.7855 16.8528 20.675 17.1729 20.5715C17.1025 20.2425 17.0447 19.9215 16.9998 19.6098C16.838 18.4865 16.8375 17.4448 17.0451 16.5733C17.2533 15.6997 17.6903 14.9289 18.4526 14.4887C19.2149 14.0486 20.101 14.0556 20.9616 14.3121C21.8202 14.568 22.7221 15.0893 23.614 15.7911ZM23.4261 19.5671C23.7361 19.1856 24.0484 18.8272 24.3603 18.4938C24.6722 18.8272 24.9845 19.1856 25.2945 19.5671C24.9861 19.557 24.6745 19.5519 24.3603 19.5519C24.0461 19.5519 23.7345 19.557 23.4261 19.5671ZM25.4152 17.4596C26.0408 18.1259 26.6607 18.8778 27.2587 19.701C28.2705 19.8073 29.2316 19.9682 30.1215 20.1768C30.1769 19.91 30.2227 19.6505 30.259 19.3992C30.4049 18.3856 30.3887 17.545 30.2388 16.9156C30.0893 16.2883 29.8268 15.9394 29.5295 15.7678C29.2322 15.5962 28.7989 15.5433 28.1808 15.7275C27.5608 15.9123 26.8247 16.3186 26.0199 16.9518C25.8204 17.1088 25.6186 17.2782 25.4152 17.4596ZM24.3603 21.0289C25.0756 21.0289 25.7728 21.0567 26.4455 21.1094C26.8276 21.6657 27.2003 22.2555 27.558 22.875C27.9156 23.4945 28.24 24.1122 28.5307 24.7211C28.24 25.3301 27.9156 25.9478 27.5578 26.5673C27.2003 27.1868 26.8276 27.7766 26.4455 28.3328C25.7728 28.3857 25.0756 28.4135 24.3603 28.4135C23.645 28.4135 22.9478 28.3857 22.2751 28.3328C21.893 27.7766 21.5203 27.1868 21.1627 26.5673C20.805 25.9478 20.4805 25.3301 20.1898 24.7211C20.4805 24.1122 20.805 23.4945 21.1627 22.875C21.5203 22.2555 21.893 21.6657 22.275 21.1094C22.9478 21.0567 23.645 21.0289 24.3603 21.0289ZM28.837 22.1365C28.9942 22.4086 29.1454 22.681 29.291 22.9531C29.4663 22.4939 29.6205 22.0443 29.7533 21.6075C29.3087 21.5041 28.8422 21.4128 28.3569 21.3351C28.5198 21.5972 28.6799 21.8644 28.837 22.1365ZM28.837 27.3058C28.994 27.0337 29.1454 26.7613 29.291 26.4892C29.4663 26.9484 29.6207 27.398 29.7533 27.8348C29.3087 27.9382 28.8422 28.0295 28.3567 28.1072C28.5196 27.8452 28.6799 27.5779 28.837 27.3058ZM30.1571 24.7211C30.5709 25.6505 30.9122 26.5635 31.1765 27.4384C31.4352 27.3529 31.6829 27.2628 31.9186 27.1685C32.8695 26.7882 33.5893 26.3539 34.0594 25.9093C34.5279 25.4662 34.6988 25.0644 34.6988 24.7212C34.6988 24.3779 34.5279 23.9761 34.0594 23.533C33.5893 23.0885 32.8695 22.6541 31.9186 22.2738C31.6829 22.1795 31.4352 22.0894 31.1765 22.004C30.9122 22.8789 30.5709 23.7917 30.1571 24.7211ZM27.2587 29.7414C28.2705 29.635 29.2316 29.4741 30.1215 29.2655C30.1769 29.5324 30.2228 29.7919 30.259 30.0431C30.4051 31.0567 30.3887 31.8974 30.2388 32.5267C30.0893 33.1541 29.8268 33.503 29.5295 33.6746C29.2322 33.8462 28.7989 33.8991 28.1808 33.7149C27.5608 33.53 26.8247 33.1238 26.02 32.4905C25.8204 32.3335 25.6186 32.1641 25.4152 31.9828C26.0407 31.3164 26.6607 30.5645 27.2587 29.7414ZM25.2944 29.8753C24.9845 30.2568 24.6722 30.6151 24.3603 30.9485C24.0484 30.6151 23.7361 30.2568 23.4261 29.8752C23.7345 29.8852 24.0461 29.8904 24.3603 29.8904C24.6745 29.8904 24.986 29.8852 25.2944 29.8753ZM19.8836 27.3058C20.0407 27.5779 20.2009 27.8452 20.3638 28.1072C19.8784 28.0295 19.4119 27.9382 18.9672 27.8348C19.1 27.398 19.2542 26.9484 19.4296 26.4892C19.5751 26.7613 19.7265 27.0337 19.8836 27.3058ZM21.4619 29.7414C20.4501 29.635 19.4889 29.4741 18.599 29.2655C18.5437 29.5324 18.4978 29.7919 18.4616 30.0431C18.3156 31.0567 18.3318 31.8974 18.4818 32.5267C18.6313 33.1541 18.8938 33.503 19.191 33.6746C19.4883 33.8462 19.9217 33.8991 20.5397 33.7149C21.1598 33.53 21.8959 33.1238 22.7006 32.4905C22.9001 32.3335 23.102 32.1641 23.3054 31.9828C22.6798 31.3164 22.0599 30.5645 21.4619 29.7414ZM18.5635 24.7211C18.1496 25.6505 17.8084 26.5634 17.5441 27.4384C17.2854 27.3529 17.0377 27.2628 16.802 27.1685C15.8512 26.7882 15.1314 26.3539 14.6613 25.9093C14.1927 25.4662 14.0218 25.0644 14.0218 24.7212C14.0218 24.3779 14.1927 23.9761 14.6613 23.533C15.1314 23.0885 15.8512 22.6541 16.802 22.2738C17.0377 22.1795 17.2854 22.0894 17.5442 22.004C17.8084 22.8789 18.1496 23.7917 18.5635 24.7211ZM19.4296 22.9531C19.2542 22.4939 19.1 22.0443 18.9673 21.6075C19.4119 21.5041 19.8784 21.4128 20.3638 21.3351C20.2009 21.5972 20.0407 21.8644 19.8836 22.1365C19.7265 22.4086 19.5751 22.681 19.4296 22.9531ZM26.2065 24.7212C26.2065 25.7408 25.3799 26.5673 24.3603 26.5673C23.3407 26.5673 22.5142 25.7408 22.5142 24.7212C22.5142 23.7016 23.3407 22.875 24.3603 22.875C25.3799 22.875 26.2065 23.7016 26.2065 24.7212Z" fill="#149ECA"/>
</g>
</g>
<defs>
<clipPath id="clip0_1106_29033">
<rect width="23.6308" height="23.6308" fill="white" transform="translate(12.5527 12.9075)"/>
</clipPath>
</defs>
</svg>
