<svg width="1185" height="601" viewBox="0 0 1185 601" fill="none" xmlns="http://www.w3.org/2000/svg">
<line opacity="0.1" y1="0.5" x2="1184" y2="0.5" stroke="#343A40"/>
<line opacity="0.1" y1="100.5" x2="1184" y2="100.5" stroke="#343A40"/>
<line opacity="0.1" y1="200.5" x2="1184" y2="200.5" stroke="#343A40"/>
<line opacity="0.1" y1="300.5" x2="1184" y2="300.5" stroke="#343A40"/>
<line opacity="0.1" y1="400.5" x2="1184" y2="400.5" stroke="#343A40"/>
<line opacity="0.1" y1="500.5" x2="1184" y2="500.5" stroke="#343A40"/>
<line opacity="0.1" y1="600.5" x2="1184" y2="600.5" stroke="#343A40"/>
<line opacity="0.1" x1="0.5" y1="1" x2="0.499974" y2="601" stroke="#343A40"/>
<line opacity="0.1" x1="108.136" y1="1" x2="108.136" y2="601" stroke="#343A40"/>
<line opacity="0.1" x1="215.773" y1="1" x2="215.773" y2="601" stroke="#343A40"/>
<line opacity="0.1" x1="323.409" y1="1" x2="323.409" y2="601" stroke="#343A40"/>
<line opacity="0.1" x1="431.045" y1="1" x2="431.045" y2="601" stroke="#343A40"/>
<line opacity="0.1" x1="538.682" y1="1" x2="538.682" y2="601" stroke="#343A40"/>
<line opacity="0.1" x1="646.318" y1="1" x2="646.318" y2="601" stroke="#343A40"/>
<line opacity="0.1" x1="753.955" y1="1" x2="753.955" y2="601" stroke="#343A40"/>
<line opacity="0.1" x1="861.591" y1="1" x2="861.591" y2="601" stroke="#343A40"/>
<line opacity="0.1" x1="969.227" y1="1" x2="969.227" y2="601" stroke="#343A40"/>
<line opacity="0.1" x1="1076.86" y1="1" x2="1076.86" y2="601" stroke="#343A40"/>
<line opacity="0.1" x1="1184.5" y1="1" x2="1184.5" y2="601" stroke="#343A40"/>
<rect x="33" y="1" width="1119" height="600" fill="url(#paint0_radial_2000_19669)"/>
<defs>
<radialGradient id="paint0_radial_2000_19669" cx="0" cy="0" r="1" gradientUnits="userSpaceOnUse" gradientTransform="translate(592.5 301) rotate(90) scale(300 559.5)">
<stop offset="0.206731" stop-color="white"/>
<stop offset="1" stop-color="white" stop-opacity="0"/>
</radialGradient>
</defs>
</svg>
