<svg width="1185" height="101" viewBox="0 0 1185 101" fill="none" xmlns="http://www.w3.org/2000/svg">
<line opacity="0.1" x1="0.5" y1="0.0317383" x2="0.500004" y2="100.032" stroke="#343A40"/>
<line opacity="0.1" x1="41.3276" y1="0.0317383" x2="41.3276" y2="100.032" stroke="#343A40"/>
<line opacity="0.1" x1="82.1553" y1="0.0317383" x2="82.1553" y2="100.032" stroke="#343A40"/>
<line opacity="0.1" x1="122.983" y1="0.0317383" x2="122.983" y2="100.032" stroke="#343A40"/>
<line opacity="0.1" x1="163.811" y1="0.0317383" x2="163.811" y2="100.032" stroke="#343A40"/>
<line opacity="0.1" x1="204.638" y1="0.0317383" x2="204.638" y2="100.032" stroke="#343A40"/>
<line opacity="0.1" x1="245.465" y1="0.0317383" x2="245.465" y2="100.032" stroke="#343A40"/>
<line opacity="0.1" x1="286.293" y1="0.0317383" x2="286.293" y2="100.032" stroke="#343A40"/>
<line opacity="0.1" x1="327.121" y1="0.0317383" x2="327.121" y2="100.032" stroke="#343A40"/>
<line opacity="0.1" x1="367.948" y1="0.0317383" x2="367.948" y2="100.032" stroke="#343A40"/>
<line opacity="0.1" x1="408.776" y1="0.0317383" x2="408.776" y2="100.032" stroke="#343A40"/>
<line opacity="0.1" x1="449.604" y1="0.0317383" x2="449.604" y2="100.032" stroke="#343A40"/>
<line opacity="0.1" x1="490.431" y1="0.0317383" x2="490.431" y2="100.032" stroke="#343A40"/>
<line opacity="0.1" x1="531.259" y1="0.0317383" x2="531.259" y2="100.032" stroke="#343A40"/>
<line opacity="0.1" x1="572.086" y1="0.0317383" x2="572.086" y2="100.032" stroke="#343A40"/>
<line opacity="0.1" x1="612.914" y1="0.0317383" x2="612.914" y2="100.032" stroke="#343A40"/>
<line opacity="0.1" x1="653.741" y1="0.0317383" x2="653.741" y2="100.032" stroke="#343A40"/>
<line opacity="0.1" x1="694.569" y1="0.0317383" x2="694.569" y2="100.032" stroke="#343A40"/>
<line opacity="0.1" x1="735.396" y1="0.0317383" x2="735.396" y2="100.032" stroke="#343A40"/>
<line opacity="0.1" x1="776.224" y1="0.0317383" x2="776.224" y2="100.032" stroke="#343A40"/>
<line opacity="0.1" x1="817.052" y1="0.0317383" x2="817.052" y2="100.032" stroke="#343A40"/>
<line opacity="0.1" x1="857.879" y1="0.0317383" x2="857.879" y2="100.032" stroke="#343A40"/>
<line opacity="0.1" x1="898.707" y1="0.0317383" x2="898.707" y2="100.032" stroke="#343A40"/>
<line opacity="0.1" x1="939.534" y1="0.0317383" x2="939.534" y2="100.032" stroke="#343A40"/>
<line opacity="0.1" x1="980.362" y1="0.0317383" x2="980.362" y2="100.032" stroke="#343A40"/>
<line opacity="0.1" x1="1021.19" y1="0.0317383" x2="1021.19" y2="100.032" stroke="#343A40"/>
<line opacity="0.1" x1="1062.02" y1="0.0317383" x2="1062.02" y2="100.032" stroke="#343A40"/>
<line opacity="0.1" x1="1102.84" y1="0.0317383" x2="1102.84" y2="100.032" stroke="#343A40"/>
<line opacity="0.1" x1="1143.67" y1="0.0317383" x2="1143.67" y2="100.032" stroke="#343A40"/>
<line opacity="0.1" x1="1184.5" y1="0.0317383" x2="1184.5" y2="100.032" stroke="#343A40"/>
</svg>
